<svg width="16" height="16" viewBox="0 0 16 16" fill="none" xmlns="http://www.w3.org/2000/svg">
<g clip-path="url(#clip0_392_650)">
<path d="M7.70996 3.67004C7.47083 2.45871 6.98777 1.3087 6.29004 0.290039L5.95996 0.570068C6.54997 1.45606 6.97356 2.44215 7.20996 3.48004C6.72146 3.32096 6.21331 3.23014 5.69995 3.21008V0.430054H5.27002V3.21008C4.75666 3.23014 4.24851 3.32096 3.76001 3.48004C4.00139 2.44378 4.4246 1.45855 5.01001 0.570068L4.67993 0.290039C3.98607 1.31081 3.50335 2.46 3.26001 3.67004C2.39631 4.05053 1.67515 4.69464 1.19995 5.51007V5.93005C1.71628 5.19701 2.40252 4.59999 3.19995 4.19006C3.06516 4.93933 2.99494 5.6988 2.98999 6.46008H0.449951V6.90009C1.18311 8.02576 2.1565 8.97511 3.30005 9.68005C3.53284 10.8933 4.01642 12.0446 4.71997 13.0601L5.05005 12.7801C4.456 11.8963 4.03208 10.9094 3.80005 9.87006C4.28855 10.0291 4.7967 10.12 5.31006 10.1401V12.92H5.73999V10.1401H6.04004V9.73004H5.78003V6.87006H7.17993L8.06006 6.39008C8.05058 5.64891 7.98038 4.90974 7.8501 4.18005C8.4988 4.53285 9.07271 5.00835 9.54004 5.58008L9.82007 5.43005C9.31393 4.64083 8.57718 4.02638 7.70996 3.67004ZM0.860107 6.90009H3C3.00495 7.66137 3.07517 8.42078 3.20996 9.17004C2.30366 8.552 1.50916 7.78444 0.860107 6.90009ZM5.31006 9.72003C4.74948 9.70462 4.19518 9.59654 3.66992 9.40009C3.50847 8.57623 3.42145 7.73953 3.40991 6.90009H5.31006V9.72003ZM5.31006 6.44006H3.40991C3.42172 5.60725 3.50875 4.77723 3.66992 3.96008C4.19553 3.76199 4.74902 3.64724 5.31006 3.62006V6.44006ZM5.73999 6.44006V3.60004C6.3042 3.6331 6.85862 3.7616 7.37988 3.98004C7.53781 4.80085 7.62148 5.63421 7.62988 6.47003L5.73999 6.44006Z" fill="#D9D9D9"/>
<path d="M8.87982 1.26994C8.43064 0.83243 7.8964 0.492037 7.31 0.269943C6.72905 0.0524351 6.1094 -0.0429141 5.48993 -0.0100865C4.89856 -0.0598949 4.30342 0.0162179 3.74359 0.21318C3.18377 0.410142 2.67204 0.723492 2.24213 1.13261C1.81222 1.54174 1.4739 2.03733 1.24945 2.58672C1.02501 3.1361 0.919419 3.72682 0.939883 4.31993L0.999941 5.87993C0.869155 5.88861 0.740847 5.919 0.620058 5.96989C0.491252 6.02983 0.375583 6.11482 0.27997 6.21989C0.184385 6.32856 0.109818 6.45407 0.0599997 6.58995C0.0551954 6.66988 0.0551954 6.75001 0.0599997 6.82994V7.4799C0.106393 7.83237 0.221781 8.1722 0.399843 8.4799C0.669402 8.91387 1.05834 9.26104 1.51996 9.4799L1.9599 10.8199L2.01996 10.9299C2.16996 11.1799 3.71995 13.3199 5.25995 13.3199H5.81C5.89326 13.3247 5.97674 13.3247 6.06 13.3199V12.5699C5.9769 12.5788 5.8931 12.5788 5.81 12.5699H5.25995C4.62932 12.4662 4.05355 12.1484 3.62982 11.6699C3.38953 11.4427 3.16571 11.1988 2.9599 10.9399C2.8699 10.8299 2.79994 10.7299 2.74994 10.6599C2.72599 10.6364 2.7057 10.6095 2.68988 10.5799L2.15985 8.9799L1.86005 8.8499C1.53429 8.69747 1.26232 8.44997 1.08002 8.13994C0.900137 7.83806 0.809943 7.4912 0.820009 7.13994V6.99992C0.815918 6.95669 0.815918 6.91316 0.820009 6.86992L0.879824 6.76994C0.907954 6.73735 0.941952 6.71022 0.979922 6.68993H1.09003H1.85004L1.76996 4.38994C1.74942 3.48585 2.07073 2.60729 2.66986 1.92992C3.04671 1.54958 3.50039 1.25388 4.00043 1.06248C4.50047 0.871091 5.03553 0.788412 5.57001 0.819931C6.08753 0.799248 6.60406 0.880793 7.09003 1.05992C7.57149 1.24366 8.01272 1.5187 8.38983 1.86992C8.69876 2.20364 8.9401 2.59423 9.10004 3.01994C9.27073 3.45576 9.34904 3.92227 9.33002 4.38994V5.79991L10.09 5.37993V4.37993C10.1056 3.81778 10.0139 3.25778 9.82001 2.7299C9.61153 2.1832 9.29121 1.686 8.87982 1.26994Z" fill="white"/>
<path d="M11.5 7.15015L14.8401 9.03015V9.5401H10.71V10.6601H14.8799V12.8001H10.73V13.9201H12.8701L11.53 14.6801L8.18994 12.8001V12.2901H12.3301V11.1701H8.18994V9.00012H12.3301V7.88013H10.1899L11.5 7.15015ZM11.5 5.8501L7 8.39014V13.4601L11.5 16.0001L16 13.4601V8.39014L11.5 5.8501Z" fill="white"/>
</g>
<defs>
<clipPath id="clip0_392_650">
<rect width="16" height="16" fill="white"/>
</clipPath>
</defs>
</svg>
