<svg width="64" height="64" viewBox="0 0 64 64" fill="none" xmlns="http://www.w3.org/2000/svg">
<path d="M46.4854 28L30.9707 36.75V54.25L46.4854 63L62.0001 54.25V36.75L46.4854 28Z" fill="#333333"/>
<path d="M46.4854 32.4915L58.0051 38.9862V40.7167H43.751V44.6056H58.1215V51.9555H43.848V55.8443H51.198L46.5824 58.4501L35.0627 51.9555V50.2249H49.3362V46.336H35.0627V38.9862H49.3362V35.0973H41.9667L46.4854 32.4915ZM46.4854 28L30.9707 36.75V54.25L46.4854 63L62.0001 54.25V36.75L46.4854 28Z" fill="white"/>
<path d="M44.6166 23.104H4.39355C4.20979 23.1013 4.02756 23.1356 3.85726 23.2046C3.68696 23.2737 3.53219 23.3762 3.40224 23.5062C3.27229 23.6361 3.16976 23.7908 3.10069 23.9611C3.03161 24.1314 2.99739 24.3139 3.00009 24.4976V43.5463C2.99195 43.9259 3.13358 44.2934 3.39441 44.5692C3.65523 44.8451 4.01415 45.007 4.39355 45.0201H29.0467V36.6587C29.0453 36.3054 29.1372 35.958 29.3133 35.6516C29.4893 35.3453 29.7433 35.0909 30.0493 34.9143L45.6191 26.0215C45.7416 25.9578 45.8689 25.9041 46 25.8611V24.5177C46.0054 24.3331 45.9735 24.1493 45.9062 23.9774C45.839 23.8054 45.738 23.6488 45.6088 23.5168C45.4797 23.3849 45.3253 23.2803 45.1548 23.2093C44.9843 23.1384 44.8012 23.1026 44.6166 23.104Z" fill="#7F7F7F"/>
<path opacity="0.3" d="M7.17065 31.9667C6.52901 31.9667 5.99773 32.3075 5.99773 32.7086V41.2504C5.89747 41.6515 6.52901 41.9923 7.17065 41.9923H29.0467V36.6386C29.0453 36.2853 29.1372 35.9379 29.3132 35.6316C29.4893 35.3252 29.7433 35.0708 30.0492 34.8941L35.1725 31.9667H7.17065Z" fill="black"/>
<path d="M42.3023 1.54396L1.70801 12.7549L3.25355 18.3512L43.8479 7.1403L42.3023 1.54396Z" fill="#7F7F7F"/>
<path d="M42.015 2.10541L43.3148 6.87147L3.5399 17.7901L2.24006 13.024L42.015 2.10541ZM42.6216 0.978882L1.2002 12.4174L3.01996 18.8299L44.3547 7.47806L42.6216 0.978882Z" fill="white"/>
<path d="M10.1256 10.4243L4.75293 11.8975L9.77896 16.6635L15.065 15.1904L10.1256 10.4243Z" fill="white"/>
<path d="M19.4842 7.82471L14.1982 9.29785L19.2243 13.9773L24.5103 12.5908L19.4842 7.82471Z" fill="white"/>
<path d="M28.9296 5.22498L23.6436 6.69812L28.5829 11.3775L33.9556 9.99104L28.9296 5.22498Z" fill="white"/>
<path d="M38.6346 2.53857L33.3486 4.01172L38.288 8.77778L43.574 7.30464L38.6346 2.53857Z" fill="white"/>
<path d="M45.5658 19.4365H3.45117V25.2425H45.5658V19.4365Z" fill="#7F7F7F"/>
<path d="M45.1332 19.8699V24.8092H3.88511V19.8699H45.1332V19.8699ZM45.9998 19.0033H3.01855V25.6758H45.9998V19.0033Z" fill="white"/>
<path d="M12.1185 25.2424H6.65918L10.2121 19.3499H15.6714L12.1185 25.2424Z" fill="white"/>
<path d="M21.9102 25.2424H16.4509L20.0038 19.3499H25.4631L21.9102 25.2424Z" fill="white"/>
<path d="M31.7032 25.2424H26.1572L29.7101 19.3499H35.2561L31.7032 25.2424Z" fill="white"/>
<path d="M41.7542 25.2424H36.2083L39.7611 19.3499H45.3071L41.7542 25.2424Z" fill="white"/>
</svg>
