<svg width="16" height="16" viewBox="0 0 16 16" fill="none" xmlns="http://www.w3.org/2000/svg">
<path opacity="0.5" fill-rule="evenodd" clip-rule="evenodd" d="M16 0H1L1.62012 1H5V5H3.12012L3.75 6H5V7H6V6H10V8.25L11 7.62V6H15V10H13V11H15V14.25L16 15V0ZM6 5V1H10V5H6ZM11 5V1H15V5H11Z" fill="white"/>
<path d="M8 14.25C7.99741 14.4481 7.91768 14.6374 7.77759 14.7775C7.63749 14.9176 7.44811 14.9974 7.25 15H1.75C1.55189 14.9974 1.36251 14.9176 1.22241 14.7775C1.08232 14.6374 1.00259 14.4481 1 14.25V8.75C1.00259 8.55189 1.08232 8.36263 1.22241 8.22253C1.36251 8.08244 1.55189 8.00259 1.75 8H7.25C7.44811 8.00259 7.63749 8.08244 7.77759 8.22253C7.91768 8.36263 7.99741 8.55189 8 8.75V14.25Z" fill="white"/>
<path d="M9 11V12L12 14V9L9 11Z" fill="white"/>
</svg>
