<svg width="16" height="16" viewBox="0 0 16 16" fill="none" xmlns="http://www.w3.org/2000/svg">
<g clip-path="url(#clip0_392_657)">
<path fill-rule="evenodd" clip-rule="evenodd" d="M9.57007 0.879944L8.01001 1.47992V3.24994L9.56006 2.64996L9.57007 0.879944ZM7.22998 1.78992L5.65991 2.39996V4.16992L7.22998 3.55994V1.78992ZM3.30005 5.07996L4.86011 4.46991V2.70996L3.31006 3.30994L3.30005 5.07996ZM10.3 0.569946V2.33997L11.8601 1.72992L11.25 0.169922L10.3 0.569946ZM2.48999 3.56995L0.300049 4.38995L1 5.99994L2.56006 5.38995L2.48999 3.56995Z" fill="white"/>
<path opacity="0.5" d="M1 6V12H6V7.83002C6.00011 7.72987 6.02712 7.63159 6.07812 7.54541C6.12913 7.45923 6.2023 7.38831 6.29004 7.34003L8.75 6H1Z" fill="white"/>
<path d="M11.5 7.15015L14.8401 9.03015V9.5401H10.71V10.6601H14.8799V12.8001H10.74V13.9201H12.8701L11.53 14.6801L8.18994 12.8001V12.2901H12.3301V11.1701H8.18994V9.00012H12.3301V7.88013H10.1899L11.5 7.15015ZM11.5 5.8501L7 8.39014V13.4601L11.5 16.0001L16 13.4601V8.39014L11.5 5.8501Z" fill="white"/>
</g>
<defs>
<clipPath id="clip0_392_657">
<rect width="16" height="16" fill="white"/>
</clipPath>
</defs>
</svg>
