<svg width="16" height="16" viewBox="0 0 16 16" fill="none" xmlns="http://www.w3.org/2000/svg">
<g clip-path="url(#clip0_625_791)">
<path fill-rule="evenodd" clip-rule="evenodd" d="M9.56502 0.705933L8.0091 1.31312L7.98633 3.08156L9.54225 2.47437L9.56502 0.705933Z" fill="white"/>
<path fill-rule="evenodd" clip-rule="evenodd" d="M7.22788 1.6167L5.66437 2.23148L5.6416 3.99992L7.20512 3.38514L7.22788 1.6167Z" fill="white"/>
<path fill-rule="evenodd" clip-rule="evenodd" d="M3.30371 4.91066L4.85963 4.30347L4.8824 2.53503L3.32648 3.14222L3.30371 4.91066Z" fill="white"/>
<path fill-rule="evenodd" clip-rule="evenodd" d="M10.347 0.402263L10.3242 2.1707L11.8801 1.55592L11.273 0L10.347 0.402263Z" fill="white"/>
<path fill-rule="evenodd" clip-rule="evenodd" d="M2.54406 3.44592L0.350586 4.26563L0.965365 5.82914L2.52129 5.22195L2.54406 3.44592Z" fill="white"/>
<path d="M7 6H1V12H4.85L7 8.5V6Z" fill="white" fill-opacity="0.5"/>
<path d="M11.7269 5.84615V5.91391C11.7269 6.07468 11.7269 6.22702 11.7269 6.37087V9.35761L11.8454 9.55221L15.1031 15.0946C15.0842 15.1134 15.0618 15.1284 15.0371 15.1386C15.0124 15.1487 14.9859 15.1539 14.9592 15.1539H6.05773C6.03104 15.1539 6.00453 15.1487 5.97985 15.1386C5.95516 15.1284 5.93275 15.1134 5.91384 15.0946L9.17152 9.55221L9.28999 9.35761V6.37087C9.28999 6.22702 9.28999 6.07468 9.28999 5.91391V5.84615H11.7269ZM12.1839 5H8.79926C8.21541 5 8.43537 5.79548 8.43537 6.37087V9.12914L5.00003 14.9508C4.99891 15.0889 5.02528 15.2258 5.07761 15.3536C5.12994 15.4814 5.20719 15.5977 5.30484 15.6953C5.4025 15.793 5.51851 15.87 5.64632 15.9223C5.77413 15.9747 5.91116 16.0011 6.04926 16H14.9508C15.0889 16.0011 15.2258 15.9747 15.3537 15.9223C15.4815 15.87 15.5976 15.793 15.6952 15.6953C15.7929 15.5977 15.8701 15.4814 15.9225 15.3536C15.9748 15.2258 16.0012 15.0889 16 14.9508L12.5646 9.12914V6.37087C12.5646 5.79548 12.7847 5 12.2008 5H12.1839Z" fill="white"/>
<path opacity="0.5" d="M9.19272 11L7.5 14H13.5L11.8073 11H9.19272Z" fill="white"/>
</g>
<defs>
<clipPath id="clip0_625_791">
<rect width="16" height="16" fill="white"/>
</clipPath>
</defs>
</svg>
