<svg width="64" height="64" viewBox="0 0 64 64" fill="none" xmlns="http://www.w3.org/2000/svg">
<path d="M46.4854 28L30.9707 36.75V54.25L46.4854 63L62.0001 54.25V36.75L46.4854 28Z" fill="#333333"/>
<path d="M46.4854 32.4915L58.0051 38.9862V40.7167H43.751V44.6056H58.1215V51.9555H43.848V55.8443H51.198L46.5824 58.4501L35.0627 51.9555V50.2249H49.3362V46.336H35.0627V38.9862H49.3362V35.0973H41.9667L46.4854 32.4915ZM46.4854 28L30.9707 36.75V54.25L46.4854 63L62.0001 54.25V36.75L46.4854 28Z" fill="white"/>
<path d="M38.3 24.64C37.9975 24.6594 37.7048 24.7558 37.45 24.92L37.73 17.38C37.73 9.38 32.46 3 22.21 3C11.96 3 6.68994 9.4 6.68994 17.38L6.97998 24.92C6.72107 24.7566 6.42561 24.6603 6.12012 24.64C4.41012 24.64 2.98999 25.21 2.98999 27.34C2.98999 32.18 5.69994 34.18 7.68994 35.17L8.26001 35.31L10.1101 41.01C10.1101 41.01 15.9501 49.12 21.1101 49.12H23.1101C25.2101 49.12 27.4401 47.75 29.3301 46.12V36.92C29.3287 36.5676 29.4203 36.2211 29.5959 35.9155C29.7716 35.61 30.0249 35.3562 30.3301 35.18L41.2 29.02C41.2826 28.4605 41.3228 27.8956 41.3201 27.33C41.3001 25.26 39.88 24.64 38.3 24.64Z" fill="url(#paint0_linear_13797_14663)"/>
<path d="M38.3 24.64C37.9975 24.6594 37.7048 24.7558 37.45 24.92L37.73 17.38C37.73 9.38 32.46 3 22.21 3C11.96 3 6.68994 9.4 6.68994 17.38L6.97998 24.92C6.72107 24.7566 6.42561 24.6603 6.12012 24.64C4.41012 24.64 2.98999 25.21 2.98999 27.34C2.98999 32.18 5.69994 34.18 7.68994 35.17L8.26001 35.31L10.1101 41.01C10.1101 41.01 15.9501 49.12 21.1101 49.12H23.1101C25.2101 49.12 27.4401 47.75 29.3301 46.12V36.92C29.3287 36.5676 29.4203 36.2211 29.5959 35.9155C29.7716 35.61 30.0249 35.3562 30.3301 35.18L41.2 29.02C41.2826 28.4605 41.3228 27.8956 41.3201 27.33C41.3001 25.26 39.88 24.64 38.3 24.64ZM20.5 35.74C20.7001 36.0161 20.9556 36.2476 21.25 36.4197C21.5444 36.5919 21.8712 36.7009 22.21 36.74C22.5553 36.7269 22.8921 36.6287 23.1904 36.4543C23.4887 36.2798 23.7394 36.0345 23.9202 35.74C24.0143 35.5703 24.172 35.4449 24.3586 35.3914C24.5452 35.338 24.7453 35.3609 24.915 35.455C25.0848 35.5492 25.2102 35.7069 25.2637 35.8935C25.3171 36.0801 25.2941 36.2803 25.2 36.45C24.904 36.982 24.4679 37.4228 23.939 37.7242C23.41 38.0257 22.8085 38.1765 22.2 38.16C21.5965 38.1502 21.0053 37.9883 20.481 37.6894C19.9566 37.3905 19.5159 36.9642 19.2 36.45C19.1068 36.2787 19.0851 36.0776 19.1394 35.8904C19.1937 35.7031 19.3197 35.5449 19.49 35.45C19.5753 35.3993 19.6701 35.3666 19.7686 35.3538C19.867 35.3409 19.967 35.3483 20.0625 35.3755C20.158 35.4026 20.2468 35.4489 20.3237 35.5116C20.4007 35.5743 20.4641 35.652 20.51 35.74H20.5ZM9.83008 25.06C9.68008 25.06 9.68004 24.92 9.54004 24.78C9.50922 24.7148 9.49242 24.6439 9.49048 24.5718C9.48854 24.4997 9.50153 24.428 9.52881 24.3612C9.55608 24.2944 9.59682 24.234 9.64868 24.1839C9.70054 24.1338 9.76241 24.095 9.83008 24.07C11.1037 23.5715 12.4626 23.327 13.8301 23.35C14.9291 23.3646 16.0256 23.4615 17.1101 23.64C17.1101 23.64 18.11 23.78 17.96 24.64C17.96 24.92 17.25 25.06 16.96 25.06C14.96 24.92 15.2599 24.92 13.6899 24.78C12.5424 24.7119 11.3912 24.8061 10.27 25.06H9.83008ZM15.6602 30.76C15.4333 30.7684 15.2071 30.7299 14.9958 30.647C14.7846 30.564 14.5926 30.4384 14.4321 30.2779C14.2716 30.1174 14.1459 29.9255 14.063 29.7142C13.98 29.503 13.9415 29.2768 13.95 29.05C13.9616 28.6977 14.0613 28.3539 14.24 28.05C13.3964 28.2195 12.5815 28.5092 11.8201 28.91C11.7632 28.9636 11.6952 29.004 11.6208 29.0282C11.5465 29.0524 11.4677 29.0598 11.3901 29.05C11.2804 29.0479 11.1725 29.0217 11.074 28.9733C10.9755 28.9249 10.8888 28.8555 10.8201 28.77C10.6801 28.48 10.68 28.05 10.96 27.91C12.2217 27.1956 13.6405 26.804 15.0901 26.77C16.3618 26.7159 17.6286 26.959 18.79 27.48C19.36 27.63 19.51 28.05 19.22 28.34C19.1362 28.4817 19.004 28.588 18.8477 28.6395C18.6914 28.691 18.5217 28.6841 18.3701 28.62C17.9738 28.4005 17.5394 28.258 17.0901 28.2C17.2464 28.4586 17.3422 28.7491 17.3701 29.05C17.3799 29.2763 17.3428 29.5023 17.261 29.7135C17.1792 29.9248 17.0543 30.1167 16.8945 30.2774C16.7348 30.4381 16.5438 30.5639 16.333 30.647C16.1222 30.73 15.8965 30.7685 15.6702 30.76H15.6602ZM26.6602 41.86C25.3053 42.7406 23.7155 43.1904 22.1001 43.15C20.4897 43.1524 18.9105 42.7056 17.54 41.86C17.4205 41.7574 17.341 41.616 17.3154 41.4605C17.2898 41.3051 17.3198 41.1455 17.4001 41.01C17.6901 40.72 17.97 40.87 18.26 40.87C20.7714 41.01 23.2887 41.01 25.8 40.87C26.09 40.87 26.5102 40.72 26.6602 41.01C27.0602 41.15 26.9201 41.58 26.6401 41.86H26.6602ZM33.49 28.77C33.4212 28.8555 33.3346 28.9249 33.2361 28.9733C33.1376 29.0217 33.0299 29.0479 32.9202 29.05C32.8426 29.0591 32.7639 29.0513 32.6897 29.0272C32.6155 29.003 32.5473 28.9631 32.49 28.91C31.7294 28.5072 30.9143 28.2175 30.0701 28.05C30.2533 28.3519 30.3534 28.6969 30.3601 29.05C30.3601 29.5035 30.1798 29.9385 29.8591 30.2592C29.5384 30.5798 29.1037 30.76 28.6501 30.76C28.1966 30.76 27.7616 30.5798 27.4409 30.2592C27.1202 29.9385 26.9399 29.5035 26.9399 29.05C26.9681 28.7477 27.0675 28.4564 27.23 28.2C26.7772 28.257 26.3394 28.3995 25.9399 28.62C25.7884 28.6841 25.6187 28.691 25.4624 28.6395C25.3061 28.588 25.1739 28.4817 25.0901 28.34C25.0426 28.2674 25.0119 28.185 25.0005 28.099C24.989 28.013 24.9971 27.9254 25.0239 27.8429C25.0508 27.7604 25.0958 27.6849 25.1558 27.6221C25.2157 27.5593 25.2889 27.5107 25.3701 27.48C26.5426 26.9835 27.8071 26.7416 29.0801 26.77C30.5314 26.7693 31.9554 27.1634 33.2 27.91C33.2803 27.9418 33.3525 27.9911 33.4114 28.0543C33.4702 28.1176 33.5142 28.1932 33.54 28.2756C33.5659 28.3581 33.5732 28.4452 33.561 28.5308C33.5489 28.6163 33.5177 28.698 33.47 28.77H33.49ZM34.77 24.77C34.77 24.91 34.63 24.91 34.49 25.05H34.0601C32.9389 24.7961 31.7876 24.7019 30.6401 24.77C29.0801 24.91 29.3601 24.91 27.3701 25.05C27.0801 25.05 26.3701 24.91 26.3701 24.63C26.2301 23.77 27.23 23.63 27.23 23.63C27.23 23.63 28.65 23.49 30.5 23.34C31.8657 23.3385 33.2206 23.5823 34.5 24.06C34.5655 24.0888 34.6243 24.1308 34.6729 24.1833C34.7214 24.2359 34.7585 24.2979 34.782 24.3655C34.8054 24.4331 34.8148 24.5048 34.8093 24.5761C34.8038 24.6474 34.7836 24.7169 34.75 24.78L34.77 24.77Z" fill="url(#paint1_radial_13797_14663)"/>
<defs>
<linearGradient id="paint0_linear_13797_14663" x1="2.99999" y1="26.06" x2="41.3001" y2="26.06" gradientUnits="userSpaceOnUse">
<stop stop-color="#4D4D4D"/>
<stop offset="1" stop-color="#333333"/>
</linearGradient>
<radialGradient id="paint1_radial_13797_14663" cx="0" cy="0" r="1" gradientUnits="userSpaceOnUse" gradientTransform="translate(22.15 27.816) scale(17.66 24.1942)">
<stop stop-color="#F2F2F2"/>
<stop offset="0.44" stop-color="#E1E1E1"/>
<stop offset="1" stop-color="#C4C4C4"/>
</radialGradient>
</defs>
</svg>
