<svg width="64" height="64" viewBox="0 0 64 64" fill="none" xmlns="http://www.w3.org/2000/svg">
<path d="M46.4854 28L30.9707 36.75V54.25L46.4854 63L62.0001 54.25V36.75L46.4854 28Z" fill="#333333"/>
<path d="M46.4854 32.4915L58.0051 38.9862V40.7167H43.751V44.6056H58.1215V51.9555H43.848V55.8443H51.198L46.5824 58.4501L35.0627 51.9555V50.2249H49.3362V46.336H35.0627V38.9862H49.3362V35.0973H41.9667L46.4854 32.4915ZM46.4854 28L30.9707 36.75V54.25L46.4854 63L62.0001 54.25V36.75L46.4854 28Z" fill="white"/>
<path d="M40.0001 24.46C39.3404 23.8061 38.467 23.4119 37.5402 23.35L37.7101 17.96C37.8274 14.0463 36.3891 10.2455 33.7101 7.39003C32.1547 5.91049 30.3187 4.75776 28.3102 4.00001C26.3094 3.24585 24.1763 2.90565 22.0402 3.00001C11.2002 3.00001 6.34021 10.47 6.34021 17.94L6.54016 23.31C5.80101 23.3282 5.08518 23.573 4.48962 24.0111C3.89407 24.4493 3.44744 25.0598 3.21008 25.76C3.05267 26.2298 2.9882 26.7256 3.02014 27.22C2.9382 28.9947 3.37987 30.7544 4.29016 32.28C5.19204 33.7942 6.53044 35.0002 8.13 35.74L9.67004 40.37L9.86023 40.74C10.3602 41.6 15.7302 48.98 21.0302 48.98H22.9C25.03 48.98 27.1701 47.78 29.0101 46.29V37.1C29.0101 36.7627 29.0953 36.431 29.2579 36.1355C29.4205 35.84 29.6551 35.5904 29.9401 35.41L40.9401 28.41C40.9652 28.0371 40.9652 27.6629 40.9401 27.29C40.9674 26.7738 40.8927 26.2573 40.7201 25.77C40.5697 25.2898 40.3249 24.8444 40.0001 24.46Z" fill="#222222"/>
<path d="M40.0001 24.46C39.3404 23.8061 38.467 23.4119 37.5402 23.35L37.7101 17.96C37.8274 14.0463 36.3891 10.2455 33.7101 7.39003C32.1547 5.91049 30.3187 4.75776 28.3102 4.00001C26.3094 3.24585 24.1763 2.90565 22.0402 3.00001C11.2002 3.00001 6.34021 10.47 6.34021 17.94L6.54016 23.31H6.43005C5.97998 23.3308 5.53829 23.4395 5.13 23.63C4.68145 23.8365 4.27995 24.1326 3.95007 24.5C3.61894 24.8643 3.36697 25.2934 3.21008 25.76C3.05267 26.2298 2.9882 26.7256 3.02014 27.22C2.9382 28.9947 3.37987 30.7544 4.29016 32.28C5.19204 33.7942 6.53044 35.0002 8.13 35.74L9.67004 40.37L9.86023 40.74C10.3602 41.6 15.7302 48.98 21.0302 48.98H22.9C25.03 48.98 27.1701 47.78 29.0101 46.3V43.64C28.9743 43.6708 28.9408 43.7042 28.91 43.74C26.91 45.64 24.71 46.98 22.91 46.98H21.0001C19.1801 46.98 17.0001 45.63 15.0001 43.73C14.1468 42.9172 13.3485 42.0486 12.6102 41.13C12.3002 40.75 12.0502 40.42 11.8702 40.13L11.65 39.82L11.5902 39.72L11.5001 39.56L9.75012 34.26L9.00012 34C7.75478 33.4265 6.70984 32.4931 6.00012 31.32C5.28632 30.1374 4.93839 28.77 5.00012 27.39V27.16C4.98149 26.9303 5.00876 26.6991 5.0802 26.48C5.15776 26.2678 5.27278 26.0714 5.42004 25.9C5.56822 25.7421 5.74459 25.6132 5.94006 25.52C6.13549 25.4316 6.34593 25.3807 6.56018 25.37H8.56018L8.29016 18.01C8.23482 14.7476 9.39711 11.5817 11.5502 9.13002C13.7002 6.79002 17.0601 5.13002 21.9901 5.13002H22.0802C23.9455 5.04074 25.8096 5.32985 27.5602 5.97999C29.2986 6.6375 30.8893 7.63338 32.2401 8.90999C34.5335 11.3742 35.7592 14.6455 35.65 18.01L35.4301 25.33L37.3602 25.46C37.7866 25.49 38.1893 25.6667 38.5001 25.96C38.653 26.1311 38.7689 26.332 38.8402 26.55C38.9261 26.7903 38.9633 27.0452 38.9501 27.3V27.52C38.9867 28.3604 38.8717 29.2005 38.6102 30L40.92 28.53C40.9451 28.1571 40.9451 27.7829 40.92 27.41C40.9474 26.8938 40.8727 26.3773 40.7001 25.89C40.5709 25.3691 40.3323 24.8816 40.0001 24.46Z" fill="white"/>
<path opacity="0.5" d="M30 17.43C32.6879 18.8751 34.9997 20.9301 36.75 23.43L37 22C35.2618 19.1813 32.6994 16.9646 29.6599 15.65C28.8328 11.4782 27.1732 7.51588 24.78 4L23.6299 5C25.6583 8.04592 27.1185 11.4339 27.9399 15C26.2555 14.4608 24.5069 14.148 22.74 14.07V4.48999H21.26V14.07C19.4931 14.148 17.7445 14.4608 16.0601 15C16.8815 11.4339 18.3417 8.04592 20.3701 5L19.22 4C16.8268 7.51588 15.1672 11.4782 14.3401 15.65C10.9701 17.14 9.33999 18.93 7.23999 22V23.43C8.96905 20.9112 11.2859 18.8518 13.99 17.43C13.5184 20.0138 13.2709 22.6336 13.25 25.26H4.5V26.77C6.58 29.84 10.9701 34.86 14.3401 36.35C15.1306 40.5329 16.7932 44.5024 19.22 48L20.3701 47C18.3164 43.9679 16.854 40.5751 16.0601 37C17.7396 37.5585 19.491 37.8717 21.26 37.93V47.51H22.74V37.93C24.509 37.8717 26.2604 37.5585 27.9399 37C27.1396 40.573 25.6777 43.9647 23.6299 47L24.78 48C26.6664 45.2818 28.0921 42.2716 29 39.09V37.09C29 36.7528 29.0852 36.421 29.2478 36.1255C29.4104 35.83 29.645 35.5805 29.9299 35.4L34.9299 32.21C36.5834 30.5176 38.0983 28.695 39.46 26.76V25.25H30.71C30.6984 22.6278 30.4609 20.0114 30 17.43ZM6 26.77H13.1899C13.2108 29.3965 13.4584 32.0161 13.9299 34.6C11.5499 33.31 8.00006 29.37 6.06006 26.77H6ZM21.3201 36.5C19.3886 36.4423 17.4796 36.0673 15.6699 35.39V35.33C15.1193 32.4886 14.8215 29.604 14.78 26.71H21.3201V36.5ZM21.3201 25.2H14.78C14.8212 22.3259 15.119 19.4612 15.6699 16.64V16.58C17.4793 15.8929 19.3866 15.4979 21.3201 15.41V25.2ZM28.45 35.3C26.653 36.0414 24.7418 36.4677 22.8 36.56V26.71H29.3301C29.3169 29.5923 29.0424 32.4673 28.51 35.3H28.45ZM22.8 25.17V15.38C24.7421 15.4924 26.6516 15.9284 28.45 16.67V16.58C29.0025 19.4108 29.2972 22.2859 29.3301 25.17H22.8ZM37.8899 26.77C35.9799 29.35 32.4801 33.27 30.1001 34.6C30.5411 32.0125 30.7784 29.3946 30.8101 26.77H37.8899Z" fill="white"/>
</svg>
