<svg width="64" height="64" viewBox="0 0 64 64" fill="none" xmlns="http://www.w3.org/2000/svg">
<g clip-path="url(#clip0_622_702)">
<path d="M46.731 27.5645L46.4854 27.426L46.2398 27.5645L30.7251 36.3145L30.4707 36.458V36.75V54.25V54.542L30.7251 54.6855L46.2398 63.4355L46.4854 63.574L46.731 63.4355L62.2458 54.6855L62.5001 54.542V54.25V36.75V36.458L62.2458 36.3145L46.731 27.5645Z" fill="#333333" stroke="#333333"/>
<path d="M46.4854 32.4915L58.0051 38.9862V40.7167H43.751V44.6056H58.1215V51.9555H43.848V55.8443H51.198L46.5824 58.4501L35.0627 51.9555V50.2249H49.3362V46.336H35.0627V38.9862H49.3362V35.0973H41.9667L46.4854 32.4915ZM46.4854 28L30.9707 36.75V54.25L46.4854 63L62.0001 54.25V36.75L46.4854 28Z" fill="white"/>
<path d="M16.8999 38.3143V38.4791C16.8999 38.8699 16.8999 39.2403 16.8999 39.59V46.8513L17.1799 47.3244L24.8798 60.7987C24.8351 60.8445 24.7821 60.881 24.7238 60.9057C24.6655 60.9304 24.6028 60.943 24.5397 60.9428H3.50007C3.43697 60.943 3.37433 60.9304 3.31599 60.9057C3.25765 60.881 3.20467 60.8445 3.15998 60.7987L10.8599 47.3244L11.1399 46.8513V39.59C11.1399 39.2403 11.1399 38.8699 11.1399 38.4791V38.3143H16.8999ZM17.98 36.2572H9.98001C8.60001 36.2572 9.1199 38.1912 9.1199 39.59V46.2958L1.00008 60.4491C0.997417 60.7849 1.05974 61.1178 1.18343 61.4285C1.30712 61.7392 1.48972 62.0218 1.72054 62.2592C1.95136 62.4966 2.22557 62.6839 2.52766 62.8111C2.82975 62.9384 3.15363 63.0027 3.48005 63H24.52C24.8464 63.0027 25.17 62.9384 25.4721 62.8111C25.7742 62.6839 26.0486 62.4966 26.2795 62.2592C26.5103 62.0218 26.6929 61.7392 26.8166 61.4285C26.9403 61.1178 27.0026 60.7849 26.9999 60.4491L18.8799 46.2958V39.59C18.8799 38.1912 19.4 36.2572 18.02 36.2572H17.98Z" fill="white"/>
<path opacity="0.5" d="M11.9999 49L6.48132 58.9886H21.4652L15.9999 49H11.9999Z" fill="white"/>
<path d="M3.3899 45H7V36C7 34.8954 7.89543 34 9 34H19C20.1046 34 21 34.8954 21 36V45H29C29 42.664 29 38.6046 29 36.6358C29 35.93 29.372 35.2791 29.9789 34.9188L45 26V24.3968C45 23.6111 44.3919 23 43.6101 23H3.3899C2.60808 23 2 23.6111 2 24.3968V43.5159C2 44.3016 2.60808 45 3.3899 45Z" fill="#7F7F7F"/>
<path d="M44.5658 19.4366H2.45117V25.2426H44.5658V19.4366Z" fill="#7F7F7F"/>
<path d="M44.1332 19.8699V24.8093H2.88511V19.8699H44.1332V19.8699ZM44.9998 19.0034H2.01855V25.6758H44.9998V19.0034Z" fill="white"/>
<path d="M11.1185 25.2426H5.65918L9.21206 19.35H14.6714L11.1185 25.2426Z" fill="white"/>
<path d="M20.9102 25.2426H15.4509L19.0038 19.35H24.4631L20.9102 25.2426Z" fill="white"/>
<path d="M30.7032 25.2426H25.1572L28.7101 19.35H34.2561L30.7032 25.2426Z" fill="white"/>
<path d="M40.7542 25.2426H35.2083L38.7611 19.35H44.3071L40.7542 25.2426Z" fill="white"/>
<path d="M21 42H29V36.6433C29 35.9349 29.3747 35.2793 29.9852 34.9199L38.0004 30.2V29.9597C38.0004 29.4362 37.5741 29 37.0625 29H9.9477C9.4361 29 9.00977 29.4362 9.00977 29.9597L9.00977 34H19C20.1046 34 21 34.8954 21 36V42Z" fill="url(#paint0_linear_622_702)"/>
<path d="M41.3023 1.54402L0.708008 12.7549L2.25355 18.3513L42.8479 7.14036L41.3023 1.54402Z" fill="#7F7F7F"/>
<path d="M41.015 2.10553L42.3148 6.87159L2.5399 17.7902L1.24006 13.0241L41.015 2.10553ZM41.6216 0.979004L0.200195 12.4176L2.01996 18.8301L43.3547 7.47818L41.6216 0.979004Z" fill="white"/>
<path d="M9.12558 10.4245L3.75293 11.8976L8.77896 16.6637L14.065 15.1906L9.12558 10.4245Z" fill="white"/>
<path d="M18.4842 7.82483L13.1982 9.29798L18.2243 13.9774L23.5103 12.5909L18.4842 7.82483Z" fill="white"/>
<path d="M27.9296 5.2251L22.6436 6.69824L27.5829 11.3776L32.9556 9.99116L27.9296 5.2251Z" fill="white"/>
<path d="M37.6346 2.53876L32.3486 4.0119L37.288 8.77796L42.574 7.30482L37.6346 2.53876Z" fill="white"/>
</g>
<defs>
<linearGradient id="paint0_linear_622_702" x1="23.5294" y1="28.9006" x2="23.4778" y2="42.057" gradientUnits="userSpaceOnUse">
<stop stop-color="white"/>
<stop offset="1" stop-color="#C2C2C2"/>
</linearGradient>
<clipPath id="clip0_622_702">
<rect width="64" height="64" fill="white"/>
</clipPath>
</defs>
</svg>
