<svg width="64" height="64" viewBox="0 0 64 64" fill="none" xmlns="http://www.w3.org/2000/svg">
<path d="M36 2V23.67L42.78 18.47C43.0757 18.2423 43.4292 18.102 43.8005 18.0648C44.1718 18.0275 44.5461 18.0949 44.8811 18.2593C45.2161 18.4237 45.4983 18.6785 45.696 18.9949C45.8938 19.3114 45.9991 19.6768 46 20.05V34.05H61V12L52 2H36Z" fill="url(#paint0_linear_13797_14658)"/>
<path d="M52 2V12H61L52 2Z" fill="url(#paint1_linear_13797_14658)"/>
<path d="M26.5 46.2H4.7C3.1 46.2 2 45.2 2 43.6V22.6C2 21 3.1 20 4.7 20H26.5C28.1 20 29.2 21 29.2 22.6V43.6C29.2 45.1 28.1 46.2 26.5 46.2Z" fill="white"/>
<path d="M30.9004 31.0877V33.7486C30.9004 34.2603 31.1051 34.6697 31.4121 34.8744L42.0557 43.2664C42.8744 43.8805 44.0002 43.2664 44.0002 42.1407V22.6956C44.0002 21.5699 42.8744 20.8535 42.0557 21.5699L31.5144 29.9619C31.1051 30.1666 30.9004 30.576 30.9004 31.0877Z" fill="white"/>
<path d="M26.5 47.1H4.7C3.1 47.1 2 46.1 2 44.5V23.5C2 21.9 3.1 20.9 4.7 20.9H26.5C28.1 20.9 29.2 21.9 29.2 23.5V44.5C29.2 46 28.1 47.1 26.5 47.1Z" fill="url(#paint2_linear_13797_14658)"/>
<path d="M30.9004 32.3157V34.9766C30.9004 35.4883 31.1051 35.8977 31.4121 36.1024L42.0557 44.4944C42.8744 45.1085 44.0002 44.4944 44.0002 43.3687V23.9237C44.0002 22.7979 42.8744 22.0815 42.0557 22.7979L31.5144 31.0876C31.1051 31.3946 30.9004 31.804 30.9004 32.3157Z" fill="url(#paint3_linear_13797_14658)"/>
<path d="M44.0004 22.7H43.4004V42.2H44.0004V22.7Z" fill="url(#paint4_linear_13797_14658)"/>
<path d="M29.1996 41.6H28.5996V21.3L29.1996 22.2V41.6Z" fill="url(#paint5_linear_13797_14658)"/>
<path d="M49.6558 54.9438L23.9507 54.9438C23.5886 54.9438 23.4076 54.7628 23.4076 54.4008L23.4076 50.5993C23.4076 50.2373 23.5886 50.0562 23.9507 50.0562L49.6558 50.0562C50.0178 50.0562 50.1989 49.8752 50.1989 49.5132L50.1989 41.5482C50.1989 41.0051 50.7419 40.8241 51.104 41.1862L63.4135 52.0475C63.685 52.319 63.6782 52.5068 63.4135 52.7716L51.104 63.6329C50.7419 63.9949 50.1989 63.6329 50.1989 63.2709L50.1989 55.3059C50.1084 55.2154 49.9273 55.0344 49.6558 54.9438Z" fill="url(#paint6_linear_13797_14658)"/>
<defs>
<linearGradient id="paint0_linear_13797_14658" x1="56.3" y1="4.48" x2="40.95" y2="31.08" gradientUnits="userSpaceOnUse">
<stop stop-color="white"/>
<stop offset="1" stop-color="#787878"/>
</linearGradient>
<linearGradient id="paint1_linear_13797_14658" x1="53.05" y1="10.36" x2="57.23" y2="6.29" gradientUnits="userSpaceOnUse">
<stop stop-color="#737373"/>
<stop offset="1" stop-color="white"/>
</linearGradient>
<linearGradient id="paint2_linear_13797_14658" x1="15.6762" y1="20.3635" x2="15.5231" y2="47.7679" gradientUnits="userSpaceOnUse">
<stop offset="0.328125" stop-color="#D9D9D9"/>
<stop offset="1" stop-color="#868686"/>
</linearGradient>
<linearGradient id="paint3_linear_13797_14658" x1="47.799" y1="33.6094" x2="16.0925" y2="33.701" gradientUnits="userSpaceOnUse">
<stop offset="0.3583" stop-color="#D9D9D9"/>
<stop offset="1" stop-color="#666666"/>
</linearGradient>
<linearGradient id="paint4_linear_13797_14658" x1="43.6844" y1="22.6789" x2="43.7165" y2="42.2915" gradientUnits="userSpaceOnUse">
<stop stop-color="white"/>
<stop offset="1" stop-color="white" stop-opacity="0"/>
</linearGradient>
<linearGradient id="paint5_linear_13797_14658" x1="28.8821" y1="21.2008" x2="28.9156" y2="41.649" gradientUnits="userSpaceOnUse">
<stop stop-color="white"/>
<stop offset="1" stop-color="white" stop-opacity="0"/>
</linearGradient>
<linearGradient id="paint6_linear_13797_14658" x1="23.2409" y1="52.8858" x2="61.8041" y2="52.8858" gradientUnits="userSpaceOnUse">
<stop stop-color="white" stop-opacity="0"/>
<stop offset="1" stop-color="white"/>
</linearGradient>
</defs>
</svg>
