<svg width="64" height="64" viewBox="0 0 64 64" fill="none" xmlns="http://www.w3.org/2000/svg">
<g clip-path="url(#clip0_622_755)">
<path d="M46.731 27.5645L46.4854 27.426L46.2398 27.5645L30.7251 36.3145L30.4707 36.458V36.75V54.25V54.542L30.7251 54.6855L46.2398 63.4355L46.4854 63.574L46.731 63.4355L62.2458 54.6855L62.5001 54.542V54.25V36.75V36.458L62.2458 36.3145L46.731 27.5645Z" fill="#333333" stroke="#333333"/>
<path d="M46.4854 32.4915L58.0051 38.9862V40.7167H43.751V44.6056H58.1215V51.9555H43.848V55.8443H51.198L46.5824 58.4501L35.0627 51.9555V50.2249H49.3362V46.336H35.0627V38.9862H49.3362V35.0973H41.9667L46.4854 32.4915ZM46.4854 28L30.9707 36.75V54.25L46.4854 63L62.0001 54.25V36.75L46.4854 28Z" fill="white"/>
<path fill-rule="evenodd" clip-rule="evenodd" d="M28.0854 16.903C26.9537 13.1307 27.7082 8.98118 30.3488 5.96333C33.3667 2.94549 37.5162 2.19104 41.2885 3.69996L34.8756 10.1129C33.3667 11.6218 33.3667 14.6396 34.8756 16.1486C36.3845 17.6575 39.4023 17.6575 40.9113 16.1486L47.3242 9.73564C48.8331 13.5079 47.7014 17.6575 45.0608 20.6753C42.043 23.6932 37.8934 24.4476 34.4983 23.3159L28.0854 16.903Z" fill="white"/>
<path d="M31.4809 25.5804L15.26 41.8013C15.26 43.3102 14.8827 45.1963 13.3738 46.328C11.1104 48.5914 6.96092 48.5914 4.69754 46.328C2.43415 44.0646 2.43415 39.9151 4.69754 37.6517C6.20646 36.1428 7.71538 35.7656 9.60153 35.7656L25.8224 19.5447L31.4809 25.5804ZM11.1104 39.9151C9.97876 38.7834 8.09261 38.7834 6.96092 39.9151C5.82923 41.0468 5.82923 42.9329 6.96092 44.0646C8.09261 45.1963 9.97876 45.1963 11.1104 44.0646C12.2421 42.9329 12.2421 41.0468 11.1104 39.9151Z" fill="url(#paint0_linear_622_755)"/>
</g>
<defs>
<linearGradient id="paint0_linear_622_755" x1="12.3413" y1="29.8338" x2="21.1357" y2="38.5952" gradientUnits="userSpaceOnUse">
<stop stop-color="#B3B3B3"/>
<stop offset="0.71875" stop-color="#4D4D4D"/>
<stop offset="1" stop-color="#6D6D6D"/>
</linearGradient>
<clipPath id="clip0_622_755">
<rect width="64" height="64" fill="white"/>
</clipPath>
</defs>
</svg>
