<svg width="64" height="64" viewBox="0 0 64 64" fill="none" xmlns="http://www.w3.org/2000/svg">
<path d="M46.4854 28L30.9707 36.75V54.25L46.4854 63L62.0001 54.25V36.75L46.4854 28Z" fill="#333333"/>
<path d="M46.4854 32.4915L58.0051 38.9862V40.7167H43.751V44.6056H58.1215V51.9555H43.848V55.8443H51.198L46.5824 58.4501L35.0627 51.9555V50.2249H49.3362V46.336H35.0627V38.9862H49.3362V35.0973H41.9667L46.4854 32.4915ZM46.4854 28L30.9707 36.75V54.25L46.4854 63L62.0001 54.25V36.75L46.4854 28Z" fill="white"/>
<path d="M2 4V45H29V42.71H14.9199C14.8177 42.7033 14.7213 42.6603 14.6479 42.5888C14.5746 42.5173 14.5293 42.422 14.52 42.32V26.66C14.5087 26.541 14.544 26.4223 14.6187 26.329C14.6933 26.2357 14.8014 26.175 14.9199 26.16H38.5801C38.6821 26.1693 38.7774 26.2147 38.8489 26.288C38.9204 26.3614 38.9632 26.4578 38.97 26.56V29.8L43.25 27.36H42.75C42.6462 27.353 42.5484 27.3086 42.4749 27.235C42.4013 27.1615 42.3571 27.0638 42.3501 26.96V22.29C42.3455 22.2363 42.3526 22.1823 42.3711 22.1317C42.3896 22.0811 42.4189 22.0352 42.457 21.9971C42.4951 21.959 42.5412 21.9296 42.5918 21.9111C42.6424 21.8926 42.6963 21.8855 42.75 21.89H47.4199C47.5237 21.897 47.6215 21.9414 47.6951 22.015C47.7686 22.0885 47.813 22.1862 47.8201 22.29V26.29L47.51 26.1L51 28.25V4H2Z" fill="url(#paint0_linear_13797_14660)"/>
<path d="M38.58 26.1599H14.9198C14.8012 26.175 14.6932 26.2356 14.6185 26.3289C14.5439 26.4222 14.5086 26.5409 14.5199 26.6599V42.3699C14.5292 42.4719 14.5745 42.5672 14.6478 42.6387C14.7212 42.7102 14.8176 42.7532 14.9198 42.7599H28.9999V36.6599C28.9985 36.3075 29.0901 35.961 29.2658 35.6555C29.4414 35.3499 29.6947 35.0961 29.9999 34.9199L38.9999 29.7999V26.5599C38.9924 26.4529 38.9453 26.3525 38.8676 26.2784C38.7898 26.2044 38.6873 26.1621 38.58 26.1599Z" fill="url(#paint1_linear_13797_14660)"/>
<path fill-rule="evenodd" clip-rule="evenodd" d="M14.8201 6.38992H38.3799C38.481 6.39692 38.5763 6.44025 38.6479 6.51193C38.7196 6.58361 38.763 6.67881 38.77 6.77994V22.4899C38.763 22.591 38.7196 22.6862 38.6479 22.7579C38.5763 22.8296 38.481 22.8729 38.3799 22.8799H14.72C14.6171 22.8753 14.5195 22.833 14.4458 22.7611C14.3721 22.6892 14.3273 22.5926 14.3201 22.4899V6.77994C14.3351 6.6621 14.3961 6.55496 14.4897 6.4819C14.5834 6.40884 14.7021 6.37577 14.8201 6.38992Z" fill="url(#paint2_linear_13797_14660)"/>
<path d="M47.4198 21.89H42.7499C42.6962 21.8854 42.6423 21.8926 42.5917 21.9111C42.5411 21.9296 42.495 21.959 42.4569 21.9971C42.4188 22.0352 42.3895 22.0811 42.371 22.1317C42.3525 22.1823 42.3454 22.2363 42.35 22.29V27C42.357 27.1038 42.4012 27.2015 42.4747 27.275C42.5483 27.3486 42.6461 27.393 42.7499 27.4H43.2499L45.4698 26.13C45.7739 25.9545 46.1188 25.862 46.4698 25.862C46.8209 25.862 47.1658 25.9545 47.4698 26.13L47.7799 26.32V22.32C47.7813 22.2171 47.7456 22.1171 47.6796 22.0382C47.6135 21.9593 47.5213 21.9067 47.4198 21.89Z" fill="#333333"/>
<path fill-rule="evenodd" clip-rule="evenodd" d="M5.87986 37.3H10.55C10.6512 37.307 10.7462 37.3503 10.8179 37.422C10.8895 37.4937 10.9329 37.5889 10.9399 37.69V42.37C10.9329 42.4711 10.8895 42.5663 10.8179 42.638C10.7462 42.7097 10.6512 42.753 10.55 42.76H5.87986C5.77767 42.7533 5.68146 42.7103 5.60814 42.6388C5.53481 42.5673 5.48927 42.472 5.47996 42.37V37.69C5.47515 37.6367 5.48241 37.583 5.50096 37.5328C5.51951 37.4827 5.54883 37.4372 5.58714 37.3999C5.62545 37.3625 5.67175 37.3342 5.72239 37.3169C5.77304 37.2996 5.82671 37.2938 5.87986 37.3Z" fill="#333333"/>
<path fill-rule="evenodd" clip-rule="evenodd" d="M5.87998 29.5399H10.5501C10.6529 29.5472 10.7492 29.5919 10.8211 29.6657C10.893 29.7394 10.9354 29.837 10.94 29.9399V34.6099C10.9354 34.7128 10.893 34.8104 10.8211 34.8841C10.7492 34.9579 10.6529 35.0027 10.5501 35.0099H5.87998C5.77621 35.0029 5.67863 34.9585 5.60508 34.8849C5.53153 34.8114 5.4871 34.7137 5.48008 34.6099V29.9399C5.47552 29.8862 5.48283 29.8322 5.50132 29.7816C5.51981 29.731 5.54916 29.685 5.58726 29.647C5.62535 29.6089 5.67118 29.5796 5.72178 29.5611C5.77238 29.5426 5.8263 29.5353 5.87998 29.5399Z" fill="#333333"/>
<path fill-rule="evenodd" clip-rule="evenodd" d="M5.87988 21.89H10.55C10.6528 21.8973 10.7491 21.942 10.821 22.0157C10.8929 22.0895 10.9353 22.1871 10.9399 22.29V27C10.9353 27.1029 10.8929 27.2005 10.821 27.2742C10.7491 27.348 10.6528 27.3928 10.55 27.4H5.87988C5.77611 27.393 5.67853 27.3486 5.60498 27.275C5.53143 27.2015 5.487 27.1038 5.47998 27V22.33C5.47998 22 5.57988 21.89 5.87988 21.89Z" fill="#333333"/>
<path fill-rule="evenodd" clip-rule="evenodd" d="M5.87998 14.14H10.5501C10.6529 14.1473 10.7492 14.192 10.8211 14.2657C10.893 14.3395 10.9354 14.4371 10.94 14.54V19.21C10.9352 19.3119 10.8925 19.4083 10.8204 19.4804C10.7483 19.5525 10.652 19.5951 10.5501 19.6H5.87998C5.77709 19.5953 5.67956 19.553 5.60581 19.4811C5.53206 19.4092 5.48733 19.3128 5.48008 19.21V14.54C5.47552 14.4863 5.48283 14.4323 5.50132 14.3817C5.51981 14.3311 5.54916 14.2852 5.58726 14.2471C5.62535 14.209 5.67118 14.1796 5.72178 14.1611C5.77238 14.1426 5.8263 14.1354 5.87998 14.14Z" fill="#333333"/>
<path fill-rule="evenodd" clip-rule="evenodd" d="M5.87986 6.3901H10.55C10.6519 6.39495 10.7482 6.43761 10.8203 6.50972C10.8924 6.58184 10.9351 6.67824 10.9399 6.78011V11.4501C10.9353 11.553 10.8929 11.6506 10.821 11.7243C10.7491 11.7981 10.6528 11.8428 10.55 11.8501H5.87986C5.77609 11.843 5.67851 11.7987 5.60496 11.7251C5.53141 11.6516 5.48698 11.5539 5.47996 11.4501V6.78011C5.47515 6.72682 5.48241 6.67308 5.50096 6.62288C5.51951 6.57269 5.54883 6.5273 5.58714 6.48995C5.62545 6.45259 5.67175 6.42421 5.72239 6.40694C5.77304 6.38967 5.82671 6.38393 5.87986 6.3901Z" fill="#333333"/>
<path fill-rule="evenodd" clip-rule="evenodd" d="M42.75 14.14H47.4199C47.5237 14.147 47.6215 14.1914 47.6951 14.265C47.7686 14.3385 47.813 14.4362 47.8201 14.54V19.21C47.8128 19.3128 47.7681 19.4092 47.6943 19.4811C47.6206 19.553 47.5228 19.5953 47.4199 19.6H42.75C42.6471 19.5953 42.5496 19.553 42.4758 19.4811C42.4021 19.4092 42.3573 19.3128 42.3501 19.21V14.54C42.3571 14.4362 42.4013 14.3385 42.4749 14.265C42.5484 14.1914 42.6462 14.147 42.75 14.14Z" fill="#333333"/>
<path fill-rule="evenodd" clip-rule="evenodd" d="M42.75 6.39001H47.4199C47.5228 6.39466 47.6206 6.43695 47.6943 6.50885C47.7681 6.58075 47.8128 6.67728 47.8201 6.78003V11.45C47.813 11.5538 47.7686 11.6515 47.6951 11.725C47.6215 11.7986 47.5237 11.843 47.4199 11.85H42.75C42.6462 11.843 42.5484 11.7986 42.4749 11.725C42.4013 11.6515 42.3571 11.5538 42.3501 11.45V6.78003C42.3573 6.67728 42.4021 6.58075 42.4758 6.50885C42.5496 6.43695 42.6471 6.39466 42.75 6.39001Z" fill="#333333"/>
<defs>
<linearGradient id="paint0_linear_13797_14660" x1="14.5" y1="5" x2="39" y2="41.5" gradientUnits="userSpaceOnUse">
<stop offset="0.02" stop-color="#E6E6E6"/>
<stop offset="0.76" stop-color="#999999"/>
</linearGradient>
<linearGradient id="paint1_linear_13797_14660" x1="14.5199" y1="34.4599" x2="38.9699" y2="34.4599" gradientUnits="userSpaceOnUse">
<stop stop-color="#4D4D4D"/>
<stop offset="1" stop-color="#333333"/>
</linearGradient>
<linearGradient id="paint2_linear_13797_14660" x1="13.0301" y1="7.20992" x2="37.29" y2="20.5299" gradientUnits="userSpaceOnUse">
<stop stop-color="#4D4D4D"/>
<stop offset="1" stop-color="#333333"/>
</linearGradient>
</defs>
</svg>
