<svg width="16" height="16" viewBox="0 0 16 16" fill="none" xmlns="http://www.w3.org/2000/svg">
<g clip-path="url(#clip0_622_737)">
<path d="M11.5 7.15112L14.8413 9.03486V9.53681H10.7069V10.6648H14.875V12.7966H10.735V13.9245H12.8669L11.5281 14.6803L8.18687 12.7966V12.2946H12.3269V11.1667H8.18687V9.03486H12.3269V7.9069H10.1894L11.5 7.15112ZM11.5 5.84836L7 8.38627V13.4621L11.5 16L16 13.4621V8.38627L11.5 5.84836Z" fill="white"/>
<path fill-rule="evenodd" clip-rule="evenodd" d="M6.69994 3.7C6.39994 2.7 6.59994 1.6 7.29994 0.799999C8.09994 -1.13249e-06 9.19994 -0.2 10.1999 0.2L8.49994 1.9C8.09994 2.3 8.09994 3.1 8.49994 3.5C8.89994 3.9 9.69994 3.9 10.0999 3.5L11.7999 1.8C12.1999 2.8 11.8999 3.9 11.1999 4.7C10.3999 5.5 9.29994 5.7 8.39994 5.4L6.69994 3.7Z" fill="white"/>
<path opacity="0.5" d="M7.60005 5.9999L3.30005 10.2999C3.30005 10.6999 3.20005 11.1999 2.80005 11.4999C2.20005 12.0999 1.10005 12.0999 0.500049 11.4999C-0.0999512 10.8999 -0.0999512 9.7999 0.500049 9.1999C0.900049 8.7999 1.30005 8.6999 1.80005 8.6999L6.10005 4.3999L7.60005 5.9999ZM2.20005 9.7999C1.90005 9.4999 1.40005 9.4999 1.10005 9.7999C0.800049 10.0999 0.800049 10.5999 1.10005 10.8999C1.40005 11.1999 1.90005 11.1999 2.20005 10.8999C2.50005 10.5999 2.50005 10.0999 2.20005 9.7999Z" fill="white"/>
</g>
<defs>
<clipPath id="clip0_622_737">
<rect width="16" height="16" fill="white"/>
</clipPath>
</defs>
</svg>
