<svg width="16" height="16" viewBox="0 0 16 16" fill="none" xmlns="http://www.w3.org/2000/svg">
<g clip-path="url(#clip0_392_654)">
<path d="M6 10.15H3.25V5.91998H8.88989L10.5601 5.01001V3.38H12.1899V4.88L13 5.33002V0H0V11H6V10.15ZM10.5601 0.849976H12.1899V2.53998H10.5601V0.849976ZM3.25 0.849976H9.75V5.08002H3.25V0.849976ZM2.43994 10.15H0.810059V8.46002H2.43994V10.15ZM2.43994 7.62H0.810059V5.91998H2.43994V7.62ZM2.43994 5.08002H0.810059V3.38H2.43994V5.08002ZM2.43994 2.53998H0.810059V0.849976H2.43994V2.53998Z" fill="#D9D9D9"/>
<path d="M11.5 7.15015L14.8401 9.03015V9.5401H10.71V10.6601H14.8799V12.8001H10.74V13.9201H12.8701L11.53 14.6801L8.18994 12.8001V12.2901H12.3301V11.1701H8.18994V9.00012H12.3301V7.88013H10.1899L11.5 7.15015ZM11.5 5.8501L7 8.39014V13.4601L11.5 16.0001L16 13.4601V8.39014L11.5 5.8501Z" fill="white"/>
</g>
<defs>
<clipPath id="clip0_392_654">
<rect width="16" height="16" fill="white"/>
</clipPath>
</defs>
</svg>
