<svg width="16" height="16" viewBox="0 0 16 16" fill="none" xmlns="http://www.w3.org/2000/svg">
<g clip-path="url(#clip0_392_661)">
<path d="M8.87978 1.26994C8.4306 0.83243 7.89636 0.492037 7.30996 0.269943C6.72901 0.0524351 6.10936 -0.0429141 5.48989 -0.0100865C4.89852 -0.0598949 4.30338 0.0162179 3.74355 0.21318C3.18373 0.410142 2.672 0.723492 2.24209 1.13261C1.81218 1.54174 1.47386 2.03733 1.24941 2.58672C1.02497 3.1361 0.91938 3.72682 0.939843 4.31993L0.999902 5.87993C0.869116 5.88861 0.740808 5.919 0.620019 5.96989C0.491213 6.02983 0.375544 6.11482 0.279931 6.21989C0.184345 6.32856 0.109779 6.45407 0.0599605 6.58995C0.0503257 6.66966 0.0503257 6.75023 0.0599605 6.82994V7.4799C0.113377 7.90985 0.27546 8.31912 0.530908 8.66905C0.786355 9.01898 1.1267 9.29802 1.51992 9.4799L1.95986 10.8199L2.01992 10.9299C2.16992 11.1799 3.71991 13.3199 5.25991 13.3199H5.80996C5.89322 13.3247 5.9767 13.3247 6.05996 13.3199V12.5699C5.97682 12.578 5.8931 12.578 5.80996 12.5699H5.25991C4.62928 12.4662 4.05351 12.1484 3.62978 11.6699C3.38949 11.4427 3.16567 11.1988 2.95986 10.9399C2.86986 10.8299 2.7999 10.7299 2.7499 10.6599C2.72595 10.6364 2.70566 10.6095 2.68984 10.5799L2.15981 8.9799L1.86001 8.8499C1.53951 8.68643 1.27383 8.43261 1.09609 8.1198C0.918358 7.80698 0.83637 7.44895 0.860009 7.08995V6.99992C0.855918 6.95669 0.855918 6.91316 0.860009 6.86992C0.873914 6.83329 0.894046 6.79945 0.919824 6.76994C0.947953 6.73735 0.981952 6.71022 1.01992 6.68993H1.12978H1.88979L1.80996 4.38994C1.79429 3.48666 2.11498 2.60982 2.70986 1.92992C3.08671 1.54958 3.54039 1.25388 4.04043 1.06248C4.54046 0.871091 5.07552 0.788412 5.61001 0.819931C6.12753 0.799248 6.64382 0.880793 7.12978 1.05992C7.61125 1.24366 8.05272 1.5187 8.42983 1.86992C8.73876 2.20364 8.97986 2.59423 9.13979 3.01994C9.30568 3.45708 9.38406 3.9226 9.37002 4.38994V5.79991L10.1298 5.37993V4.37993C10.1453 3.81778 10.0539 3.25778 9.86001 2.7299C9.63975 2.17968 9.30558 1.6822 8.87978 1.26994Z" fill="white"/>
<path d="M11.5 7.15015L14.8401 9.03015V9.5401H10.71V10.6601H14.8799V12.8001H10.74V13.9201H12.8701L11.53 14.6801L8.18994 12.8001V12.2901H12.3301V11.1701H8.18994V9.00012H12.3301V7.88013H10.1899L11.5 7.15015ZM11.5 5.8501L7 8.39014V13.4601L11.5 16.0001L16 13.4601V8.39014L11.5 5.8501Z" fill="white"/>
</g>
<defs>
<clipPath id="clip0_392_661">
<rect width="16" height="16" fill="white"/>
</clipPath>
</defs>
</svg>
