<svg width="16" height="16" viewBox="0 0 16 16" fill="none" xmlns="http://www.w3.org/2000/svg">
<g clip-path="url(#clip0_392_664)">
<path d="M1.43 3.51001L1.50007 5.34003C1.43826 5.30645 1.37021 5.28602 1.30012 5.28003C0.870119 5.28003 0.550119 5.42 0.550119 5.94C0.522622 6.33408 0.616011 6.72718 0.817942 7.06671C1.01987 7.40624 1.3206 7.67605 1.68 7.84003H1.82014L2.29011 9.21997C2.29011 9.21997 3.72004 11.22 4.97004 11.22H5.47004C5.65139 11.2113 5.83027 11.1742 6.00007 11.11V9.62C5.75112 9.71504 5.48651 9.76255 5.22004 9.76001C4.83017 9.77267 4.44608 9.66438 4.12019 9.45001C4.09486 9.42089 4.08088 9.38356 4.08088 9.34497C4.08088 9.30638 4.09486 9.26911 4.12019 9.23999C4.17019 9.16999 4.25015 9.23999 4.33015 9.23999C4.89256 9.28557 5.45768 9.28557 6.02009 9.23999V7.82001C6.0202 7.71986 6.04721 7.62158 6.09822 7.5354C6.14922 7.44922 6.22239 7.3783 6.31013 7.33002L9.72004 5.46997C9.56706 5.33984 9.37068 5.27208 9.16999 5.28003C9.09653 5.28494 9.02499 5.30539 8.96003 5.34003L9.02009 3.51001C9.02009 1.57001 7.74006 -0.0100098 5.24006 -0.0100098C2.74006 -0.0100098 1.43 1.58001 1.43 3.51001ZM6.43 5.06L7.23005 5C7.57196 4.99391 7.91173 5.05506 8.23005 5.17999C8.24558 5.18518 8.25977 5.19377 8.27155 5.20514C8.28334 5.21651 8.29242 5.2304 8.29817 5.24573C8.30392 5.26106 8.30616 5.27745 8.30476 5.29376C8.30335 5.31008 8.2984 5.3259 8.29011 5.34003C8.27058 5.34617 8.24958 5.34617 8.23005 5.34003C8.21274 5.35301 8.19163 5.35999 8.16999 5.35999C8.14836 5.35999 8.12749 5.35301 8.11018 5.34003C7.83776 5.28052 7.55864 5.25698 7.2801 5.27002L6.49006 5.33002C6.42006 5.33002 6.25006 5.32999 6.24006 5.23999C6.20006 5.07999 6.44001 5.06 6.44001 5.06H6.43ZM5.98005 5.98999C6.26625 5.85145 6.5823 5.78616 6.89997 5.79999C7.25215 5.80365 7.59711 5.90026 7.89997 6.08002C7.92879 6.11138 7.94489 6.15242 7.94489 6.19501C7.94489 6.2376 7.92879 6.27863 7.89997 6.31C7.88534 6.33342 7.86462 6.35233 7.83991 6.36469C7.81521 6.37704 7.7876 6.38236 7.76008 6.38H7.66999C7.4918 6.2756 7.29482 6.20761 7.09016 6.17999C7.14133 6.24581 7.16928 6.32661 7.16999 6.40997C7.16999 6.52136 7.12571 6.6282 7.04695 6.70697C6.96818 6.78574 6.86146 6.83002 6.75007 6.83002C6.69622 6.82872 6.64307 6.81679 6.59382 6.79498C6.54457 6.77317 6.50011 6.74188 6.46296 6.70288C6.42581 6.66388 6.3969 6.61794 6.37751 6.56769C6.35813 6.51744 6.34884 6.46382 6.35017 6.40997C6.35214 6.33458 6.37634 6.26151 6.41999 6.20001C6.30914 6.21808 6.20158 6.25172 6.10017 6.29999C6.08145 6.31231 6.06027 6.32057 6.03816 6.32422C6.01605 6.32787 5.99343 6.32682 5.97175 6.32117C5.95007 6.31551 5.92969 6.30536 5.91218 6.29138C5.89467 6.2774 5.8805 6.25988 5.87019 6.23999C5.85286 6.21703 5.84231 6.18958 5.84016 6.16089C5.838 6.1322 5.84428 6.10348 5.85798 6.07819C5.87168 6.05289 5.89235 6.03212 5.91755 6.01825C5.94276 6.00438 5.97137 5.99803 6.00007 6L5.98005 5.98999ZM4.79011 7.98999C4.83876 8.06012 4.90284 8.11819 4.97737 8.15979C5.05189 8.20139 5.13482 8.22539 5.22004 8.22998C5.3051 8.22467 5.38781 8.20035 5.46223 8.15881C5.53664 8.11728 5.6008 8.0596 5.64997 7.98999C5.67473 7.95121 5.71349 7.92339 5.75813 7.91223C5.80276 7.90107 5.84987 7.90743 5.88996 7.92999C5.92172 7.96186 5.93977 8.005 5.93977 8.04999C5.93977 8.09497 5.92172 8.13812 5.88996 8.16998C5.81348 8.29188 5.7073 8.39238 5.58137 8.46204C5.45544 8.53169 5.3139 8.56824 5.16999 8.56824C5.02608 8.56824 4.88455 8.53169 4.75862 8.46204C4.63268 8.39238 4.52651 8.29188 4.45002 8.16998C4.4205 8.13698 4.40412 8.09426 4.40412 8.04999C4.40412 8.00571 4.4205 7.96299 4.45002 7.92999C4.46409 7.88865 4.49274 7.85383 4.53059 7.83203C4.56843 7.81023 4.613 7.8029 4.65583 7.81146C4.69866 7.82003 4.73695 7.84392 4.7635 7.8786C4.79005 7.91328 4.80303 7.95642 4.80012 8L4.79011 7.98999ZM4.50007 6.20001C4.49082 6.21961 4.47737 6.23699 4.46076 6.25092C4.44416 6.26484 4.42479 6.275 4.40388 6.2807C4.38297 6.2864 4.36105 6.28751 4.33967 6.28394C4.31829 6.28037 4.29802 6.2722 4.2801 6.26001C4.17869 6.21174 4.07088 6.17804 3.96003 6.15997C4.00071 6.22234 4.02168 6.29555 4.02009 6.37C4.02009 6.48139 3.97581 6.58823 3.89704 6.66699C3.81828 6.74576 3.71156 6.78998 3.60017 6.78998C3.54547 6.78999 3.49115 6.7791 3.44074 6.75787C3.39034 6.73665 3.34467 6.70552 3.30647 6.66638C3.26826 6.62724 3.23834 6.58087 3.21833 6.52997C3.19833 6.47906 3.18868 6.42467 3.19001 6.37C3.18915 6.28636 3.21752 6.20506 3.27009 6.14001C3.06793 6.17765 2.8724 6.24506 2.69001 6.34003H2.60017C2.5732 6.33897 2.54667 6.33214 2.52253 6.32007C2.49839 6.308 2.47706 6.29096 2.46003 6.27002C2.43937 6.23207 2.43303 6.18792 2.44221 6.14569C2.45139 6.10346 2.47552 6.06593 2.51008 6.03998C2.81295 5.86022 3.15791 5.76367 3.51008 5.76001C3.82748 5.7494 4.14277 5.81453 4.43 5.95001C4.45832 5.95391 4.48489 5.9658 4.50666 5.98431C4.52844 6.00282 4.54464 6.02719 4.55305 6.0545C4.56145 6.08182 4.56187 6.11094 4.55427 6.13849C4.54667 6.16604 4.53131 6.19088 4.51008 6.21002L4.50007 6.20001ZM3.98005 5.04999C3.98005 5.04999 4.22002 5.05003 4.20002 5.28003C4.18002 5.51003 4.02002 5.38 3.95002 5.37H3.16999C2.89146 5.35695 2.61258 5.38049 2.34016 5.44C2.32163 5.44964 2.30099 5.45465 2.2801 5.45465C2.25921 5.45465 2.23857 5.44964 2.22004 5.44C2.20588 5.43571 2.19291 5.42801 2.18244 5.41754C2.17198 5.40708 2.16428 5.39417 2.15998 5.38C2.1533 5.36558 2.14959 5.34993 2.149 5.33405C2.1484 5.31816 2.15098 5.30236 2.15656 5.28748C2.16215 5.27259 2.17057 5.25896 2.18147 5.24738C2.19236 5.2358 2.20552 5.22645 2.22004 5.21997C2.53878 5.09651 2.87826 5.03542 3.22004 5.03998L3.98005 5.04999Z" fill="white"/>
<path d="M11.5 7.15015L14.8401 9.03015V9.5401H10.71V10.6601H14.8799V12.8001H10.73V13.9201H12.8701L11.53 14.6801L8.18994 12.8001V12.2901H12.3301V11.1701H8.18994V9.00012H12.3301V7.88013H10.1899L11.5 7.15015ZM11.5 5.8501L7 8.39014V13.4601L11.5 16.0001L16 13.4601V8.39014L11.5 5.8501Z" fill="white"/>
</g>
<defs>
<clipPath id="clip0_392_664">
<rect width="16" height="16" fill="white"/>
</clipPath>
</defs>
</svg>
