<svg width="64" height="64" viewBox="0 0 64 64" fill="none" xmlns="http://www.w3.org/2000/svg">
<path d="M46.4854 28L30.9707 36.75V54.25L46.4854 63L62.0001 54.25V36.75L46.4854 28Z" fill="#333333"/>
<path d="M46.4854 32.4915L58.0051 38.9862V40.7167H43.751V44.6056H58.1215V51.9555H43.848V55.8443H51.198L46.5824 58.4501L35.0627 51.9555V50.2249H49.3362V46.336H35.0627V38.9862H49.3362V35.0973H41.9667L46.4854 32.4915ZM46.4854 28L30.9707 36.75V54.25L46.4854 63L62.0001 54.25V36.75L46.4854 28Z" fill="white"/>
<path opacity="0.5" d="M40.089 23.4601C39.4293 22.8061 38.5559 22.4119 37.629 22.35L37.799 16.96C37.9163 13.0463 36.478 9.24552 33.799 6.39003C32.2436 4.91049 30.4075 3.75776 28.399 3.00001C26.3982 2.24585 24.2652 1.90565 22.129 2.00001C11.289 2.00001 6.42908 9.47002 6.42908 16.94L6.62903 22.31C5.88988 22.3282 5.17404 22.573 4.57849 23.0111C3.98294 23.4493 3.53631 24.0598 3.29895 24.76C3.14154 25.2298 3.07707 25.7256 3.10901 26.22C3.02707 27.9947 3.46874 29.7544 4.37903 31.2801C5.28091 32.7942 6.6193 34.0002 8.21887 34.74L9.75891 39.37L9.9491 39.74C10.4491 40.6 15.819 47.98 21.119 47.98H22.9889C25.1189 47.98 27.259 46.78 29.099 45.29V36.64C29.0976 36.2876 29.1893 35.9411 29.3649 35.6355C29.5405 35.33 29.7938 35.0762 30.099 34.9L40.849 28.76C41.0402 27.948 41.1176 27.1134 41.079 26.2801C41.1063 25.7639 41.0316 25.2473 40.859 24.76C40.6924 24.2793 40.4305 23.8371 40.089 23.4601Z" fill="#333333"/>
<path fill-rule="evenodd" clip-rule="evenodd" d="M15.0448 24.7596L15.1239 24.7673C16.0189 24.8544 16.8827 25.1227 17.6544 25.5534C18.4261 25.9841 19.087 26.5667 19.5908 27.2603L19.8781 27.656L19.5908 28.0516C19.087 28.7452 18.4261 29.3278 17.6544 29.7585C16.8827 30.1892 16.0189 30.4575 15.1239 30.5446L15.0448 30.5523L14.9658 30.5446C14.0708 30.4575 13.207 30.1892 12.4353 29.7585C11.6636 29.3278 11.0027 28.7452 10.4989 28.0516L10.2115 27.656L10.4989 27.2603C11.0027 26.5667 11.6636 25.9841 12.4353 25.5534C13.207 25.1227 14.0708 24.8544 14.9658 24.7673L15.0448 24.7596ZM15.0448 26.1814C14.3986 26.2547 13.7758 26.4536 13.2171 26.7654C12.789 27.0043 12.4062 27.3053 12.0825 27.656C12.4062 28.0067 12.789 28.3076 13.2171 28.5465C13.7758 28.8583 14.3986 29.0572 15.0448 29.1305C15.6911 29.0572 16.3139 28.8583 16.8726 28.5465C17.3007 28.3076 17.6835 28.0067 18.0072 27.656C17.6835 27.3053 17.3007 27.0043 16.8726 26.7654C16.3139 26.4536 15.6911 26.2547 15.0448 26.1814Z" fill="#ECECEC"/>
<path fill-rule="evenodd" clip-rule="evenodd" d="M29.1432 24.7596L29.2222 24.7673C30.1173 24.8544 30.9811 25.1227 31.7528 25.5534C32.5245 25.9841 33.1854 26.5667 33.6892 27.2603L33.9765 27.656L33.6892 28.0516C33.1854 28.7452 32.5245 29.3278 31.7528 29.7585C30.9811 30.1892 30.1173 30.4575 29.2222 30.5446L29.1432 30.5523L29.0642 30.5446C28.1691 30.4575 27.3054 30.1892 26.5337 29.7585C25.762 29.3278 25.1011 28.7452 24.5973 28.0516L24.3099 27.656L24.5973 27.2603C25.1011 26.5667 25.762 25.9841 26.5337 25.5534C27.3054 25.1227 28.1691 24.8544 29.0642 24.7673L29.1432 24.7596ZM29.1432 26.1814C28.497 26.2547 27.8742 26.4536 27.3155 26.7654C26.8874 27.0043 26.5046 27.3053 26.1809 27.656C26.5046 28.0067 26.8874 28.3076 27.3155 28.5465C27.8742 28.8583 28.497 29.0572 29.1432 29.1305C29.7894 29.0572 30.4122 28.8583 30.971 28.5465C31.3991 28.3076 31.7819 28.0067 32.1055 27.656C31.7819 27.3053 31.3991 27.0043 30.971 26.7654C30.4122 26.4536 29.7894 26.2547 29.1432 26.1814Z" fill="#ECECEC"/>
<path opacity="0.5" fill-rule="evenodd" clip-rule="evenodd" d="M15.1024 35.0448C15.7362 34.094 16.1369 33.73 17.6589 32.7407L18.7184 33.8091C17.0957 34.9406 16.8822 35.1755 16.3698 36.0295C15.8574 36.8835 15.675 37.4429 15.4306 38.8204L13.8876 38.4742C14.1672 36.898 14.2145 36.3767 15.1024 35.0448Z" fill="white"/>
<path opacity="0.5" fill-rule="evenodd" clip-rule="evenodd" d="M29.4109 35.5594C29.3169 35.4002 29.2095 35.2304 29.0858 35.0448C28.452 34.094 28.0513 33.73 26.5294 32.7407L25.4698 33.8091C27.0925 34.9406 27.306 35.1755 27.8184 36.0295C28.3308 36.8835 28.5132 37.4429 28.7576 38.8204L29.099 38.7438V36.64C29.0976 36.2876 29.1892 35.9411 29.3649 35.6355C29.3797 35.6098 29.395 35.5844 29.4109 35.5594Z" fill="white"/>
<path opacity="0.5" fill-rule="evenodd" clip-rule="evenodd" d="M24.6703 21.7653C26.3489 21.3089 27.8574 20.9647 29.6328 20.9647C31.4081 20.9647 33.0601 21.4605 34.5219 21.9524L33.6513 23.2162C32.6558 22.7242 31.0941 22.5444 29.6328 22.5444C28.1714 22.5444 26.8608 22.7512 25.5409 23.029L24.6703 21.7653Z" fill="white"/>
<path opacity="0.5" fill-rule="evenodd" clip-rule="evenodd" d="M20.0631 21.7653C18.3845 21.3089 16.876 20.9647 15.1006 20.9647C13.3253 20.9647 11.6733 21.4605 10.2115 21.9524L11.0821 23.2162C12.0776 22.7242 13.6393 22.5444 15.1006 22.5444C16.562 22.5444 17.8726 22.7512 19.1925 23.029L20.0631 21.7653Z" fill="white"/>
<path fill-rule="evenodd" clip-rule="evenodd" d="M20.0978 33.2726C20.3166 33.6092 20.6148 33.8867 20.9663 34.0805C21.3139 34.2723 21.7032 34.3763 22.1001 34.3838C22.495 34.3744 22.8815 34.2694 23.2269 34.0778C23.5762 33.884 23.8727 33.6075 24.0902 33.2726L25.4558 34.1599C25.0931 34.7181 24.599 35.1789 24.0171 35.5018C23.435 35.8248 22.7828 36 22.1173 36.0123L22.1042 36.0126L22.0912 36.0124C21.4223 36.0034 20.7657 35.8297 20.1798 35.5066C19.5939 35.1834 19.0968 34.7209 18.7323 34.16L20.0978 33.2726Z" fill="white"/>
<path fill-rule="evenodd" clip-rule="evenodd" d="M18.5238 39.5391C19.1063 39.5391 19.7112 39.5391 20.2423 39.5391C20.9246 39.5391 21.4581 39.5306 22.0641 39.5391C22.6669 39.5284 23.1362 39.5391 23.7922 39.5391C24.4482 39.5391 25.1594 39.5391 25.6595 39.5391C25.6595 39.5391 26.3863 39.5391 26.3698 39.8349C26.3534 40.1307 25.8528 40.4412 24.9643 40.8076C24.0757 41.174 23.08 41.3729 22.0641 41.3869L22.0442 41.3871L22.0243 41.3869C21.0031 41.3767 20.0008 41.1797 19.1063 40.813C18.2118 40.4464 17.8366 40.1307 17.8183 39.8349C17.8001 39.5391 18.5238 39.5391 18.5238 39.5391Z" fill="white"/>
<path d="M40.0001 23.46C39.3404 22.8061 38.467 22.4119 37.5402 22.35L37.7101 16.96C37.8274 13.0463 36.3891 9.24552 33.7101 6.39003C32.1547 4.91049 30.3187 3.75776 28.3102 3.00001C26.3094 2.24585 24.1763 1.90565 22.0402 2.00001C11.2002 2.00001 6.34021 9.47002 6.34021 16.94L6.54016 22.31H6.43005C5.97998 22.3308 5.53829 22.4395 5.13 22.63C4.68145 22.8365 4.27995 23.1326 3.95007 23.5C3.61894 23.8643 3.36697 24.2934 3.21008 24.76C3.05267 25.2298 2.9882 25.7256 3.02014 26.22C2.9382 27.9947 3.37987 29.7544 4.29016 31.28C5.19204 32.7942 6.53044 34.0002 8.13 34.74L9.67004 39.37L9.86023 39.74C10.3602 40.6 15.7302 47.98 21.0302 47.98H22.9C25.03 47.98 27.1701 46.78 29.0101 45.3V42.64C28.9743 42.6708 28.9408 42.7042 28.91 42.74C26.91 44.64 24.71 45.98 22.91 45.98H21.0001C19.1801 45.98 17.0001 44.63 15.0001 42.73C14.1468 41.9172 13.3485 41.0486 12.6102 40.13C12.3002 39.75 12.0502 39.42 11.8702 39.13L11.65 38.82L11.5902 38.72L11.5001 38.56L9.75012 33.26L9.00012 33C7.75478 32.4265 6.70984 31.4931 6.00012 30.32C5.28632 29.1374 4.93839 27.77 5.00012 26.39V26.16C4.98149 25.9303 5.00876 25.6991 5.0802 25.48C5.15776 25.2678 5.27278 25.0714 5.42004 24.9C5.56822 24.7421 5.74459 24.6132 5.94006 24.52C6.13549 24.4316 6.34593 24.3807 6.56018 24.37H8.56018L8.29016 17.01C8.23482 13.7476 9.39711 10.5817 11.5502 8.13002C13.7002 5.79002 17.0601 4.13002 21.9901 4.13002H22.0802C23.9455 4.04074 25.8096 4.32985 27.5602 4.97999C29.2986 5.6375 30.8893 6.63338 32.2401 7.90999C34.5335 10.3742 35.7592 13.6455 35.65 17.01L35.4301 24.33L37.3602 24.46C37.7866 24.49 38.1893 24.6667 38.5001 24.96C38.653 25.1311 38.7689 25.332 38.8402 25.55C38.9261 25.7903 38.9633 26.0452 38.9501 26.3V26.52C39.0098 27.8966 38.662 29.2603 37.9501 30.44L40.7001 28.87C40.8913 28.058 40.9687 27.2234 40.9301 26.39C40.9574 25.8738 40.8827 25.3573 40.7101 24.87C40.5753 24.3553 40.3334 23.8748 40.0001 23.46Z" fill="#ECECEC"/>
</svg>
