<svg width="64" height="64" viewBox="0 0 64 64" fill="none" xmlns="http://www.w3.org/2000/svg">
<g clip-path="url(#clip0_622_727)">
<path d="M46.731 27.5645L46.4854 27.426L46.2398 27.5645L30.7251 36.3145L30.4707 36.458V36.75V54.25V54.542L30.7251 54.6855L46.2398 63.4355L46.4854 63.574L46.731 63.4355L62.2458 54.6855L62.5001 54.542V54.25V36.75V36.458L62.2458 36.3145L46.731 27.5645Z" fill="#333333" stroke="#333333"/>
<path d="M46.4854 32.4915L58.0051 38.9862V40.7167H43.751V44.6056H58.1215V51.9555H43.848V55.8443H51.198L46.5824 58.4501L35.0627 51.9555V50.2249H49.3362V46.336H35.0627V38.9862H49.3362V35.0973H41.9667L46.4854 32.4915ZM46.4854 28L30.9707 36.75V54.25L46.4854 63L62.0001 54.25V36.75L46.4854 28Z" fill="white"/>
<path d="M16.8999 38.3143V38.4791C16.8999 38.8699 16.8999 39.2403 16.8999 39.59V46.8513L17.1799 47.3244L24.8798 60.7987C24.8351 60.8445 24.7821 60.881 24.7238 60.9057C24.6655 60.9304 24.6028 60.943 24.5397 60.9428H3.50007C3.43697 60.943 3.37433 60.9304 3.31599 60.9057C3.25765 60.881 3.20467 60.8445 3.15998 60.7987L10.8599 47.3244L11.1399 46.8513V39.59C11.1399 39.2403 11.1399 38.8699 11.1399 38.4791V38.3143H16.8999ZM17.98 36.2572H9.98001C8.60001 36.2572 9.1199 38.1912 9.1199 39.59V46.2958L1.00008 60.4491C0.997417 60.7849 1.05974 61.1178 1.18343 61.4285C1.30712 61.7392 1.48972 62.0218 1.72054 62.2592C1.95136 62.4966 2.22557 62.6839 2.52766 62.8111C2.82975 62.9384 3.15363 63.0027 3.48005 63H24.52C24.8464 63.0027 25.17 62.9384 25.4721 62.8111C25.7742 62.6839 26.0486 62.4966 26.2795 62.2592C26.5103 62.0218 26.6929 61.7392 26.8166 61.4285C26.9403 61.1178 27.0026 60.7849 26.9999 60.4491L18.8799 46.2958V39.59C18.8799 38.1912 19.4 36.2572 18.02 36.2572H17.98Z" fill="white"/>
<path opacity="0.5" d="M11.9999 49L6.48132 58.9886H21.4652L15.9999 49H11.9999Z" fill="white"/>
<path fill-rule="evenodd" clip-rule="evenodd" d="M39.9867 22.2176C39.5876 22.2176 39.1886 22.4837 39.1886 22.4837L39.4546 15.4341C39.4546 7.98548 34.5332 2 24.9564 2C15.3797 2 10.4583 7.98548 10.4583 15.4341L10.7243 22.4837C10.7243 22.4837 10.3253 22.2176 9.92624 22.2176C8.33011 22.2176 7 22.7497 7 24.7448C7 29.2672 9.52721 31.1293 11.3894 32.0604L11.9214 32.1934L12.786 35H20V43.743C21.2661 44.546 22.6033 45.0955 23.8924 45.0955H25.7545C26.8259 45.0955 27.9306 44.7159 29 44.1267V35.5L42.2477 28C42.5786 27.0963 42.7799 26.0212 42.7799 24.7448C42.7799 22.7497 41.4498 22.2176 39.9867 22.2176Z" fill="url(#paint0_linear_622_727)"/>
<path fill-rule="evenodd" clip-rule="evenodd" d="M39.9867 22.2176C39.5876 22.2176 39.1886 22.4837 39.1886 22.4837L39.4546 15.4341C39.4546 7.98548 34.5332 2 24.9564 2C15.3797 2 10.4583 7.98548 10.4583 15.4341L10.7243 22.4837C10.7243 22.4837 10.3253 22.2176 9.92624 22.2176C8.33011 22.2176 7 22.7497 7 24.7448C7 29.2672 9.52721 31.1294 11.3894 32.0604L11.9214 32.1934L12.786 35H18.0351C19.1396 35 20.0351 35.8954 20.0351 37V43.7651C21.2907 44.5561 22.6152 45.0955 23.8924 45.0955H25.7545C26.8123 45.0955 27.9433 44.6976 29 44.1211V38.3674V37.4168V36.6622C29 35.9436 29.3854 35.2803 30.0097 34.9246L42.2704 27.9371C42.5878 27.0465 42.7799 25.9918 42.7799 24.7448C42.7799 22.7497 41.4498 22.2176 39.9867 22.2176ZM22.4292 32.3264C22.6953 32.1934 23.0943 32.1934 23.3603 32.5925C23.3603 32.5925 24.0254 33.5235 24.9564 33.5235C26.0205 33.5235 26.5526 32.5925 26.5526 32.5925C26.6856 32.3264 27.2176 32.1934 27.4837 32.3264C27.7497 32.4595 27.8827 32.9915 27.7497 33.2575C27.7497 33.3905 26.8186 34.8536 24.9564 34.8536C23.2273 34.8536 22.1632 33.3905 22.1632 33.2575C22.0302 32.9915 22.0302 32.5925 22.4292 32.3264ZM35.9963 22.6167C35.9963 22.6167 34.4002 22.2176 32.8041 22.3506C31.341 22.4837 31.607 22.4837 29.7448 22.6167C29.4788 22.6167 28.8138 22.4837 28.8138 22.2176C28.6807 21.4196 29.6118 21.2866 29.6118 21.2866C29.7448 21.2866 30.9419 21.1535 32.6711 21.0205C34.4002 20.8875 36.2624 21.6856 36.3954 21.6856C36.6614 21.8186 36.7944 22.0846 36.6614 22.3506C36.6614 22.4837 36.5284 22.4837 36.3954 22.6167C36.2624 22.6167 36.1294 22.6167 35.9963 22.6167ZM13.3845 22.6167C13.2515 22.6167 13.2515 22.4837 13.1185 22.3506C12.9855 22.0846 13.1185 21.8186 13.3845 21.6856C13.5175 21.6856 15.2467 20.8875 17.1088 21.0205C18.838 21.1535 20.0351 21.1535 20.1681 21.2866C20.1681 21.2866 21.0991 21.4196 20.9661 22.2176C20.9661 22.4837 20.3011 22.6167 20.0351 22.6167C18.1729 22.4837 18.4389 22.4837 16.9758 22.3506C15.3797 22.2176 13.7835 22.6167 13.7835 22.6167C13.7835 22.6167 13.6505 22.6167 13.3845 22.6167ZM22.1632 25.6759C22.0302 25.9419 21.6312 26.0749 21.3652 25.9419C21.3652 25.9419 20.9661 25.6759 20.1681 25.5429C20.3011 25.8089 20.4341 26.0749 20.4341 26.341C20.4341 27.272 19.769 27.9371 18.838 27.9371C17.9069 27.9371 17.2418 27.272 17.2418 26.341C17.2418 25.9419 17.3748 25.6759 17.5078 25.4099C16.1777 25.6759 15.2467 26.208 15.2467 26.208C15.1137 26.341 14.9806 26.341 14.8476 26.341C14.5816 26.341 14.4486 26.208 14.3156 26.0749C14.1826 25.8089 14.1826 25.4099 14.4486 25.2769C14.5816 25.2769 16.0447 24.2128 18.3059 24.2128C20.5671 24.2128 21.7642 24.8778 21.7642 24.8778C22.2962 25.0109 22.4292 25.4099 22.1632 25.6759ZM29 38.3674C28.6467 38.603 27.1378 39.509 24.8234 39.509C22.1632 39.509 20.7001 38.3119 20.5671 38.3119C20.3011 38.0459 20.3011 37.7799 20.4341 37.5139C20.7001 37.2478 20.9661 37.3809 21.2321 37.3809C22.5623 37.5139 26.9516 37.5139 28.2817 37.3809C28.5064 37.3809 28.826 37.286 29 37.4168V38.3674ZM35.4643 26.0749C35.3313 26.208 35.1983 26.341 34.9323 26.341C34.7992 26.341 34.6662 26.341 34.5332 26.208C34.5332 26.208 33.6021 25.6759 32.272 25.4099C32.4051 25.6759 32.5381 25.9419 32.5381 26.341C32.5381 27.272 31.873 27.9371 30.9419 27.9371C30.0109 27.9371 29.3458 27.272 29.3458 26.341C29.3458 26.0749 29.4788 25.8089 29.6118 25.5429C28.8138 25.6759 28.4147 25.9419 28.4147 25.9419C28.1487 26.0749 27.7497 25.9419 27.6167 25.6759C27.4837 25.4099 27.4837 25.0109 27.8827 24.8778C27.8827 24.8778 29.2128 24.2128 31.341 24.2128C33.6021 24.2128 35.1983 25.2769 35.1983 25.2769C35.5973 25.4099 35.5973 25.8089 35.4643 26.0749Z" fill="url(#paint1_radial_622_727)"/>
<path opacity="0.15" fill-rule="evenodd" clip-rule="evenodd" d="M39.9867 22.2176C39.5876 22.2176 39.1886 22.4837 39.1886 22.4837L39.4546 15.4341C39.4546 7.98548 34.5332 2 24.9564 2C15.3797 2 10.4583 7.98548 10.4583 15.4341L10.7243 22.4837C10.7243 22.4837 10.3253 22.2176 9.92624 22.2176C8.33011 22.2176 7 22.7497 7 24.7448C7 29.2672 9.52721 31.1293 11.3894 32.0604L11.9214 32.1934L12.786 35H18C19.1046 35 20 35.8954 20 37V43.743C21.2661 44.546 22.6033 45.0955 23.8924 45.0955H25.7545C26.8259 45.0955 27.9306 44.7159 29 44.1267V36.666C29 35.9454 29.3876 35.2806 30.0147 34.9256L42.2477 28C42.5786 27.0963 42.7799 26.0212 42.7799 24.7448C42.7799 22.7497 41.4498 22.2176 39.9867 22.2176Z" fill="url(#paint2_radial_622_727)"/>
</g>
<defs>
<linearGradient id="paint0_linear_622_727" x1="44.6849" y1="42.8968" x2="2.47433" y2="29.9117" gradientUnits="userSpaceOnUse">
<stop stop-color="#4D4D4D"/>
<stop offset="1" stop-color="#333333"/>
</linearGradient>
<radialGradient id="paint1_radial_622_727" cx="0" cy="0" r="1" gradientUnits="userSpaceOnUse" gradientTransform="translate(24.9301 23.4742) scale(19.8113)">
<stop stop-color="#F2F2F2"/>
<stop offset="1" stop-color="#CCCCCC"/>
</radialGradient>
<radialGradient id="paint2_radial_622_727" cx="0" cy="0" r="1" gradientUnits="userSpaceOnUse" gradientTransform="translate(24.8899 18.5) rotate(90) scale(26.5955 17.096)">
<stop offset="0.639752" stop-opacity="0"/>
<stop offset="0.925315"/>
</radialGradient>
<clipPath id="clip0_622_727">
<rect width="64" height="64" fill="white"/>
</clipPath>
</defs>
</svg>
