<svg width="16" height="16" viewBox="0 0 16 16" fill="none" xmlns="http://www.w3.org/2000/svg">
<g clip-path="url(#clip0_392_673)">
<path opacity="0.5" fill-rule="evenodd" clip-rule="evenodd" d="M8 5.5V6.56L11 4.65002C11.56 4.37002 12 4.91002 12 5.40002V10H15.5C15.6326 10 15.7597 9.94734 15.8535 9.85358C15.9473 9.75981 16 9.63261 16 9.5V4H12V0H8.5C8.36739 0 8.24025 0.0526552 8.14648 0.146423C8.05272 0.240192 8 0.367392 8 0.5V5.5Z" fill="white"/>
<path opacity="0.5" fill-rule="evenodd" clip-rule="evenodd" d="M13 0V3H16L13 0Z" fill="white"/>
<path d="M7 11.25C6.99741 11.4481 6.91768 11.6374 6.77759 11.7775C6.63749 11.9176 6.44811 11.9974 6.25 12H0.75C0.551893 11.9974 0.362507 11.9176 0.222412 11.7775C0.0823173 11.6374 0.00258996 11.4481 0 11.25V5.75C0.00258996 5.55189 0.0823173 5.36263 0.222412 5.22253C0.362507 5.08244 0.551893 5.00259 0.75 5H6.25C6.44811 5.00259 6.63749 5.08244 6.77759 5.22253C6.91768 5.36263 6.99741 5.55189 7 5.75V11.25Z" fill="white"/>
<path d="M8 8V9L11 11V6L8 8Z" fill="white"/>
<path d="M8 14V13H13V11L16 13.5L13 16V14H8Z" fill="white"/>
</g>
<defs>
<clipPath id="clip0_392_673">
<rect width="16" height="16" fill="white"/>
</clipPath>
</defs>
</svg>
