<svg width="16" height="16" viewBox="0 0 16 16" fill="none" xmlns="http://www.w3.org/2000/svg">
<path d="M10.9097 0.991787C12.5957 0.991787 13.885 2.28111 13.885 3.96715C13.885 5.65318 12.5957 6.94251 10.9097 6.94251C9.22361 6.94251 7.93429 5.65318 7.93429 3.96715C7.93429 2.28111 9.22361 0.991787 10.9097 0.991787ZM10.9097 0C8.72772 0 6.9425 1.78522 6.9425 3.96715C6.9425 6.14908 8.72772 7.93429 10.9097 7.93429C13.0916 7.93429 14.8768 6.14908 14.8768 3.96715C14.8768 1.78522 13.0916 0 10.9097 0Z" fill="white"/>
<path d="M10.9097 5.75229C11.8956 5.75229 12.6949 4.95304 12.6949 3.96709C12.6949 2.98114 11.8956 2.18188 10.9097 2.18188C9.92372 2.18188 9.12445 2.98114 9.12445 3.96709C9.12445 4.95304 9.92372 5.75229 10.9097 5.75229Z" fill="white"/>
<path opacity="0.5" d="M6.94251 15.8686H0.991787C0.396715 15.8686 0 15.4719 0 14.8768V8.92611C0 8.33104 0.396715 7.93433 0.991787 7.93433H6.94251C7.53758 7.93433 7.93429 8.33104 7.93429 8.92611V14.8768C7.93429 15.4719 7.53758 15.8686 6.94251 15.8686Z" fill="white"/>
<path opacity="0.5" d="M8.8269 11.3063V12.4964L12.8932 15.2735V8.5293L8.8269 11.3063Z" fill="white"/>
</svg>
