<svg width="16" height="16" viewBox="0 0 16 16" fill="none" xmlns="http://www.w3.org/2000/svg">
<g clip-path="url(#clip0_282_632)">
<path opacity="0.5" d="M8.82925 10.7279H6.58804C6.5939 10.2005 6.63492 9.74643 6.71109 9.36557C6.79312 8.97885 6.93082 8.63022 7.12418 8.31967C7.32339 8.00912 7.58707 7.70151 7.91519 7.39682C8.19058 7.15073 8.43082 6.91635 8.63589 6.6937C8.84097 6.47104 9.00211 6.24252 9.11929 6.00815C9.23648 5.76791 9.29507 5.50131 9.29507 5.20834C9.29507 4.8685 9.24234 4.58725 9.13687 4.36459C9.03726 4.13608 8.88492 3.96323 8.67984 3.84604C8.48062 3.72885 8.22867 3.67026 7.92398 3.67026C7.67203 3.67026 7.43765 3.72592 7.22086 3.83725C7.00406 3.94272 6.82535 4.10678 6.68472 4.32944C6.54996 4.55209 6.47964 4.84506 6.47379 5.20834H3.92496C3.94254 4.40561 4.12711 3.7435 4.47867 3.22202C4.83609 2.69467 5.31363 2.30502 5.91129 2.05307C6.50894 1.79526 7.17984 1.66635 7.92398 1.66635C8.74429 1.66635 9.44742 1.80112 10.0334 2.07065C10.6193 2.33432 11.0675 2.72397 11.3781 3.23959C11.6886 3.74936 11.8439 4.37045 11.8439 5.10287C11.8439 5.61264 11.7443 6.06674 11.5451 6.46518C11.3459 6.85776 11.0851 7.22397 10.7628 7.56381C10.4406 7.90366 10.0861 8.25522 9.69937 8.6185C9.36539 8.91733 9.13687 9.2308 9.01382 9.55893C8.89664 9.88705 8.83511 10.2767 8.82925 10.7279ZM6.32437 13.4437C6.32437 13.0687 6.45328 12.7581 6.71109 12.5121C6.9689 12.2601 7.31461 12.1341 7.7482 12.1341C8.17593 12.1341 8.51871 12.2601 8.77652 12.5121C9.04019 12.7581 9.17203 13.0687 9.17203 13.4437C9.17203 13.807 9.04019 14.1146 8.77652 14.3665C8.51871 14.6185 8.17593 14.7445 7.7482 14.7445C7.31461 14.7445 6.9689 14.6185 6.71109 14.3665C6.45328 14.1146 6.32437 13.807 6.32437 13.4437Z" fill="white"/>
</g>
<defs>
<clipPath id="clip0_282_632">
<rect width="16" height="16" fill="white"/>
</clipPath>
</defs>
</svg>
