<svg width="16" height="16" viewBox="0 0 16 16" fill="none" xmlns="http://www.w3.org/2000/svg">
<g clip-path="url(#clip0_282_659)">
<path fill-rule="evenodd" clip-rule="evenodd" d="M2.83942 16H9.8584C10.3848 16 10.7358 15.6725 10.7358 15.1813V8.6318C10.7358 8.14059 10.3848 7.81311 9.8584 7.81311H2.83942C2.313 7.81311 1.96205 8.14059 1.96205 8.6318V15.1813C1.96205 15.6725 2.313 16 2.83942 16ZM11.6131 12.4796V11.3335L16 8.46807V15.3451L11.6131 12.4796Z" fill="white"/>
<path opacity="0.6" fill-rule="evenodd" clip-rule="evenodd" d="M1.24071 8.18689H0.877372C0.350949 8.18689 0 7.85941 0 7.3682V0.818689C0 0.327476 0.350949 0 0.877372 0H7.89634C8.42277 0 8.77372 0.327476 8.77372 0.818689V6.77737H2.11808C1.59166 6.77737 1.24071 7.10485 1.24071 7.59606V8.18689ZM9.65108 3.52034V4.6665L14.0379 7.53191V0.654928L9.65108 3.52034Z" fill="white"/>
</g>
<defs>
<clipPath id="clip0_282_659">
<rect width="16" height="16" fill="white"/>
</clipPath>
</defs>
</svg>
