<svg width="20" height="20" viewBox="0 0 20 20" fill="none" xmlns="http://www.w3.org/2000/svg">
<path fill-rule="evenodd" clip-rule="evenodd" d="M9.99997 2.5L7.99997 3.2V6.4L9.99997 5.7V2.5Z" fill="#C0C0C0"/>
<path fill-rule="evenodd" clip-rule="evenodd" d="M16 3.5L18 2.8L17 0L16 0.3V3.5Z" fill="#C0C0C0"/>
<path fill-rule="evenodd" clip-rule="evenodd" d="M3.99997 7.79999L5.99997 7.09999V3.89999L3.99997 4.59999V7.79999Z" fill="#C0C0C0"/>
<path fill-rule="evenodd" clip-rule="evenodd" d="M1.99998 5.29999L0.0999756 5.99999L1.09998 8.79999L1.99998 8.49999V5.29999Z" fill="#C0C0C0"/>
<path fill-rule="evenodd" clip-rule="evenodd" d="M14 1.10001L12 1.80001V5.00001L14 4.20001V1.10001Z" fill="#C0C0C0"/>
<path opacity="0.5" fill-rule="evenodd" clip-rule="evenodd" d="M1 9V19H19V9H1Z" fill="#C0C0C0"/>
<path d="M17 11H3V12H17V11Z" fill="#C0C0C0"/>
<path d="M10 13H3V17H10V13Z" fill="#C0C0C0"/>
<path d="M17 13H11V17H17V13Z" fill="#C0C0C0"/>
</svg>
