<svg width="16" height="16" viewBox="0 0 16 16" fill="none" xmlns="http://www.w3.org/2000/svg">
<path opacity="0.5" d="M13.8337 7.33478V9.50108H16L13.8337 7.33478Z" fill="white"/>
<path d="M13.2921 10.0427V7.33478H9.50108V16H16V10.0427H13.2921Z" fill="white"/>
<path fill-rule="evenodd" clip-rule="evenodd" d="M2.82588 0H11.0847C11.5802 0 11.9106 0.330353 11.9106 0.825881V6.05316H11.0847V0.825881H2.82588V9.91058H7.94426V10.8354C7.71409 10.5292 7.34938 10.3235 6.95529 10.3235C6.29458 10.3235 5.71647 10.9016 5.71647 11.5623C5.71647 12.223 6.29458 12.8012 6.95529 12.8012C7.34938 12.8012 7.71409 12.5955 7.94426 12.2893V13.2141H2.82588C2.33035 13.2141 2 12.8837 2 12.3882V0.825881C2 0.330353 2.33035 0 2.82588 0Z" fill="white"/>
<path opacity="0.5" fill-rule="evenodd" clip-rule="evenodd" d="M2.82588 0.825928H11.0847V6.05314H7.94425V9.91062H2.82588V0.825928Z" fill="white"/>
</svg>
