<svg width="16" height="16" viewBox="0 0 16 16" fill="none" xmlns="http://www.w3.org/2000/svg">
<g clip-path="url(#clip0_328_1311)">
<path d="M7.85536 1.96384C11.1939 1.96384 13.7469 4.51683 13.7469 7.85536C13.7469 11.1939 11.1939 13.7469 7.85536 13.7469C4.51683 13.7469 1.96384 11.1939 1.96384 7.85536C1.96384 4.51683 4.51683 1.96384 7.85536 1.96384ZM7.85536 0C3.53491 0 0 3.53491 0 7.85536C0 12.1758 3.53491 15.7107 7.85536 15.7107C12.1758 15.7107 15.7107 12.1758 15.7107 7.85536C15.7107 3.53491 12.1758 0 7.85536 0Z" fill="white"/>
<path d="M7.85535 11.3902C9.80763 11.3902 11.3903 9.80757 11.3903 7.85529C11.3903 5.90301 9.80763 4.3204 7.85535 4.3204C5.90307 4.3204 4.32043 5.90301 4.32043 7.85529C4.32043 9.80757 5.90307 11.3902 7.85535 11.3902Z" fill="#FF0000"/>
</g>
<defs>
<clipPath id="clip0_328_1311">
<rect width="16" height="16" fill="white"/>
</clipPath>
</defs>
</svg>
