<svg width="16" height="16" viewBox="0 0 16 16" fill="none" xmlns="http://www.w3.org/2000/svg">
<g clip-path="url(#clip0_237_671)">
<path fill-rule="evenodd" clip-rule="evenodd" d="M34.1954 14.6704L34.212 1.39307L23.0718 1.37598L23.0718 1.37728L13.6355 1.36276L13.6355 1.36259L3.35133 1.34679L2.49529 1.34546L-7.78886 1.32965L-7.80536 14.6069L2.47879 14.6227L3.33483 14.6241L12.7664 14.6386L12.7664 14.6387L23.9066 14.6559L23.9066 14.6546L34.1954 14.6704ZM30.7687 13.8353L29.0549 13.8326L29.0569 12.173L30.7708 12.1756L30.7687 13.8353ZM33.3395 13.8392L31.6257 13.8366L31.6277 12.1769L33.3416 12.1796L33.3395 13.8392ZM31.6402 2.21895L33.354 2.22158L33.352 3.88124L31.6381 3.87862L31.6402 2.21895ZM29.0694 2.21501L30.7832 2.21764L30.7812 3.8773L29.0673 3.87467L29.0694 2.21501ZM26.4985 2.21107L28.2124 2.2137L28.2104 3.87336L26.4965 3.87073L26.4985 2.21107ZM23.9246 4.69662L33.3509 4.71107L33.3427 11.3497L23.9163 11.3353L23.9246 4.69662ZM25.6271 13.8274L23.9132 13.8248L23.9153 12.1651L25.6292 12.1677L25.6271 13.8274ZM28.1979 13.8313L26.4841 13.8287L26.4861 12.169L28.2 12.1717L28.1979 13.8313ZM23.9277 2.20713L25.6416 2.20976L25.6395 3.86942L23.9257 3.86679L23.9277 2.20713ZM18.766 13.8181L20.4799 13.8208L20.4819 12.1611L18.7681 12.1585L18.766 13.8181ZM21.3368 13.8221L23.0507 13.8247L23.0527 12.1651L21.3389 12.1624L21.3368 13.8221ZM23.0651 2.2071L21.3512 2.20446L21.3492 3.86412L23.0631 3.86676L23.0651 2.2071ZM20.4943 2.20315L18.7804 2.20051L18.7784 3.86017L20.4922 3.86281L20.4943 2.20315ZM17.9235 2.19919L16.2096 2.19656L16.2076 3.85622L17.9214 3.85885L17.9235 2.19919ZM23.062 4.69659L13.6357 4.68209L13.6275 11.3207L23.0538 11.3352L23.062 4.69659ZM13.6244 13.8102L15.3382 13.8129L15.3403 12.1532L13.6264 12.1506L13.6244 13.8102ZM16.1952 13.8142L17.9091 13.8168L17.9111 12.1572L16.1972 12.1545L16.1952 13.8142ZM15.3527 2.19524L13.6388 2.1926L13.6367 3.85226L15.3506 3.8549L15.3527 2.19524ZM8.47838 13.8021L10.1923 13.8048L10.1943 12.1451L8.48044 12.1425L8.47838 13.8021ZM11.0492 13.8061L12.7631 13.8087L12.7651 12.1491L11.0513 12.1464L11.0492 13.8061ZM12.7775 2.19111L11.0636 2.18847L11.0616 3.84813L12.7754 3.85077L12.7775 2.19111ZM10.2067 2.18715L8.49282 2.18452L8.49076 3.84418L10.2046 3.84681L10.2067 2.18715ZM7.63588 2.1832L5.92201 2.18056L5.91995 3.84022L7.63382 3.84286L7.63588 2.1832ZM12.7744 4.6806L3.3481 4.6661L3.33985 11.3047L12.7662 11.3192L12.7744 4.6806ZM3.33676 13.7942L5.05063 13.7969L5.05269 12.1372L3.33882 12.1346L3.33676 13.7942ZM5.90757 13.7982L7.62144 13.8008L7.62351 12.1412L5.90963 12.1385L5.90757 13.7982ZM5.06507 2.17925L3.3512 2.17661L3.34913 3.83627L5.06301 3.83891L5.06507 2.17925ZM-1.80576 13.7863L-0.0918909 13.789L-0.0898294 12.1293L-1.8037 12.1267L-1.80576 13.7863ZM0.765046 13.7903L2.47892 13.7929L2.48098 12.1333L0.767107 12.1306L0.765046 13.7903ZM2.49336 2.1753L0.779484 2.17266L0.777423 3.83232L2.4913 3.83496L2.49336 2.1753ZM-0.0774527 2.17134L-1.79133 2.16871L-1.79339 3.82837L-0.0795142 3.831L-0.0774527 2.17134ZM-2.64826 2.16739L-4.36214 2.16475L-4.3642 3.82441L-2.65032 3.82705L-2.64826 2.16739ZM2.49027 4.66479L-6.93605 4.65029L-6.9443 11.2889L2.48201 11.3034L2.49027 4.66479ZM-6.94739 13.7784L-5.23352 13.7811L-5.23145 12.1214L-6.94533 12.1188L-6.94739 13.7784ZM-4.37658 13.7824L-2.66271 13.785L-2.66064 12.1254L-4.37451 12.1227L-4.37658 13.7824ZM-5.21907 2.16344L-6.93295 2.1608L-6.93501 3.82046L-5.22114 3.8231L-5.21907 2.16344Z" fill="white"/>
</g>
<defs>
<clipPath id="clip0_237_671">
<rect width="16" height="16" fill="white"/>
</clipPath>
</defs>
</svg>
