<svg width="20" height="20" viewBox="0 0 20 20" fill="none" xmlns="http://www.w3.org/2000/svg">
<path d="M10 3.33029C13.7795 3.33029 16.6697 6.2205 16.6697 10C16.6697 13.7795 13.7795 16.6697 10 16.6697C6.2205 16.6697 3.33029 13.7795 3.33029 10C3.33029 6.2205 6.2205 3.33029 10 3.33029ZM10 1.10706C5.10888 1.10706 1.10706 5.10888 1.10706 10C1.10706 14.8911 5.10888 18.8929 10 18.8929C14.8911 18.8929 18.8929 14.8911 18.8929 10C18.8929 5.10888 14.8911 1.10706 10 1.10706Z" fill="white"/>
<path d="M9.99999 14.0017C12.2101 14.0017 14.0018 12.2101 14.0018 9.99991C14.0018 7.78976 12.2101 5.99811 9.99999 5.99811C7.78985 5.99811 5.99817 7.78976 5.99817 9.99991C5.99817 12.2101 7.78985 14.0017 9.99999 14.0017Z" fill="#FF0000"/>
</svg>
