<svg width="20" height="20" viewBox="0 0 20 20" fill="none" xmlns="http://www.w3.org/2000/svg">
<g clip-path="url(#clip0_210_676)">
<path fill-rule="evenodd" clip-rule="evenodd" d="M0.468018 3.7542C0.479181 2.91043 0.631722 1.98304 0.975038 1.01886C0.853041 1.76435 0.756235 2.59154 0.749996 3.51532C0.749248 3.62617 0.749775 3.73846 0.751675 3.85223C0.652981 3.81915 0.558341 3.78642 0.468018 3.7542ZM1.03521 6.52294C0.821311 6.09554 0.654549 5.57959 0.558582 4.99752C0.644952 5.02554 0.733484 5.0536 0.824041 5.08161C0.86987 5.53844 0.938654 6.01793 1.03521 6.52294ZM3.86031 8.65076C3.39904 8.47363 2.96812 8.27306 2.59082 8.05873C2.30431 7.086 2.12348 6.21091 2.01867 5.41618C2.23549 5.47105 2.45857 5.52451 2.6867 5.57594C2.95863 5.63723 3.23923 5.69598 3.52651 5.75101C3.58189 6.7612 3.68732 7.76583 3.86031 8.65076ZM6.68924 9.34328C6.17554 9.28971 5.64614 9.19026 5.12757 9.05598C4.90809 8.21155 4.76373 7.12251 4.68836 5.94595C5.34268 6.03987 6.01636 6.1091 6.68926 6.14176L6.68924 9.34328ZM9.25992 9.20244C8.74441 9.29221 8.25436 9.35129 7.83741 9.37516L7.83743 6.1597C7.92823 6.15792 8.0188 6.15534 8.1091 6.15192C8.67635 6.13044 9.21832 6.08648 9.73343 6.02547C9.6521 7.24052 9.49653 8.35777 9.25992 9.20244ZM14.2606 5.34918C14.2883 5.20314 14.3123 5.05322 14.3319 4.89998C14.1981 4.95166 14.0574 5.00408 13.9098 5.05671C13.9079 5.15548 13.9054 5.25295 13.9024 5.34918H14.2606ZM13.6271 0.754517C14.1282 1.7059 14.349 2.70123 14.3872 3.63895C14.2383 3.70217 14.076 3.76822 13.9007 3.83569C13.8699 2.91799 13.7821 1.89883 13.6072 0.754546L13.6271 0.754517ZM10.9703 1.14257C11.4768 1.02833 11.9627 0.91874 12.4594 0.845336C12.6588 2.12481 12.7449 3.23815 12.7624 4.22657C12.2245 4.39012 11.6156 4.54664 10.9413 4.67671C10.9683 3.44417 10.9291 2.21523 10.8403 1.17186L10.9703 1.14257ZM7.83745 1.62134C8.52933 1.59289 9.14189 1.51086 9.70774 1.40794C9.78876 2.42917 9.82265 3.64262 9.78817 4.86181C9.24637 4.93155 8.67147 4.98164 8.06565 5.00458C7.98985 5.00745 7.91376 5.00968 7.83743 5.0113L7.83745 1.62134ZM4.72603 1.32444C5.33772 1.45565 5.97404 1.56963 6.68928 1.61323L6.68926 4.99217C6.00195 4.95663 5.30942 4.88056 4.63655 4.77754C4.60508 3.5534 4.64208 2.3394 4.72603 1.32444ZM3.48354 4.57232C3.46019 3.33514 3.50311 2.10676 3.5954 1.07138C3.13535 0.97054 2.66987 0.879032 2.17474 0.820572C2.02806 1.62628 1.90507 2.4959 1.89814 3.52307C1.89666 3.74188 1.90057 3.9677 1.91092 4.20113C2.23373 4.28857 2.57803 4.37447 2.93918 4.45587C3.11741 4.49605 3.29906 4.53497 3.48354 4.57232Z" fill="white"/>
<path d="M14.7411 7.43921V7.51929C14.7411 7.70929 14.7411 7.88933 14.7411 8.05933V11.5891L14.8811 11.8191L18.7311 18.3691C18.7088 18.3914 18.6823 18.4091 18.6531 18.4211C18.6239 18.4332 18.5926 18.4393 18.5611 18.4392H8.04118C8.00963 18.4393 7.97831 18.4332 7.94914 18.4211C7.91997 18.4091 7.89348 18.3914 7.87113 18.3691L11.7211 11.8191L11.8611 11.5891V8.05933C11.8611 7.88933 11.8611 7.70929 11.8611 7.51929V7.43921H14.7411ZM15.2812 6.43921H11.2812C10.5912 6.43921 10.8511 7.37933 10.8511 8.05933V11.3191L6.79118 18.1992C6.78985 18.3624 6.82101 18.5242 6.88285 18.6753C6.9447 18.8263 7.036 18.9637 7.15141 19.0791C7.26682 19.1945 7.40393 19.2856 7.55497 19.3474C7.70602 19.4093 7.86796 19.4405 8.03117 19.4392H18.5512C18.7144 19.4405 18.8762 19.4093 19.0273 19.3474C19.1783 19.2856 19.3155 19.1945 19.4309 19.0791C19.5464 18.9637 19.6377 18.8263 19.6995 18.6753C19.7613 18.5242 19.7925 18.3624 19.7912 18.1992L15.7311 11.3191V8.05933C15.7311 7.37933 15.9912 6.43921 15.3012 6.43921H15.2812Z" fill="white"/>
<path opacity="0.5" d="M11.3009 14.4392L9.53088 17.4392H16.9509L15.1809 14.4392H11.3009Z" fill="white"/>
</g>
<defs>
<clipPath id="clip0_210_676">
<rect width="20" height="20" fill="white"/>
</clipPath>
</defs>
</svg>
