<svg width="16" height="16" viewBox="0 0 16 16" fill="none" xmlns="http://www.w3.org/2000/svg">
<path opacity="0.8" d="M13.74 10.2893C13.99 10.0793 14.23 9.87926 14.46 9.65926C14.89 8.96926 15.27 8.25926 15.5 7.49926C14.86 7.96926 14.23 8.39926 13.58 8.76926C13.06 9.26926 12.5 9.71926 11.91 10.1093C10.72 10.8893 9.37 11.3593 7.99 11.3793C6.62 11.3593 5.26 10.8993 4.07 10.1193C3.49 9.70926 2.93 9.25926 2.42 8.74926C1.77 8.37926 1.15 7.95926 0.5 7.48926C0.72 8.25926 1.1 8.96926 1.54 9.65926C1.76 9.86926 1.99 10.0593 2.22 10.2493L0.65 12.3493L2.93 10.7993C3.09 10.9193 3.24 11.0393 3.41 11.1493C3.79 11.3993 4.19 11.6193 4.61 11.8093L3.92 14.6593L5.5 12.1693C6.15 12.3893 6.83 12.5193 7.52 12.5693L8 15.4893L8.49 12.5693C9.16 12.5193 9.82 12.3993 10.45 12.1893L12.02 14.6493L11.34 11.8193C11.78 11.6193 12.21 11.3993 12.61 11.1293C12.76 11.0293 12.91 10.9093 13.05 10.8093L15.29 12.3293L13.74 10.2893Z" fill="white"/>
</svg>
