<svg width="16" height="16" viewBox="0 0 16 16" fill="none" xmlns="http://www.w3.org/2000/svg">
<path fill-rule="evenodd" clip-rule="evenodd" d="M8 2.48861C5.2453 2.45543 2.48814 1.59701 1.49297 0C1.49297 10.1781 2.73857 15.6728 8 15.8667C13.2614 15.6728 14.507 10.1781 14.507 0C13.5119 1.59701 10.7547 2.45543 8 2.48861ZM10.9636 6.84006C9.85986 7.03049 8.8809 6.69681 8.77704 6.09478C8.67317 5.49275 9.48373 4.85034 10.5875 4.65991C11.6912 4.46949 12.6702 4.80316 12.774 5.40519C12.8779 6.00723 12.0673 6.64964 10.9636 6.84006ZM7.22297 6.16644C7.1191 6.76847 6.14014 7.10214 5.03641 6.91172C3.93267 6.72129 3.12211 6.07888 3.22598 5.47685C3.32985 4.87482 4.3088 4.54114 5.41254 4.73157C6.51628 4.92199 7.32683 5.56441 7.22297 6.16644ZM7.98462 11.8553C6.02661 11.8553 5.13538 12.2838 4.70566 12.5251C5.31954 13.1686 6.18771 13.4996 8.10851 13.4996C9.80975 13.4996 10.3949 13.1788 11.2943 12.5069C11.2269 12.4813 11.1609 12.456 11.096 12.4311L11.0955 12.4309C10.2661 12.1126 9.59544 11.8553 7.98462 11.8553ZM9.7509 9.09741C8.41816 9.57024 7.51567 9.62294 6.24908 9.09741C7.69026 10.6899 8.32064 10.5779 9.7509 9.09741Z" fill="white"/>
</svg>
