<svg width="16" height="16" viewBox="0 0 16 16" fill="none" xmlns="http://www.w3.org/2000/svg">
<g clip-path="url(#clip0_224_650)">
<g clip-path="url(#clip1_224_650)">
<path d="M10.4 5.31674L14.2016 7.45439V8.024H9.49765V9.304H14.24V11.7231H9.52964V13.0031H11.9552L10.432 13.8608L6.63042 11.7231V11.1535H11.3408V9.87354H6.63042V7.45439H11.3408V6.17439H8.90882L10.4 5.31674ZM10.4 3.83838L5.28003 6.71838V12.4784L10.4 15.3584L15.52 12.4784V6.71838L10.4 3.83838Z" fill="white"/>
</g>
<path fill-rule="evenodd" clip-rule="evenodd" d="M1.16797 5.64005L1.11201 4.12794C1.0789 3.13979 1.41288 2.17437 2.04961 1.41798C2.68634 0.661591 3.58063 0.167931 4.55996 0.0320435H6.53604C7.4188 0.160887 8.2387 0.563821 8.87998 1.184C9.25919 1.57891 9.5557 2.04562 9.75215 2.55665C9.75383 2.56102 9.7555 2.56538 9.75716 2.56975L9.10803 2.91076C9.10083 2.89065 9.09344 2.87059 9.08584 2.8506C8.92909 2.43809 8.69034 2.06157 8.38399 1.74396C8.01157 1.40023 7.57407 1.13466 7.09727 0.962903C6.62047 0.791145 6.11407 0.71668 5.60801 0.743958C3.36801 0.743958 1.91201 2.07995 1.91201 4.13595L2.01602 6.80802L1.4 6.46407C0.960001 6.44807 0.959962 6.56798 0.959962 6.76798C0.932888 7.11702 1.01354 7.46596 1.19092 7.76779C1.36829 8.06961 1.63385 8.30988 1.95195 8.45607L2.24805 8.53595L2.8 10.136C2.98742 10.3893 3.31941 10.7873 3.70973 11.1567V12.2129C2.87228 11.5815 2.22567 10.7029 2.12002 10.552L2.06397 10.4481L1.62402 9.14396C1.16783 8.93638 0.784441 8.59664 0.523438 8.16876C0.262435 7.74089 0.13577 7.24457 0.159962 6.74396C0.150178 6.6045 0.168886 6.46447 0.214844 6.33243C0.260802 6.2004 0.333081 6.07923 0.427344 5.97599C0.521608 5.87275 0.635867 5.78959 0.763184 5.73185C0.890501 5.6741 1.0282 5.64296 1.16797 5.64005Z" fill="white"/>
<path opacity="0.5" fill-rule="evenodd" clip-rule="evenodd" d="M3.7097 9.73418V7.46997C3.68313 7.1621 3.66782 6.85322 3.66386 6.54394H3.7097V6.14394H3.66386C3.67374 5.37289 3.75412 4.60446 3.90389 3.84804C4.39348 3.66373 4.90927 3.5583 5.43192 3.53593V4.84192L5.83192 4.63178V3.53593C6.34496 3.55647 6.85105 3.66084 7.33033 3.84462L7.76995 3.61367C7.74801 3.60363 7.72599 3.59373 7.70389 3.58398C7.48022 2.47011 7.03099 1.41387 6.38387 0.480072L6.07186 0.735931C6.62161 1.54752 7.01759 2.4533 7.23993 3.408C6.78371 3.26311 6.31019 3.17966 5.83192 3.15995V0.608002H5.43192V3.15995C4.95365 3.17966 4.48014 3.26311 4.02391 3.408C4.24626 2.4533 4.64213 1.54752 5.19188 0.735931L4.87987 0.480072C4.23275 1.41387 3.78352 2.47011 3.55985 3.58398C2.64872 3.9789 1.86701 4.62209 1.30389 5.44003L1.63993 5.65605C2.10953 4.983 2.73536 4.43396 3.46386 4.05605C3.33803 4.74511 3.27112 5.44352 3.26385 6.14394H1.47186V6.54394H3.26385C3.27112 7.24436 3.33803 7.94297 3.46386 8.63203C2.73785 8.25049 2.1128 7.70214 1.63993 7.03203L1.30389 7.24003C1.86701 8.05797 2.64872 8.70117 3.55985 9.09609C3.60114 9.31113 3.65116 9.52399 3.7097 9.73418Z" fill="white"/>
</g>
<defs>
<clipPath id="clip0_224_650">
<rect width="16" height="16" fill="white"/>
</clipPath>
<clipPath id="clip1_224_650">
<rect width="12.8" height="12.8" fill="white" transform="translate(4 3.19199)"/>
</clipPath>
</defs>
</svg>
