<svg width="20" height="20" viewBox="0 0 20 20" fill="none" xmlns="http://www.w3.org/2000/svg">
<g clip-path="url(#clip0_316_710)">
<path fill-rule="evenodd" clip-rule="evenodd" d="M19.8607 14.4261C19.8607 14.1327 20 13.8394 20 13.6927C20 13.3993 20 13.106 19.8607 12.9593L18.0504 12.6659C17.9112 12.2259 17.7719 11.7858 17.6327 11.4925L18.7467 9.87898C18.4682 9.43893 18.0504 9.14557 17.6327 8.70553L16.1009 9.87898C15.6831 9.58561 15.2653 9.43893 14.8476 9.29225L14.5691 7.38539C14.4298 7.38539 14.1513 7.23871 13.8728 7.23871C13.5943 7.23871 13.3158 7.23871 13.1765 7.38539L12.898 9.29225C12.4803 9.43893 12.0625 9.58561 11.6447 9.87898L10.2522 8.70553C9.83442 8.99889 9.41666 9.43893 9.13815 9.7323L10.2522 11.3458C10.1129 11.7858 9.83442 12.0792 9.83442 12.5192L7.88486 12.8126C7.88486 13.106 7.74561 13.3993 7.74561 13.546C7.74561 13.8394 7.74561 14.1327 7.88486 14.2794L9.69517 14.5728C9.83442 15.0128 9.97368 15.4529 10.1129 15.7462L9.13815 17.5064C9.41666 17.9465 9.83442 18.2398 10.2522 18.6799L11.784 17.5064C12.0625 17.6531 12.4803 17.7998 12.898 17.9465L13.1765 19.8533C13.455 19.8533 13.7335 20 13.8728 20C14.1513 20 14.4298 20 14.5691 19.8533L14.8476 17.9465C15.2653 17.7998 15.6831 17.6531 15.9616 17.5064L17.4934 18.6799C17.9112 18.3865 18.1897 17.9465 18.6075 17.5064L17.4934 15.8929C17.7719 15.4529 17.9112 15.1595 17.9112 14.7195L19.8607 14.4261ZM13.8728 16.4797C12.4803 16.4797 11.227 15.3062 11.227 13.6927C11.227 12.0792 12.4803 10.9057 13.8728 10.9057C15.2653 10.9057 16.5186 12.0792 16.5186 13.6927C16.5186 15.1595 15.2653 16.4797 13.8728 16.4797Z" fill="white"/>
<path opacity="0.5" fill-rule="evenodd" clip-rule="evenodd" d="M7.09406 15.9304C7.61261 17.6391 8.73185 19.0804 10.2014 20H8.85697H8.14526H7.43355H0.0443204C0.0443204 20 -0.248737 19.0371 0.6723 17.7288C1.19844 16.9814 2.17881 16.5927 3.12568 16.2172C3.83638 15.9354 4.52819 15.6611 4.99489 15.2483C5.20422 15.0599 5.36122 14.8087 5.49728 14.547C5.981 15.1165 6.6043 15.6803 7.09406 15.9304ZM6.78883 14.2134C6.78041 14.0687 6.77615 13.9229 6.77615 13.7761C6.77615 9.83709 9.84605 6.62625 13.6887 6.47631L13.7498 4.61151C13.7631 2.03802 12.0519 -0.0579224 8.73551 -0.0579224C5.41915 -0.0579224 3.70791 2.03802 3.70791 4.59825L3.80077 7.02582C3.80077 7.02582 3.65485 6.94623 3.53546 6.94623C2.96504 6.94623 2.54055 7.13195 2.54055 7.82175C2.54055 9.3738 3.41607 10.0503 4.03954 10.3422L4.22526 10.3952L4.84874 12.2259C4.84874 12.2259 5.7152 13.4317 6.78883 14.2134Z" fill="white"/>
</g>
<defs>
<clipPath id="clip0_316_710">
<rect width="20" height="20" fill="white"/>
</clipPath>
</defs>
</svg>
