<svg width="20" height="20" viewBox="0 0 20 20" fill="none" xmlns="http://www.w3.org/2000/svg">
<path d="M6 14L14.2699 3.43994L11.97 1.1499L19.97 0L18.8199 8L16.5299 5.70996L6 14Z" fill="white"/>
<path d="M11.36 17.2199L11.99 15.4598C12.5581 15.2003 13.0342 14.7747 13.3555 14.2391C13.6768 13.7036 13.8283 13.0832 13.79 12.4598C13.8033 12.2781 13.7791 12.0955 13.7189 11.9235C13.6587 11.7514 13.5637 11.5936 13.44 11.4598C13.2015 11.2306 12.89 11.0927 12.56 11.0699V10.7699L11.56 11.4598V11.6198V12.4799L12.32 12.0599C12.4608 12.0467 12.602 12.0818 12.72 12.1598C12.7774 12.2448 12.7989 12.349 12.78 12.4498C12.8212 12.8759 12.7313 13.3046 12.5221 13.6781C12.313 14.0516 11.9948 14.3523 11.61 14.5399L11.19 14.6698L10.5001 16.6698C9.99005 17.3598 8.50002 19.0797 7.34002 19.0797H6.65996C5.56996 19.0797 4.16 17.5299 3.57 16.7599L3.07 17.0997L3.43999 16.4999L2.79998 14.6198L2.42998 14.5199C2.03145 14.3383 1.69862 14.0383 1.47674 13.6608C1.25485 13.2832 1.15469 12.8463 1.18999 12.4098C1.18999 12.1598 1.19004 12.0099 1.74004 12.0399L2.50994 12.4598L2.37993 9.12976C2.37993 6.54976 4.19005 4.87976 7.00005 4.87976C8.09322 4.84348 9.16807 5.16682 10.06 5.79993L10.59 4.94983C9.53821 4.21917 8.28024 3.84415 7.00005 3.87976C3.12005 3.87976 1.37993 6.51977 1.37993 9.13977L1.45 11.0299C1.27529 11.0335 1.10317 11.0725 0.944021 11.1447C0.784874 11.2168 0.64205 11.3208 0.524221 11.4498C0.406392 11.5789 0.315921 11.7303 0.258474 11.8954C0.201027 12.0604 0.177763 12.2355 0.189992 12.4098C0.157539 13.0347 0.313677 13.6548 0.638235 14.1898C0.962793 14.7248 1.44072 15.1499 2.00994 15.4098L2.57 17.0399L2.63994 17.1798C2.82994 17.4398 4.34994 19.4999 6.00994 19.9699H8.00994C9.65994 19.5299 11.18 17.4499 11.36 17.2199Z" fill="white"/>
<path opacity="0.5" d="M4.66003 16.0601L5.1001 15.76C5.37757 16.9081 5.8621 17.9958 6.53003 18.97L6.14001 19.29C5.4498 18.315 4.94788 17.2195 4.66003 16.0601ZM12.28 12.1799V11.6799H11.1901L10.4401 12.1799H12.28ZM8.01001 19.29C8.83306 18.1295 9.39902 16.8066 9.67004 15.4099C10.8028 14.9109 11.7779 14.1122 12.4901 13.0999L12.0701 12.8298C11.4759 13.6647 10.6952 14.3495 9.79004 14.8298C9.92952 14.0607 10.0064 13.2816 10.02 12.5L9.50012 12.8499C9.47287 13.5989 9.38591 14.3446 9.24011 15.0798C8.63012 15.3184 7.98456 15.4538 7.33008 15.48V14.3101L6.83008 14.6499V15.48C6.4935 15.4669 6.1588 15.4233 5.83008 15.3499L5.27002 15.72C5.79048 15.8728 6.32806 15.9601 6.87012 15.98V19.1699H7.37012V15.98C7.96858 15.9612 8.56115 15.8568 9.13 15.6699C8.86111 16.8663 8.36555 18.0001 7.67004 19.01L8.01001 19.29ZM2.09009 12.8298L1.67004 13.0999C2.33077 14.0225 3.20595 14.7708 4.22009 15.28L4.81006 14.3298C4.69592 13.6186 4.63249 12.9002 4.62012 12.1799H6.13L6.44006 11.6799H4.62012C4.62692 10.7191 4.72732 9.76138 4.92004 8.82007C5.52972 8.58037 6.17546 8.445 6.83008 8.41992V11.0601L7.33008 10.25V8.44995C7.66641 8.47188 8.00066 8.51857 8.33008 8.58984L8.6001 8.1499C8.16777 8.03984 7.72555 7.9729 7.28003 7.94995V4.76001H6.78003V7.94995C6.18209 7.97363 5.59007 8.07796 5.02002 8.26001C5.29465 7.06554 5.78988 5.93273 6.4801 4.91992L6.09009 4.59985C5.27638 5.76444 4.7144 7.08602 4.44006 8.47998C3.30339 8.97729 2.32718 9.78053 1.62012 10.8L2.04004 11.0701C2.62704 10.2288 3.40945 9.54246 4.32007 9.07007C4.16279 9.93139 4.07915 10.8044 4.07007 11.6799H1.83008V12.1799H4.07007C4.07566 13.0552 4.15594 13.9285 4.31006 14.79C3.42679 14.3196 2.6664 13.648 2.09009 12.8298ZM7.63 4.88989C8.20475 5.74226 8.64024 6.68069 8.92004 7.66992L9.28003 7.09985C8.98594 6.19947 8.56142 5.34729 8.02002 4.57007L7.63 4.88989Z" fill="white"/>
</svg>
