<svg width="16" height="16" viewBox="0 0 16 16" fill="none" xmlns="http://www.w3.org/2000/svg">
<g clip-path="url(#clip0_314_690)">
<path opacity="0.5" fill-rule="evenodd" clip-rule="evenodd" d="M7.1021 12.9023C7.85013 14.9089 9.08729 15.9722 11.0725 16.0324C15.0558 15.8591 15.9716 11.6837 15.9209 3.96082C15.1769 5.17485 13.1008 5.83966 11.0196 5.88123C10.8354 7.71217 10.5123 9.2037 9.98848 10.3425C10.8097 10.6184 11.4537 10.5495 12.3602 10.2206C11.3591 11.2727 10.8767 11.4219 9.92857 10.4694C9.6434 11.0579 9.30141 11.5475 8.89346 11.9363C9.5781 12.2656 10.4289 12.26 11.1889 12.255C12.0883 12.2491 13.3364 12.2409 14.0063 11.0707C14.0264 14.1218 12.2704 14.7856 11.0587 14.7936C10.0603 14.8001 8.64382 14.3204 8.16519 12.4824C7.84329 12.6679 7.48983 12.8081 7.1021 12.9023ZM11.7354 8.4252C11.8171 8.88149 12.5601 9.1298 13.3949 8.97981C14.2298 8.82983 14.8404 8.33835 14.7588 7.88206C14.6771 7.42578 13.9341 7.17747 13.0992 7.32745C12.2644 7.47743 11.6538 7.96891 11.7354 8.4252Z" fill="white"/>
<path fill-rule="evenodd" clip-rule="evenodd" d="M5.19614 1.90399C3.00488 1.87445 0.812894 1.21689 0.0236435 0C0.00847537 7.74563 0.991136 11.9291 5.1762 12.0848C9.36185 11.9455 10.3609 7.7659 10.3761 0.0202729C9.58204 1.23406 7.3875 1.88303 5.19614 1.90399ZM7.54654 5.21944C6.66824 5.36271 5.89002 5.10732 5.80834 4.64902C5.72665 4.19071 6.37243 3.70304 7.25073 3.55977C8.12903 3.4165 8.90725 3.67189 8.98893 4.13019C9.07062 4.5885 8.42484 5.07617 7.54654 5.21944ZM4.57192 4.70132C4.48836 5.15931 3.7091 5.41178 2.83139 5.26522C1.95369 5.11866 1.30991 4.62857 1.39347 4.17058C1.47703 3.71258 2.25629 3.46011 3.134 3.60667C4.0117 3.75323 4.65548 4.24332 4.57192 4.70132ZM5.17717 9.07001C3.61961 9.0671 2.90999 9.39187 2.56778 9.57488C3.05511 10.0655 3.7452 10.3187 5.27315 10.3216C6.62646 10.3241 7.09244 10.0808 7.80897 9.57085C7.75524 9.55123 7.7027 9.53183 7.65095 9.51272C6.99167 9.26928 6.45854 9.07241 5.17717 9.07001ZM6.57825 6.93544C5.51734 7.29328 4.79935 7.33204 3.79263 6.93022C4.93658 8.14426 5.4382 8.05999 6.57825 6.93544Z" fill="white"/>
</g>
<defs>
<clipPath id="clip0_314_690">
<rect width="16" height="16" fill="white"/>
</clipPath>
</defs>
</svg>
