<svg width="16" height="16" viewBox="0 0 16 16" fill="none" xmlns="http://www.w3.org/2000/svg">
<path fill-rule="evenodd" clip-rule="evenodd" d="M1.49297 0C2.48814 1.59701 5.2453 2.45543 8 2.48861C10.7547 2.45543 13.5119 1.59701 14.507 0C14.507 10.1781 13.2614 15.6728 8 15.8667C2.73857 15.6728 1.49297 10.1781 1.49297 0ZM11.128 6.59266C10.0243 6.78308 9.04533 6.44941 8.94147 5.84738C8.8376 5.24535 9.64816 4.60293 10.7519 4.41251C11.8556 4.22209 12.8346 4.55576 12.9385 5.15779C13.0423 5.75982 12.2318 6.40224 11.128 6.59266ZM7.05854 5.9183C6.95467 6.52033 5.97571 6.85401 4.87198 6.66358C3.76824 6.47316 2.95768 5.83075 3.06155 5.22871C3.16542 4.62668 4.14437 4.29301 5.24811 4.48343C6.35185 4.67386 7.1624 5.31627 7.05854 5.9183ZM3.61057 8.23756C4.59323 10.3564 6.60261 10.3564 8.30376 10.3564C9.63067 10.3564 11.4719 10.3564 12.4716 8.23752C12.4716 13.7833 9.87474 14.9687 8.08708 14.9687C6.29943 14.9687 3.61057 13.6595 3.61057 8.23756ZM4.62332 10.3825C6.63135 11.6581 9.50656 11.6035 11.5447 10.3825C11.4275 13.1624 9.36113 13.9874 7.99617 13.9874C6.63121 13.9874 4.74251 13.0817 4.62332 10.3825ZM9.75093 8.21885C8.41818 8.69168 7.5157 8.74438 6.24911 8.21885C7.69029 9.81133 8.32067 9.69936 9.75093 8.21885Z" fill="white"/>
</svg>
