<svg width="16" height="16" viewBox="0 0 16 16" fill="none" xmlns="http://www.w3.org/2000/svg">
<path d="M13.9788 4.2123C13.6838 3.62235 12.7252 2 10.8816 2C8.22684 2 6.97321 6.79331 4.31845 6.79331C2.47487 6.79331 1.44246 5.2447 1 4.43353" stroke="white" stroke-width="1.25" stroke-miterlimit="10"/>
<path d="M14.0379 7.75167C13.7429 7.16172 12.7843 5.53937 10.9407 5.53937C8.28592 5.53937 7.03229 10.3327 4.37753 10.3327C2.53395 10.3327 1.50154 8.78407 1.05908 7.9729" stroke="white" stroke-width="1.25" stroke-miterlimit="10"/>
<path d="M13.9788 11.6664C13.6838 11.0765 12.7252 9.4541 10.8816 9.4541C8.22684 9.4541 6.97321 14.2474 4.31845 14.2474C2.47487 14.2474 1.44246 12.6988 1 11.8876" stroke="white" stroke-width="1.25" stroke-miterlimit="10"/>
</svg>
