<svg width="20" height="20" viewBox="0 0 20 20" fill="none" xmlns="http://www.w3.org/2000/svg">
<path d="M20 16.25H16.25V20H13.75V16.25H10V13.75H13.75V10H16.25V13.75H20V16.25Z" fill="white"/>
<path opacity="0.5" d="M17.5 0H2.5C1.83696 0 1.20111 0.263276 0.732269 0.732117C0.263428 1.20096 0 1.83696 0 2.5V17.5C0.00251997 17.9582 0.130957 18.4071 0.371246 18.7973C0.611535 19.1875 0.954465 19.504 1.36253 19.7125C1.58653 17.8576 2.44392 16.1369 3.7899 14.841C5.13588 13.5451 6.88791 12.7536 8.75 12.6001V12.5H12.5V10.925C11.7334 11.3455 10.8743 11.5689 10 11.575C8.58772 11.575 7.2333 11.0139 6.23466 10.0153C5.23603 9.01663 4.67499 7.66228 4.67499 6.25C4.67499 4.83772 5.23603 3.48337 6.23466 2.48474C7.2333 1.48611 8.58772 0.924988 10 0.924988C11.4123 0.924988 12.7667 1.48611 13.7653 2.48474C14.764 3.48337 15.325 4.83772 15.325 6.25C15.3189 7.12432 15.0955 7.98341 14.675 8.75H17.5V12.5H20V2.5C20 1.83696 19.7366 1.20096 19.2677 0.732117C18.7989 0.263276 18.163 0 17.5 0Z" fill="white"/>
</svg>
