<svg width="16" height="16" viewBox="0 0 16 16" fill="none" xmlns="http://www.w3.org/2000/svg">
<g clip-path="url(#clip0_264_710)">
<path fill-rule="evenodd" clip-rule="evenodd" d="M9.65993 6.62157L6.2816 10.7247L2.88417 6.62157H5.15557C5.15557 3.88614 5.22235 1.1507 1.08061 0.238892C6.50114 0.238892 7.41718 3.88614 7.41718 6.62157H9.65993Z" fill="white"/>
<path opacity="0.6" fill-rule="evenodd" clip-rule="evenodd" d="M10.3366 7.59118L11.4079 6.41417H8.46742C8.46742 6.21082 8.46543 6.01047 8.46037 5.81339H13.8593V5.02227L8.57932 2.05329L7.72744 2.54324C7.42346 2.03652 6.99816 1.59235 6.40509 1.223L8.57932 0L15.6905 4.00002V12.0001L8.57932 16.0001L1.46817 12.0001V4.00002L4.10379 2.51749C4.45441 3.20179 4.62175 4.02564 4.69082 5.02227H3.34372V6.41417H2.05278L3.34372 7.91762V8.3822H3.74264L5.26914 10.16H3.34372V10.9511L8.62375 13.9201L10.7393 12.7289H7.37044V10.9511H13.9127V7.59118H10.3366ZM9.61667 8.3822L7.99858 10.16H9.88596V8.3822H9.61667ZM8.41954 5.02227H9.88596V3.24448H8.0611C8.26149 3.78701 8.36683 4.38335 8.41954 5.02227Z" fill="white"/>
</g>
<defs>
<clipPath id="clip0_264_710">
<rect width="16" height="16" fill="white"/>
</clipPath>
</defs>
</svg>
