<svg width="16" height="16" viewBox="0 0 16 16" fill="none" xmlns="http://www.w3.org/2000/svg">
<g clip-path="url(#clip0_520_657)">
<path d="M13.7614 5.65289V8.50951C13.7555 8.61573 13.726 8.7193 13.6749 8.81264C13.6239 8.90599 13.5527 8.98676 13.4664 9.04905C13.3802 9.11133 13.2811 9.15356 13.1764 9.17265C13.0718 9.19174 12.9642 9.18722 12.8615 9.1594C12.0474 8.95943 11.7046 8.55236 10.5477 8.55236H10.462C10.0184 8.61366 9.60876 8.82364 9.30002 9.14795C8.99128 9.47226 8.8017 9.89172 8.76227 10.3377V11.0091C8.80294 11.4546 8.99294 11.8734 9.30146 12.1975C9.60997 12.5216 10.0189 12.7319 10.462 12.7944H10.5477C11.7046 12.7944 12.0474 12.3802 12.8615 12.1803C12.9615 12.1528 13.0662 12.1473 13.1685 12.1644C13.2707 12.1814 13.3681 12.2205 13.4537 12.2789C13.5393 12.3374 13.6112 12.4138 13.6643 12.5028C13.7174 12.5918 13.7506 12.6913 13.7614 12.7944V15.6511H15.9038V5.65289H13.7614Z" fill="white"/>
<path d="M12.333 13.8157C11.6806 14.1819 10.9377 14.3552 10.1906 14.3156C9.48196 14.2641 8.81225 13.9718 8.29264 13.4873C7.77302 13.0028 7.43474 12.3551 7.33395 11.6518V9.65216C7.43474 8.94887 7.77302 8.30119 8.29264 7.81665C8.81225 7.33211 9.48196 7.03984 10.1906 6.98836C10.9377 6.94871 11.6806 7.12207 12.333 7.48827V5.65289H5.90564V15.6511H12.333V13.8157Z" fill="white"/>
<path fill-rule="evenodd" clip-rule="evenodd" d="M23.6396 0.853634L23.6285 9.77272L21.2292 9.76904L21.2274 11.2479L16 11.2398V10.543L16.1913 10.5433L16.1923 9.76131L16.145 9.76124L16.1458 9.14964L16 9.14942V8.45261L16.1466 8.45284L16.1536 2.87841L12.603 2.87295L12.601 4.46075H11.8778L11.8798 2.87168L3.96458 2.8595L3.95765 8.43393L4.75288 8.43515V9.13196L3.95678 9.13073L3.95505 10.5243L4.75288 10.5256V11.2224L3.95342 11.2212L3.23462 11.22L-5.40092 11.2068L-5.38706 0.0579224L3.24848 0.0711848L3.96728 0.0723098L12.6028 0.0855722V0.0857312L21.2413 0.0990176L21.2403 0.849954L23.6396 0.853634ZM21.2396 1.4074L21.2382 2.52228L21.3349 2.52243L21.3363 1.40754L21.2396 1.4074ZM21.2376 3.07972L21.232 7.53927L23.0556 7.54206L23.0612 3.08252L21.2376 3.07972ZM21.2313 8.09671L21.2299 9.21159L21.3266 9.21174L21.3279 8.09686L21.2313 8.09671ZM20.5208 0.848851L20.5208 0.794714L19.0817 0.792501L19.0816 0.846644L20.5208 0.848851ZM20.5201 1.40629L20.185 1.40578L20.184 2.1878L20.5191 2.18832L20.5201 1.40629ZM19.6084 2.18692L19.6093 1.4049L19.0809 1.40409L19.08 2.18611L19.6084 2.18692ZM16.2034 0.84223L16.1561 0.842157L16.1544 2.18161L14.7626 2.17947L14.7643 0.78586L16.2034 0.788074L16.2034 0.84223ZM17.8814 2.18426L16.9213 2.18279L16.9222 1.40078L17.8824 1.40225L17.8814 2.18426ZM18.3621 0.84554L16.9229 0.843333L16.923 0.78918L18.3621 0.791394L18.3621 0.84554ZM20.518 3.07862L20.5124 7.53816L16.7234 7.53235L16.729 3.07281L20.518 3.07862ZM20.5118 8.0956L20.1766 8.09509L20.1762 8.45903L20.5113 8.45955L20.5118 8.0956ZM19.6005 8.45815L19.601 8.09421L18.4497 8.09244L18.4492 8.45638L19.6005 8.45815ZM17.8736 8.45549L17.874 8.09156L16.7227 8.08979L16.7223 8.45372L17.8736 8.45549ZM16.9119 9.76241L18.351 9.76462L18.35 10.5466L16.9109 10.5444L16.9119 9.76241ZM17.8727 9.1523L17.8726 9.20644L16.9125 9.20497L16.9126 9.15082L17.8727 9.1523ZM19.0705 9.76573L19.0696 10.5477L20.5087 10.55L20.5097 9.76793L19.0705 9.76573ZM20.1753 9.15584L20.5104 9.15635L20.5104 9.21049L20.1752 9.20998L20.1753 9.15584ZM19.5997 9.15495L19.0713 9.15414L19.0712 9.20828L19.5996 9.20909L19.5997 9.15495ZM21.9022 9.21262L23.0535 9.21439L23.0549 8.0995L21.9036 8.09774L21.9022 9.21262ZM23.0632 1.41019L21.9119 1.40843L21.9105 2.52331L23.0619 2.52508L23.0632 1.41019ZM12.6056 0.78254L14.0447 0.784754L14.043 2.17836L12.6039 2.17615L12.6056 0.78254ZM10.4433 0.779055L11.8824 0.781269L11.8807 2.17488L10.4415 2.17266L10.4433 0.779055ZM8.28456 0.775735L9.72369 0.777949L9.72196 2.17156L8.28283 2.16934L8.28456 0.775735ZM6.12587 0.772415L7.565 0.774628L7.56326 2.16823L6.12414 2.16602L6.12587 0.772415ZM3.96718 0.769095L5.4063 0.771308L5.40457 2.16491L3.96544 2.1627L3.96718 0.769095ZM1.07603 10.5199L-0.363099 10.5177L-0.361369 9.12411L1.07776 9.12633L1.07603 10.5199ZM3.23472 10.5233L1.79559 10.521L1.79733 9.12743L3.23646 9.12965L3.23472 10.5233ZM1.80772 0.765793L3.24685 0.768006L3.24512 2.16161L1.80599 2.1594L1.80772 0.765793ZM-0.350975 0.762473L1.08816 0.764686L1.08642 2.15829L-0.352707 2.15608L-0.350975 0.762473ZM-2.50967 0.759152L-1.07054 0.761366L-1.07227 2.15497L-2.5114 2.15276L-2.50967 0.759152ZM-4.67096 2.84624L3.24425 2.85842L3.23732 8.43284L-4.67789 8.42067L-4.67096 2.84624ZM-3.24136 10.5133L-4.68049 10.5111L-4.67876 9.11747L-3.23963 9.11969L-3.24136 10.5133ZM-1.08266 10.5166L-2.52179 10.5144L-2.52006 9.12079L-1.08093 9.123L-1.08266 10.5166ZM-4.66836 0.755832L-3.22923 0.758046L-3.23096 2.15165L-4.67009 2.14944L-4.66836 0.755832Z" fill="white" fill-opacity="0.5"/>
</g>
<defs>
<clipPath id="clip0_520_657">
<rect width="16" height="16" fill="white"/>
</clipPath>
</defs>
</svg>
