<svg width="16" height="16" viewBox="0 0 16 16" fill="none" xmlns="http://www.w3.org/2000/svg">
<g clip-path="url(#clip0_332_740)">
<path fill-rule="evenodd" clip-rule="evenodd" d="M9.45453 10.1091H8.54544C8.40136 10.111 8.26372 10.169 8.16183 10.2709C8.05994 10.3728 8.00187 10.5104 7.99998 10.6545V14.6545C8.00187 14.7986 8.05994 14.9363 8.16183 15.0381C8.26372 15.14 8.40136 15.1981 8.54544 15.2H15.4545C15.5986 15.1981 15.7363 15.14 15.8382 15.0381C15.94 14.9363 15.9981 14.7986 16 14.6545V10.6545C15.9981 10.5104 15.94 10.3728 15.8382 10.2709C15.7363 10.169 15.5986 10.111 15.4545 10.1091H14.5455V8.29088C14.5435 7.61637 14.2748 6.97007 13.7978 6.49312C13.3209 6.01616 12.6745 5.74734 12 5.74542C11.3255 5.74734 10.6791 6.01616 10.2022 6.49312C9.72523 6.97007 9.45645 7.61637 9.45453 8.29088V10.1091ZM13.5927 10.1091V8.29088C13.5947 8.08118 13.5548 7.87322 13.4754 7.67911C13.3961 7.48499 13.2788 7.30857 13.1305 7.16029C12.9823 7.012 12.8059 6.89482 12.6118 6.81547C12.4177 6.73612 12.2097 6.69616 12 6.69811C11.79 6.69517 11.5816 6.73443 11.387 6.81343C11.1925 6.89243 11.0157 7.00958 10.8672 7.15807C10.7187 7.30655 10.6015 7.4833 10.5225 7.67787C10.4435 7.87243 10.4043 8.08091 10.4073 8.29088V10.1091H13.5927ZM11.9338 11.3227C11.4596 11.3227 11.0751 11.7071 11.0751 12.1814V13.331C11.0751 13.8053 11.4596 14.1897 11.9338 14.1897C12.4081 14.1897 12.7925 13.8053 12.7925 13.331V12.1814C12.7925 11.7071 12.4081 11.3227 11.9338 11.3227Z" fill="white"/>
<path fill-rule="evenodd" clip-rule="evenodd" d="M4.53597 0.799988H11.464C12.4493 0.799952 13.3947 1.18927 14.0945 1.883C14.7942 2.57673 15.1915 3.5186 15.2 4.50389V6.601C14.9681 6.24668 14.6997 5.91712 14.4 5.61732V4.79999C14.4 3.95129 14.0628 3.13741 13.4627 2.53729C12.8626 1.93718 12.0487 1.59999 11.2 1.59999H4.79999C3.95129 1.59999 3.13736 1.93718 2.53724 2.53729C1.93713 3.13741 1.59999 3.95129 1.59999 4.79999V11.2C1.59999 12.0487 1.93713 12.8626 2.53724 13.4627C3.13736 14.0628 3.95129 14.4 4.79999 14.4H5.643C5.98684 14.7054 6.36566 14.9741 6.77293 15.2H4.53597C3.54513 15.2 2.59486 14.8063 1.89423 14.1057C1.19359 13.405 0.799988 12.4549 0.799988 11.464V4.53593C0.799988 3.54508 1.19359 2.59496 1.89423 1.89432C2.59486 1.19369 3.54513 0.799988 4.53597 0.799988Z" fill="white"/>
</g>
<defs>
<clipPath id="clip0_332_740">
<rect width="16" height="16" fill="white"/>
</clipPath>
</defs>
</svg>
