<svg width="16" height="16" viewBox="0 0 16 16" fill="none" xmlns="http://www.w3.org/2000/svg">
<path fill-rule="evenodd" clip-rule="evenodd" d="M8.6112 11.388H8.85586C9.36937 11.388 9.71171 11.0456 9.71171 10.5321V3.68532C9.71171 3.17181 9.36937 2.82947 8.85586 2.82947H2.00905C1.49554 2.82947 1.1532 3.17181 1.1532 3.68532V7.87375C1.28194 7.65224 1.43968 7.44637 1.62396 7.26209C2.18251 6.70354 2.93945 6.38872 3.72936 6.38647C4.51927 6.38872 5.2762 6.70354 5.83476 7.26209C6.39331 7.82064 6.70807 8.57753 6.71032 9.36744V9.78671H7.9455C8.12134 9.78901 8.28933 9.85989 8.41368 9.98424C8.53803 10.1086 8.60891 10.2766 8.6112 10.4524V11.388ZM10.5675 7.70845V6.51026L14.8468 3.51478V10.7039L10.5675 7.70845ZM1.86412 9.78671H2.28811V9.43542C2.2892 9.05352 2.44138 8.68758 2.71142 8.41754C2.98147 8.14749 3.34743 7.99528 3.72933 7.9942C4.11123 7.99528 4.47719 8.14749 4.74723 8.41754C5.01728 8.68758 5.16946 9.05352 5.17055 9.43542V9.78671H5.59459V9.36744C5.59686 9.12186 5.55018 8.87832 5.45725 8.651C5.36432 8.42367 5.22699 8.21707 5.05333 8.04341C4.87968 7.86975 4.67318 7.73253 4.44585 7.6396C4.21852 7.54667 3.97494 7.49988 3.72936 7.50215C3.48346 7.49871 3.23937 7.54469 3.01151 7.63721C2.78366 7.72973 2.57667 7.86692 2.40278 8.04081C2.22889 8.2147 2.09164 8.42169 1.99913 8.64954C1.90661 8.8774 1.86068 9.12154 1.86412 9.36744V9.78671ZM4.63112 9.43542V9.78671H2.82754V9.43542C2.82587 9.31653 2.84807 9.19849 2.89281 9.08833C2.93754 8.97817 3.00389 8.8781 3.08796 8.79403C3.17203 8.70995 3.27211 8.64363 3.38227 8.59889C3.49243 8.55416 3.61044 8.53194 3.72933 8.5336C3.84806 8.5325 3.96583 8.55512 4.07573 8.60005C4.18564 8.64498 4.28548 8.71132 4.36944 8.79528C4.4534 8.87924 4.51979 8.97913 4.56472 9.08904C4.60965 9.19894 4.63222 9.31669 4.63112 9.43542Z" fill="white"/>
<path fill-rule="evenodd" clip-rule="evenodd" d="M1.47243 11.081H0.666373C0.538625 11.0827 0.416579 11.1342 0.326239 11.2245C0.2359 11.3149 0.184409 11.4369 0.182739 11.5647V15.1113C0.184409 15.2391 0.2359 15.3611 0.326239 15.4515C0.416579 15.5418 0.538625 15.5933 0.666373 15.595H6.7924C6.92015 15.5933 7.04219 15.5418 7.13253 15.4515C7.22287 15.3611 7.27436 15.2391 7.27603 15.1113V11.5647C7.27436 11.4369 7.22287 11.3149 7.13253 11.2245C7.04219 11.1342 6.92015 11.0827 6.7924 11.081H5.98634V9.46893C5.98464 8.87087 5.74632 8.29782 5.32343 7.87492C4.90054 7.45203 4.32744 7.21368 3.72938 7.21198C3.13133 7.21368 2.55823 7.45203 2.13534 7.87492C1.71245 8.29782 1.47413 8.87087 1.47243 9.46893V11.081ZM5.1416 11.081V9.46893C5.14332 9.283 5.10797 9.09861 5.03761 8.9265C4.96725 8.75438 4.86328 8.59796 4.7318 8.46648C4.60032 8.335 4.44397 8.2311 4.27186 8.16074C4.09974 8.09038 3.91532 8.05496 3.72938 8.05668C3.54321 8.05408 3.3584 8.08889 3.18589 8.15893C3.01337 8.22898 2.85666 8.33285 2.725 8.46451C2.59335 8.59617 2.48943 8.75288 2.41939 8.92539C2.34934 9.09791 2.31457 9.28276 2.31717 9.46893V11.081H5.1416ZM3.67071 12.1571C3.25021 12.1571 2.90933 12.498 2.90933 12.9185V13.9378C2.90933 14.3583 3.25021 14.6992 3.67071 14.6992C4.09121 14.6992 4.43209 14.3583 4.43209 13.9378V12.9185C4.43209 12.498 4.09121 12.1571 3.67071 12.1571Z" fill="white"/>
</svg>
