<svg width="16" height="16" viewBox="0 0 16 16" fill="none" xmlns="http://www.w3.org/2000/svg">
<g clip-path="url(#clip0_210_671)">
<path opacity="0.5" fill-rule="evenodd" clip-rule="evenodd" d="M7.73594 3.55996C7.51227 2.44609 7.06304 1.38985 6.41592 0.456055L6.10391 0.711914C6.65365 1.5235 7.04953 2.42928 7.27187 3.38398C6.81565 3.23909 6.34214 3.15565 5.86387 3.13594V0.583984H5.46387V3.13594C4.9856 3.15565 4.51208 3.23909 4.05586 3.38398C4.2782 2.42928 4.67418 1.5235 5.22393 0.711914L4.91191 0.456055C4.2648 1.38985 3.81556 2.44609 3.59189 3.55996C2.68076 3.95488 1.89906 4.59808 1.33594 5.41602L1.67187 5.63203C2.14148 4.95899 2.76741 4.40994 3.4959 4.03203C3.37007 4.72109 3.30316 5.41951 3.2959 6.11992H1.50391V6.51992H3.2959C3.30316 7.22034 3.37007 7.91895 3.4959 8.60801C2.76989 8.22647 2.14475 7.67812 1.67187 7.00801L1.33594 7.21602C1.89906 8.03396 2.68076 8.67715 3.59189 9.07207C3.80629 10.1888 4.25631 11.2469 4.91191 12.176L5.22393 11.9199C4.66752 11.112 4.27097 10.2051 4.05586 9.24805C4.51094 9.39752 4.9851 9.48108 5.46387 9.49609V12.048H5.86387V9.49609C6.34263 9.48108 6.81679 9.39752 7.27187 9.24805C7.14357 9.74882 6.97501 10.2383 6.76787 10.7119L7.6959 9.23203C7.70544 9.17782 7.71885 9.12439 7.73594 9.07207L7.82393 9.02402L7.9999 8.74395V8.48008L7.83994 8.57598C7.92082 8.08333 7.9742 7.58667 7.9999 7.08809V5.48809C7.97609 4.98633 7.92 4.48653 7.83193 3.99199C8.21958 4.19318 8.57982 4.44316 8.90391 4.73594H9.48789C8.98507 4.23477 8.39022 3.83548 7.73594 3.55996V3.55996ZM5.46387 9.15996C4.94093 9.13995 4.42486 9.03465 3.93594 8.84805C3.78616 8.09162 3.70579 7.323 3.6959 6.55195H5.46387V9.15996ZM5.46387 6.15195H3.6959C3.70579 5.38091 3.78616 4.61248 3.93594 3.85605C4.42552 3.67174 4.94122 3.56632 5.46387 3.54395V6.15195ZM5.86387 3.54395C6.38745 3.56491 6.9039 3.67318 7.39189 3.86406C7.54212 4.61772 7.6225 5.38353 7.63193 6.15195H5.86387V3.54395ZM7.39189 8.84004C6.90438 9.03254 6.38766 9.14067 5.86387 9.15996V6.55195H7.63193C7.62007 7.307 7.5397 8.05946 7.39189 8.8V8.84004Z" fill="white"/>
<path fill-rule="evenodd" clip-rule="evenodd" d="M1.11201 4.12794L1.16797 5.64005C1.0282 5.64296 0.890501 5.6741 0.763184 5.73185C0.635867 5.78959 0.521608 5.87275 0.427344 5.97599C0.333081 6.07923 0.260802 6.2004 0.214844 6.33243C0.168886 6.46447 0.150178 6.6045 0.159962 6.74396C0.13577 7.24457 0.262435 7.74089 0.523438 8.16876C0.784441 8.59664 1.16783 8.93638 1.62402 9.14396L2.06397 10.4481L2.12002 10.552C2.28802 10.792 3.82402 12.8721 5.32002 12.8721H5.42402L5.93604 12.0721H5.85596H5.32002C4.40802 12.0721 3.20798 10.7199 2.77598 10.1359L2.22402 8.53595L1.92803 8.45607C1.60993 8.30988 1.34427 8.06961 1.1669 7.76779C0.989521 7.46596 0.908962 7.11702 0.936036 6.76798C0.936036 6.56798 0.935977 6.44807 1.37598 6.46407L1.99199 6.80802L1.88799 4.13595C1.88799 2.07995 3.34398 0.743958 5.58398 0.743958C6.09004 0.71668 6.59644 0.791145 7.07324 0.962903C7.55004 1.13466 7.98755 1.40023 8.35996 1.74396C8.66632 2.06157 8.90516 2.43809 9.06191 2.8506C9.21867 3.26311 9.29009 3.70304 9.27197 4.14396V4.83204H10.072V4.15997C10.089 3.61274 9.99664 3.06769 9.8002 2.55665C9.60375 2.04562 9.30723 1.57891 8.92803 1.184C8.28674 0.563821 7.46674 0.160887 6.58398 0.0320435H4.60801C3.61995 0.157024 2.71404 0.646006 2.06748 1.40353C1.42092 2.16105 1.08024 3.13252 1.11201 4.12794V4.12794Z" fill="white"/>
<path d="M12 6.40001V6.46407C12 6.61607 12 6.7601 12 6.8961V9.71993L12.112 9.90391L15.192 15.144C15.1741 15.1618 15.1529 15.1759 15.1296 15.1856C15.1063 15.1952 15.0812 15.2001 15.056 15.2H6.64005C6.61481 15.2001 6.58975 15.1952 6.56641 15.1856C6.54308 15.1759 6.52189 15.1618 6.50401 15.144L9.58399 9.90391L9.696 9.71993V6.8961C9.696 6.7601 9.696 6.61607 9.696 6.46407V6.40001H12ZM12.432 5.60001H9.23204C8.68004 5.60001 8.888 6.3521 8.888 6.8961V9.50391L5.64005 15.008C5.63898 15.1386 5.66391 15.268 5.71339 15.3889C5.76286 15.5097 5.8359 15.6196 5.92823 15.7119C6.02056 15.8042 6.13025 15.8771 6.25108 15.9266C6.37192 15.976 6.50147 16.0011 6.63204 16H15.0481C15.1786 16.0011 15.3081 15.976 15.4289 15.9266C15.5498 15.8771 15.6595 15.8042 15.7519 15.7119C15.8442 15.6196 15.9172 15.5097 15.9667 15.3889C16.0162 15.268 16.0411 15.1386 16.04 15.008L12.792 9.50391V6.8961C12.792 6.3521 13.0001 5.60001 12.4481 5.60001H12.432Z" fill="white"/>
<path opacity="0.5" d="M9.24802 12L7.83203 14.4H13.768L12.352 12H9.24802Z" fill="white"/>
</g>
<defs>
<clipPath id="clip0_210_671">
<rect width="16" height="16" fill="white"/>
</clipPath>
</defs>
</svg>
