<svg width="16" height="16" viewBox="0 0 16 16" fill="none" xmlns="http://www.w3.org/2000/svg">
<g clip-path="url(#clip0_455_650)">
<path d="M13.6546 4.32001L10.9346 8.98001H14.8246L9.76455 15.2L11.7646 10.54H7.82455L13.6546 4.32001Z" fill="white"/>
<path fill-rule="evenodd" clip-rule="evenodd" d="M11.464 0.799988H4.53597C3.54513 0.799988 2.59486 1.19369 1.89423 1.89432C1.19359 2.59496 0.799988 3.54508 0.799988 4.53593V11.464C0.799988 12.4549 1.19359 13.405 1.89423 14.1057C2.59486 14.8063 3.54513 15.2 4.53597 15.2H8.45408C8.45408 15.2 8.76933 14.5851 8.86087 14.4H4.79999C3.95129 14.4 3.13736 14.0628 2.53724 13.4627C1.93713 12.8626 1.59999 12.0487 1.59999 11.2V4.79999C1.59999 3.95129 1.93713 3.13741 2.53724 2.53729C3.13736 1.93718 3.95129 1.59999 4.79999 1.59999H11.2C12.0487 1.59999 12.8626 1.93718 13.4627 2.53729C14.0628 3.13741 14.3828 3.7307 14.3828 4.57939C14.3828 4.81467 14.3828 7.69569 14.3828 7.95047C14.6478 7.95047 15.0472 7.95047 15.2 7.95047V4.50389C15.1915 3.5186 14.7942 2.57673 14.0945 1.883C13.3947 1.18927 12.4493 0.799952 11.464 0.799988Z" fill="white"/>
<path fill-rule="evenodd" clip-rule="evenodd" d="M11.3889 15.1798C12.5104 15.1556 13.4925 14.747 14.1814 14.0349C14.8703 13.3227 15.2031 12.2709 15.2031 11.5107C15.2032 11.2914 15.2031 10.8827 15.2031 10.5273C15.0274 10.8124 14.5 11.6522 14.3477 11.871C14.1814 12.4899 13.9947 12.8685 13.5234 13.404C12.9333 14.014 12.3984 14.1423 12.3359 14.1774C12.0937 14.4665 11.7491 14.8073 11.3889 15.1798Z" fill="white"/>
</g>
<defs>
<clipPath id="clip0_455_650">
<rect width="16" height="16" fill="white"/>
</clipPath>
</defs>
</svg>
