<svg width="16" height="16" viewBox="0 0 16 16" fill="none" xmlns="http://www.w3.org/2000/svg">
<g clip-path="url(#clip0_248_867)">
<path fill-rule="evenodd" clip-rule="evenodd" d="M15.6274 11.1451C15.6274 10.9032 15.7422 10.6614 15.7422 10.5405C15.7422 10.2986 15.7422 10.0568 15.6274 9.93588L14.135 9.69405C14.0202 9.3313 13.9055 8.96855 13.7907 8.72671L14.709 7.39663C14.4794 7.03388 14.135 6.79204 13.7907 6.42929L12.5279 7.39663C12.1835 7.15479 11.8392 7.03388 11.4948 6.91296L11.2652 5.34104C11.1504 5.34104 10.9208 5.22012 10.6912 5.22012C10.4616 5.22012 10.232 5.22012 10.1172 5.34104L9.88765 6.91296C9.54327 7.03388 9.19888 7.15479 8.8545 7.39663L7.70656 6.42929C7.36217 6.67113 7.01779 7.03388 6.7882 7.27571L7.70656 8.6058C7.59176 8.96855 7.36217 9.21038 7.36217 9.57313L5.75505 9.81497C5.75505 10.0568 5.64026 10.2986 5.64026 10.4195C5.64026 10.6614 5.64026 10.9032 5.75505 11.0241L7.24738 11.266C7.36217 11.6287 7.47697 11.9915 7.59176 12.2333L6.7882 13.6843C7.01779 14.0471 7.36217 14.2889 7.70656 14.6516L8.96929 13.6843C9.19888 13.8052 9.54327 13.9261 9.88765 14.0471L10.1172 15.619C10.3468 15.619 10.5764 15.7399 10.6912 15.7399C10.9208 15.7399 11.1504 15.7399 11.2652 15.619L11.4948 14.0471C11.8392 13.9261 12.1835 13.8052 12.4131 13.6843L13.6759 14.6516C14.0202 14.4098 14.2498 14.0471 14.5942 13.6843L13.6759 12.3542C13.9055 11.9915 14.0202 11.7496 14.0202 11.3869L15.6274 11.1451ZM10.6912 12.8379C9.54327 12.8379 8.51012 11.8706 8.51012 10.5405C8.51012 9.21038 9.54327 8.24305 10.6912 8.24305C11.8392 8.24305 12.8723 9.21038 12.8723 10.5405C12.8723 11.7496 11.8392 12.8379 10.6912 12.8379Z" fill="white"/>
<path fill-rule="evenodd" clip-rule="evenodd" d="M4.53597 0.799988H11.464C12.4493 0.799952 13.3947 1.18927 14.0945 1.883C14.7942 2.57673 15.1915 3.5186 15.2 4.50389V5.45073C15.1657 5.40913 15.1317 5.36549 15.097 5.32107C15.0182 5.22024 14.9363 5.11533 14.8419 5.02092C14.7642 4.94327 14.6823 4.86547 14.5939 4.78153C14.5275 4.71846 14.4574 4.65192 14.3828 4.57939C14.3828 3.7307 14.0628 3.13741 13.4627 2.53729C12.8626 1.93718 12.0487 1.59999 11.2 1.59999H4.79999C3.95129 1.59999 3.13736 1.93718 2.53724 2.53729C1.93713 3.13741 1.59999 3.95129 1.59999 4.79999V11.2C1.59999 12.0487 1.93713 12.8626 2.53724 13.4627C3.13736 14.0628 3.95129 14.4 4.79999 14.4H5.38649C5.64511 14.6903 5.92974 14.9581 6.23687 15.2H4.53597C3.54513 15.2 2.59486 14.8063 1.89423 14.1057C1.19359 13.405 0.799988 12.4549 0.799988 11.464V4.53593C0.799988 3.54508 1.19359 2.59496 1.89423 1.89432C2.59486 1.19369 3.54513 0.799988 4.53597 0.799988Z" fill="white"/>
</g>
<defs>
<clipPath id="clip0_248_867">
<rect width="16" height="16" fill="white"/>
</clipPath>
</defs>
</svg>
