<svg width="16" height="17" viewBox="0 0 16 17" fill="none" xmlns="http://www.w3.org/2000/svg">
<g clip-path="url(#clip0_520_650)">
<path d="M13.2296 6.62985V9.48647C13.2237 9.59269 13.1942 9.69626 13.1432 9.7896C13.0921 9.88295 13.0209 9.96372 12.9346 10.026C12.8484 10.0883 12.7493 10.1305 12.6447 10.1496C12.54 10.1687 12.4324 10.1642 12.3297 10.1364C11.5156 9.93639 11.1728 9.52932 10.0159 9.52932H9.93018C9.48663 9.59062 9.07699 9.8006 8.76824 10.1249C8.4595 10.4492 8.26992 10.8687 8.23049 11.3147V11.986C8.27117 12.4316 8.46117 12.8504 8.76968 13.1745C9.0782 13.4985 9.48714 13.7089 9.93018 13.7714H10.0159C11.1728 13.7714 11.5156 13.3572 12.3297 13.1572C12.4297 13.1297 12.5344 13.1243 12.6367 13.1413C12.739 13.1584 12.8363 13.1975 12.9219 13.2559C13.0075 13.3143 13.0794 13.3907 13.1325 13.4798C13.1857 13.5688 13.2188 13.6683 13.2296 13.7714V16.628H15.372V6.62985H13.2296Z" fill="white"/>
<path d="M11.8013 14.7926C11.1489 15.1588 10.4059 15.3322 9.65879 15.2925C8.95018 15.2411 8.28048 14.9488 7.76086 14.4643C7.24124 13.9797 6.90297 13.332 6.80217 12.6288V10.6291C6.90297 9.92582 7.24124 9.27815 7.76086 8.79361C8.28048 8.30907 8.95018 8.0168 9.65879 7.96532C10.4059 7.92566 11.1489 8.09903 11.8013 8.46523V6.62985H5.37386V16.628H11.8013V14.7926Z" fill="white"/>
<path fill-rule="evenodd" clip-rule="evenodd" d="M1.08018 5.99915L1.14342 7.70816C0.985448 7.71145 0.82982 7.74665 0.685924 7.81191C0.542029 7.87718 0.412891 7.97116 0.306353 8.08784C0.199815 8.20453 0.118124 8.34148 0.0661819 8.4907C0.0142397 8.63993 -0.00690529 8.7982 0.00415252 8.95581C-0.0231888 9.52162 0.119969 10.0826 0.414959 10.5662C0.709949 11.0497 1.14327 11.4337 1.65886 11.6683L2.15609 13.1422L2.21944 13.2597C2.35648 13.4555 3.2989 14.7346 4.44844 15.4313V14.3426C3.81613 13.8436 3.24324 13.1713 2.96081 12.7895L2.33699 10.9812L2.00245 10.8909C1.64292 10.7256 1.34268 10.4541 1.1422 10.113C0.941733 9.77184 0.850685 9.37745 0.881284 8.98297V8.98288C0.881284 8.75689 0.881284 8.62141 1.37851 8.63949L2.07474 9.02822L2.06207 8.70257H3.54845C3.55667 9.49419 3.63229 10.2838 3.7745 11.0626C2.95395 10.6313 2.2474 10.0116 1.71296 9.25421L1.33327 9.48931C1.96972 10.4138 2.85321 11.1407 3.88299 11.587C4.0052 12.2236 4.19513 12.8432 4.44844 13.4358V11.9602C4.43416 11.9023 4.42047 11.8442 4.40737 11.7859C4.42105 11.7904 4.43474 11.7949 4.44844 11.7993V11.3978C4.38925 11.3775 4.33037 11.3562 4.27184 11.3339C4.10255 10.4789 4.01171 9.61022 4.00054 8.73877H4.44844V8.28669H4.00054C4.01171 7.41524 4.10255 6.54675 4.27184 5.69182C4.33038 5.66978 4.38926 5.64874 4.44844 5.6287V5.6058H4.51754C4.99659 5.45053 5.4948 5.36065 5.99873 5.33907V5.6058H6.45081V5.33907C6.94926 5.35903 7.44199 5.449 7.9146 5.6058H9.08808C8.9185 5.51506 8.74452 5.43207 8.56666 5.35717C8.34809 4.26874 7.93897 3.22899 7.35949 2.28527C7.51432 2.32221 7.66729 2.36781 7.81765 2.42198C8.35654 2.6161 8.85102 2.91625 9.27192 3.30474C9.61817 3.66371 9.88811 4.08925 10.0653 4.55548C10.1936 4.89311 10.2713 5.24701 10.2966 5.6058H11.2004C11.1714 5.13315 11.0702 4.66686 10.8997 4.22326C10.6777 3.64567 10.3425 3.11819 9.91396 2.67186C9.18917 1.97093 8.26239 1.51552 7.26468 1.3699H5.0314C3.91469 1.51116 2.89081 2.06381 2.16006 2.91998C1.42931 3.77614 1.04426 4.87411 1.08018 5.99915ZM3.54845 8.25048H2.04447L2.00796 7.31232C2.49523 6.72681 3.09544 6.24298 3.7745 5.89072C3.63229 6.6695 3.55667 7.45886 3.54845 8.25048ZM3.88299 5.35717C3.16777 5.66718 2.52311 6.11255 1.98278 6.66543L1.9572 6.0082C1.9572 4.01769 3.16468 2.6243 5.10226 2.26561C4.51638 3.21454 4.10307 4.26117 3.88299 5.35717ZM4.40737 5.15828C4.65392 4.09965 5.08936 3.09425 5.6925 2.19038C5.79299 2.18304 5.89509 2.17822 5.99873 2.17598V4.87794C5.45818 4.90021 4.923 4.99453 4.40737 5.15828ZM6.45081 4.87794V2.16917C6.5522 2.17119 6.6534 2.17682 6.75423 2.18601C7.35888 3.09101 7.79522 4.09795 8.04216 5.15828C7.52654 4.99453 6.99136 4.90021 6.45081 4.87794Z" fill="white" fill-opacity="0.5"/>
</g>
<defs>
<clipPath id="clip0_520_650">
<rect width="16" height="16" fill="white" transform="translate(0.000854492 0.910156)"/>
</clipPath>
</defs>
</svg>
