<svg width="32" height="16" viewBox="0 0 32 16" fill="none" xmlns="http://www.w3.org/2000/svg">
<path d="M5.12198 3.78613L7.80596 0.382324L10.4899 3.78613L5.12198 3.78613Z" fill="white"/>
<path d="M5.12198 11.7284L7.80596 15.1322L10.4899 11.7284L5.12198 11.7284Z" fill="white"/>
<path d="M11.5636 4.92078L14.7844 7.75728L11.5636 10.5938V4.92078Z" fill="white"/>
<path d="M4.04847 4.92078L0.827698 7.75728L4.04847 10.5938L4.04847 4.92078Z" fill="white"/>
<path d="M7.80612 3.21912L7.80612 12.2959" stroke="white" stroke-miterlimit="10" stroke-linecap="round"/>
<path d="M3.51175 7.75769L12.1005 7.75769" stroke="white" stroke-miterlimit="10" stroke-linecap="round"/>
<path fill-rule="evenodd" clip-rule="evenodd" d="M11.4516 13.4733C11.7254 13.7828 12.1256 13.978 12.5714 13.978H23.0329C23.8583 13.978 24.5274 13.3089 24.5274 12.4835V3.51648C24.5274 2.69109 23.8583 2.02197 23.0329 2.02197H12.5714C12.228 2.02197 11.9116 2.13782 11.6592 2.33257L16.8171 7.5573L11.4516 13.4733ZM26.022 7.16308V8.83693L32 13.0365V2.96352L26.022 7.16308Z" fill="white"/>
</svg>
