<svg width="16" height="16" viewBox="0 0 16 16" fill="none" xmlns="http://www.w3.org/2000/svg">
<g clip-path="url(#clip0_248_961)">
<path fill-rule="evenodd" clip-rule="evenodd" d="M9.99282 3.9856L7.68236 6.75815H9.68033V9.6803H6.75815V7.68233L3.9856 9.99279L6.75815 12.3033V10.3053H9.68033V13.2274H7.68236L9.99282 16L12.3033 13.2274H10.3053V10.3053H13.2275V12.3033L16 9.99279L13.2275 7.68233V9.6803H10.3053V6.75815H12.3033L9.99282 3.9856Z" fill="white"/>
<path fill-rule="evenodd" clip-rule="evenodd" d="M4.53597 0.799988H11.464C12.4493 0.799952 13.3947 1.18927 14.0945 1.883C14.7942 2.57673 15.1915 3.5186 15.2 4.50389V6.55765C14.954 6.31653 14.6863 6.09642 14.4 5.90032V4.79999C14.4 3.95129 14.0628 3.13741 13.4627 2.53729C12.8626 1.93718 12.0487 1.59999 11.2 1.59999H4.79999C3.95129 1.59999 3.13736 1.93718 2.53724 2.53729C1.93713 3.13741 1.59999 3.95129 1.59999 4.79999V11.2C1.59999 12.0487 1.93713 12.8626 2.53724 13.4627C3.13736 14.0628 3.95129 14.4 4.79999 14.4H6.50881C6.77199 14.6944 7.06536 14.9626 7.38424 15.2H4.53597C3.54513 15.2 2.59486 14.8063 1.89423 14.1057C1.19359 13.405 0.799988 12.4549 0.799988 11.464V4.53593C0.799988 3.54508 1.19359 2.59496 1.89423 1.89432C2.59486 1.19369 3.54513 0.799988 4.53597 0.799988Z" fill="white"/>
</g>
<defs>
<clipPath id="clip0_248_961">
<rect width="16" height="16" fill="white"/>
</clipPath>
</defs>
</svg>
