<svg width="20" height="20" viewBox="0 0 20 20" fill="none" xmlns="http://www.w3.org/2000/svg">
<g clip-path="url(#clip0_1701_632)">
<path opacity="0.5" fill-rule="evenodd" clip-rule="evenodd" d="M9.66992 4.44995C9.39033 3.05761 8.82879 1.73732 8.0199 0.570068L7.62988 0.889893C8.31707 1.90438 8.81191 3.0366 9.08984 4.22998C8.51957 4.04887 7.92767 3.94456 7.32983 3.91992V0.72998H6.82983V3.91992C6.232 3.94456 5.6401 4.04887 5.06982 4.22998C5.34775 3.0366 5.84272 1.90438 6.52991 0.889893L6.13989 0.570068C5.331 1.73732 4.76946 3.05761 4.48987 4.44995C3.35095 4.9436 2.37382 5.74759 1.66992 6.77002L2.08984 7.04004C2.67685 6.19873 3.45926 5.51243 4.36987 5.04004C4.21259 5.90136 4.12896 6.77438 4.11987 7.6499H1.87988V8.1499H4.11987C4.12896 9.02542 4.21259 9.89869 4.36987 10.76C3.46236 10.2831 2.68093 9.59765 2.08984 8.76001L1.66992 9.02002C2.37382 10.0424 3.35095 10.8464 4.48987 11.3401C4.75787 12.736 5.32039 14.0586 6.13989 15.22L6.52991 14.8999C5.8344 13.89 5.33872 12.7564 5.06982 11.5601C5.63868 11.7469 6.23137 11.8513 6.82983 11.8701V15.0601H7.32983V11.8701C7.92829 11.8513 8.52099 11.7469 9.08984 11.5601C8.92946 12.186 8.71877 12.7978 8.45984 13.3899L9.61987 11.54C9.63181 11.4723 9.64856 11.4055 9.66992 11.3401L9.77991 11.28L9.99988 10.9299V10.6001L9.79993 10.72C9.90103 10.1042 9.96775 9.48334 9.99988 8.86011V6.86011C9.97011 6.23291 9.9 5.60817 9.78992 4.98999C10.2745 5.24148 10.7248 5.55395 11.1299 5.91992H11.8599C11.2313 5.29346 10.4878 4.79435 9.66992 4.44995ZM6.82983 11.45C6.17616 11.4249 5.53107 11.2933 4.91992 11.0601C4.7327 10.1145 4.63223 9.15375 4.61987 8.18994H6.82983V11.45ZM6.82983 7.68994H4.61987C4.63223 6.72613 4.7327 5.7656 4.91992 4.82007C5.5319 4.58968 6.17652 4.4579 6.82983 4.42993V7.68994ZM7.32983 4.42993C7.98431 4.45614 8.62987 4.59147 9.23987 4.83008C9.42765 5.77215 9.52813 6.72941 9.53992 7.68994H7.32983V4.42993ZM9.23987 11.05C8.63047 11.2907 7.98457 11.4258 7.32983 11.45V8.18994H9.53992C9.52508 9.13375 9.42462 10.0743 9.23987 11V11.05Z" fill="white"/>
<path fill-rule="evenodd" clip-rule="evenodd" d="M1.39 5.15991L1.45995 7.05005C1.28523 7.05368 1.11311 7.09261 0.953965 7.16479C0.794819 7.23698 0.651994 7.34092 0.534165 7.46997C0.416336 7.59902 0.325987 7.75049 0.26854 7.91553C0.211093 8.08057 0.187707 8.25561 0.199937 8.42993C0.169698 9.0557 0.328028 9.6761 0.654282 10.2109C0.980536 10.7458 1.45978 11.1705 2.03001 11.4299L2.57994 13.0601L2.65001 13.1899C2.86001 13.4899 4.78001 16.0901 6.65001 16.0901H6.78001L7.42003 15.0901H7.31993H6.65001C5.51001 15.0901 4.00996 13.3999 3.46996 12.6699L2.78001 10.6699L2.41002 10.5701C2.01239 10.3873 1.68032 10.087 1.4586 9.70972C1.23689 9.33244 1.13619 8.89626 1.17003 8.45996C1.17003 8.20996 1.16996 8.06008 1.71996 8.08008L2.48998 8.51001L2.35997 5.16992C2.35997 2.59992 4.17997 0.929932 6.97997 0.929932C7.61254 0.895834 8.24554 0.988915 8.84154 1.20361C9.43754 1.41831 9.98442 1.75027 10.4499 2.17993C10.8329 2.57695 11.1314 3.0476 11.3274 3.56323C11.5233 4.07887 11.6126 4.62879 11.59 5.17993V6.04004H12.59V5.19995C12.6112 4.51591 12.4958 3.8346 12.2502 3.1958C12.0047 2.557 11.634 1.97362 11.16 1.47998C10.3584 0.704761 9.33342 0.201093 8.22997 0.0400391H5.76C4.52493 0.196264 3.39253 0.807492 2.58434 1.75439C1.77614 2.7013 1.35028 3.91563 1.39 5.15991Z" fill="white"/>
<path d="M15 8V8.08008C15 8.27008 15 8.45012 15 8.62012V12.1499L15.1401 12.3799L18.99 18.9299C18.9677 18.9522 18.9412 18.9699 18.912 18.9819C18.8829 18.9939 18.8515 19.0001 18.82 19H8.30009C8.26854 19.0001 8.23722 18.9939 8.20805 18.9819C8.17888 18.9699 8.15239 18.9522 8.13005 18.9299L11.98 12.3799L12.12 12.1499V8.62012C12.12 8.45012 12.12 8.27008 12.12 8.08008V8H15ZM15.5401 7H11.5401C10.8501 7 11.11 7.94012 11.11 8.62012V11.8799L7.05009 18.76C7.04876 18.9232 7.07992 19.085 7.14176 19.2361C7.20361 19.3871 7.29491 19.5245 7.41032 19.6399C7.52573 19.7553 7.66284 19.8464 7.81388 19.9082C7.96493 19.97 8.12687 20.0013 8.29008 20H18.8101C18.9733 20.0013 19.1351 19.97 19.2862 19.9082C19.4372 19.8464 19.5744 19.7553 19.6899 19.6399C19.8053 19.5245 19.8966 19.3871 19.9584 19.2361C20.0203 19.085 20.0514 18.9232 20.0501 18.76L15.99 11.8799V8.62012C15.99 7.94012 16.2501 7 15.5601 7H15.5401Z" fill="white"/>
<path opacity="0.5" d="M11.56 15L9.79004 18H17.21L15.44 15H11.56Z" fill="white"/>
</g>
<defs>
<clipPath id="clip0_1701_632">
<rect width="20" height="20" fill="white"/>
</clipPath>
</defs>
</svg>
