<svg width="16" height="16" viewBox="0 0 16 16" fill="none" xmlns="http://www.w3.org/2000/svg">
<g clip-path="url(#clip0_299_642)">
<path fill-rule="evenodd" clip-rule="evenodd" d="M15.3261 5.65329L15.3353 4.6921C15.345 3.67763 14.9512 2.70088 14.2407 1.9767C14.0231 1.75496 13.7814 1.56246 13.5215 1.40181C12.9171 1.02276 12.2136 0.81713 11.489 0.817157H10.1416L4.45358 0.76287C3.43912 0.753188 2.46251 1.14689 1.73833 1.85737C1.34712 2.24119 1.0469 2.70047 0.852007 3.2016C0.667715 3.65482 0.570303 4.14352 0.570303 4.64231V6.83531L0.570242 6.84166C0.570263 6.84162 0.570222 6.8417 0.570242 6.84166L0.570303 9.59718L0.563684 9.58698L0.553635 11.7341C0.557554 12.743 0.959879 13.7093 1.67298 14.4229L1.68543 14.4353L1.69067 14.4405C2.40804 15.1579 3.38099 15.561 4.3955 15.561H6.68588L6.67539 15.5552L11.4544 15.5776C12.4689 15.5823 13.4438 15.1838 14.1645 14.4698C14.8852 13.7558 15.2927 12.7849 15.2975 11.7704L15.3261 5.65329ZM10.376 1.63853L10.3862 1.64765L11.2493 1.65169C12.1124 1.65573 12.9387 2.00019 13.5491 2.60973C14.155 3.22283 14.4951 4.0502 14.4951 4.91267V5.74952L14.506 5.76044L14.4511 11.5071C14.4428 12.376 14.0896 13.2061 13.4694 13.8146C12.8491 14.4232 12.0125 14.7604 11.1436 14.7521L10.3068 14.7441C10.3037 14.7471 10.3007 14.7501 10.2977 14.753L4.63519 14.7265C3.77241 14.7225 2.94631 14.3783 2.336 13.7691C1.72971 13.1559 1.38941 12.3283 1.38941 11.4655V5.70473C1.39305 5.70069 1.3967 5.69665 1.40035 5.69261L1.40859 4.82951C1.41211 4.46073 1.47775 4.09895 1.59957 3.75814C1.76232 3.32593 2.01617 2.92882 2.34904 2.59595C2.96349 1.9815 3.79686 1.63626 4.66582 1.63626H10.1377L10.376 1.63853Z" fill="white"/>
</g>
<defs>
<clipPath id="clip0_299_642">
<rect width="16" height="16" fill="white"/>
</clipPath>
</defs>
</svg>
