<svg width="20" height="20" viewBox="0 0 20 20" fill="none" xmlns="http://www.w3.org/2000/svg">
<g clip-path="url(#clip0_248_1093)">
<path d="M20.1561 12.5778V11.5068H12.7337V7.51376C13.7523 7.63111 14.7013 8.08937 15.4263 8.81438C16.1513 9.53939 16.6097 10.4882 16.7271 11.5068H18.1739C18.0503 10.1055 17.4374 8.7928 16.4427 7.79812C15.448 6.80343 14.135 6.19057 12.7337 6.0669V4.08453H11.6631V6.0669C10.2618 6.19057 8.94875 6.80343 7.95407 7.79812C6.95939 8.7928 6.34652 10.1055 6.22285 11.5068H7.66971C7.78706 10.4882 8.2455 9.53939 8.97051 8.81438C9.69552 8.08937 10.6445 7.63111 11.6631 7.51376V11.5068H4.24066V12.5778H11.6631V16.5708C10.6445 16.4534 9.69552 15.9952 8.97051 15.2701C8.2455 14.5451 7.78706 13.5964 7.66971 12.5778H6.22285C6.34652 13.979 6.95939 15.2917 7.95407 16.2864C8.94875 17.2811 10.2618 17.894 11.6631 18.0176V20H12.7337V18.0176C14.135 17.894 15.448 17.2811 16.4427 16.2864C17.4374 15.2917 18.0503 13.979 18.1739 12.5778H16.7271C16.6097 13.5964 16.1513 14.5451 15.4263 15.2701C14.7013 15.9952 13.7523 16.4534 12.7337 16.5708V12.5778H20.1561Z" fill="white"/>
<path fill-rule="evenodd" clip-rule="evenodd" d="M5.40234 0.799988H13.937C15.1508 0.799943 16.3154 1.27954 17.1774 2.13414C18.0394 2.98875 18.5289 4.14904 18.5393 5.36282V7.94624C18.2536 7.50975 17.923 7.10377 17.5538 6.73444V5.72758C17.5538 4.68207 17.1385 3.67945 16.3992 2.94017C15.6599 2.20089 14.6572 1.78551 13.6117 1.78551H5.72758C4.68207 1.78551 3.67939 2.20089 2.94011 2.94017C2.20083 3.67945 1.78551 4.68207 1.78551 5.72758V13.6117C1.78551 14.6572 2.20083 15.6598 2.94011 16.3991C3.67939 17.1384 4.68207 17.5538 5.72758 17.5538H6.76608C7.18966 17.93 7.65632 18.2611 8.15804 18.5393H5.40234C4.18172 18.5393 3.01109 18.0543 2.14798 17.1912C1.28487 16.3281 0.799988 15.1576 0.799988 13.937V5.40228C0.799988 4.18166 1.28487 3.01121 2.14798 2.1481C3.01109 1.28499 4.18172 0.799988 5.40234 0.799988Z" fill="white"/>
</g>
<defs>
<clipPath id="clip0_248_1093">
<rect width="20" height="20" fill="white"/>
</clipPath>
</defs>
</svg>
