<svg width="20" height="20" viewBox="0 0 20 20" fill="none" xmlns="http://www.w3.org/2000/svg">
<path fill-rule="evenodd" clip-rule="evenodd" d="M19.2476 5.43291L14.842 0.0314816L10.3617 5.3919L13.3405 5.40565C13.3239 8.99297 13.395 12.5807 7.95786 13.7514C15.0665 13.7842 16.2899 9.00666 16.3064 5.41934L19.2476 5.43291Z" fill="white"/>
<path opacity="0.6" fill-rule="evenodd" clip-rule="evenodd" d="M12.7524 1.5482L11.2586 3.27431L10 2.56659L7.4111 4.05558H10.5825L9.08176 5.78976H11.6333V6.2778H3.45555V10.4777H11.6333V11.187C11.2121 11.7628 10.647 12.2694 9.89038 12.6999H3.45555V13.6888L10.0555 17.4L12.7 15.911H8.48891V13.8269C8.90577 13.7911 9.30713 13.745 9.69321 13.6888H16.6667V9.68276C17.2633 8.57757 17.5487 7.27314 17.5487 5.78976H18.8889V15L10 20L1.11112 15V4.99999L10 0L12.7524 1.5482ZM12.4497 9.48892C12.6488 8.80672 12.7494 8.06373 12.7967 7.2667H8.43337V9.48892H12.4497Z" fill="white"/>
</svg>
