<svg width="16" height="16" viewBox="0 0 16 16" fill="none" xmlns="http://www.w3.org/2000/svg">
<g clip-path="url(#clip0_248_855)">
<path d="M16.5124 10.3607V9.49128H10.4873V6.24994C11.3141 6.3452 12.0844 6.7172 12.6729 7.30573C13.2615 7.89426 13.6336 8.66444 13.7289 9.49128H14.9034C14.803 8.35381 14.3055 7.28821 13.498 6.48077C12.6906 5.67333 11.6247 5.17584 10.4873 5.07545V3.46625H9.61813V5.07545C8.48066 5.17584 7.41478 5.67333 6.60734 6.48077C5.7999 7.28821 5.3024 8.35381 5.20201 9.49128H6.37651C6.47177 8.66444 6.84391 7.89426 7.43244 7.30573C8.02097 6.7172 8.79129 6.3452 9.61813 6.24994V9.49128H3.59296V10.3607H9.61813V13.602C8.79129 13.5068 8.02097 13.1348 7.43244 12.5462C6.84391 11.9577 6.47177 11.1875 6.37651 10.3607H5.20201C5.3024 11.4982 5.7999 12.5638 6.60734 13.3712C7.41478 14.1786 8.48066 14.6761 9.61813 14.7765V16.3857H10.4873V14.7765C11.6247 14.6761 12.6906 14.1786 13.498 13.3712C14.3055 12.5638 14.803 11.4982 14.9034 10.3607H13.7289C13.6336 11.1875 13.2615 11.9577 12.6729 12.5462C12.0844 13.1348 11.3141 13.5068 10.4873 13.602V10.3607H16.5124Z" fill="white"/>
<path fill-rule="evenodd" clip-rule="evenodd" d="M4.53597 0.799988H11.464C12.4493 0.799952 13.3947 1.18927 14.0945 1.883C14.7942 2.57673 15.1915 3.5186 15.2 4.50389V6.601C14.9681 6.24668 14.6997 5.91712 14.4 5.61732V4.79999C14.4 3.95129 14.0628 3.13741 13.4627 2.53729C12.8626 1.93718 12.0487 1.59999 11.2 1.59999H4.79999C3.95129 1.59999 3.13736 1.93718 2.53724 2.53729C1.93713 3.13741 1.59999 3.95129 1.59999 4.79999V11.2C1.59999 12.0487 1.93713 12.8626 2.53724 13.4627C3.13736 14.0628 3.95129 14.4 4.79999 14.4H5.643C5.98684 14.7054 6.36566 14.9741 6.77293 15.2H4.53597C3.54513 15.2 2.59486 14.8063 1.89423 14.1057C1.19359 13.405 0.799988 12.4549 0.799988 11.464V4.53593C0.799988 3.54508 1.19359 2.59496 1.89423 1.89432C2.59486 1.19369 3.54513 0.799988 4.53597 0.799988Z" fill="white"/>
</g>
<defs>
<clipPath id="clip0_248_855">
<rect width="16" height="16" fill="white"/>
</clipPath>
</defs>
</svg>
