<svg width="20" height="20" viewBox="0 0 20 20" fill="none" xmlns="http://www.w3.org/2000/svg">
<g clip-path="url(#clip0_210_637)">
<g clip-path="url(#clip1_210_637)">
<path d="M13 6.64592L17.752 9.31799V10.03H11.872V11.63H17.8V14.6539H11.912V16.2539H14.944L13.04 17.326L8.28796 14.6539V13.9419H14.176V12.3419H8.28796V9.31799H14.176V7.71799H11.136L13 6.64592ZM13 4.79797L6.59998 8.39797V15.598L13 19.198L19.4 15.598V8.39797L13 4.79797Z" fill="white"/>
</g>
<path fill-rule="evenodd" clip-rule="evenodd" d="M1.45995 7.05005L1.39 5.15991C1.34861 3.92472 1.76609 2.71795 2.562 1.77246C3.35791 0.826973 4.47578 0.209898 5.69994 0.0400391H8.17003C9.27348 0.201093 10.2984 0.704761 11.1 1.47998C11.574 1.97362 11.9446 2.557 12.1902 3.1958C12.1923 3.20126 12.1944 3.20672 12.1964 3.21218L11.385 3.63844C11.376 3.61329 11.3668 3.58822 11.3573 3.56323C11.1613 3.0476 10.8629 2.57695 10.48 2.17993C10.0145 1.75027 9.46757 1.41831 8.87157 1.20361C8.27557 0.988915 7.64257 0.895834 7.01 0.929932C4.21 0.929932 2.39 2.59992 2.39 5.16992L2.52 8.51001L1.74999 8.08008C1.19999 8.06008 1.19994 8.20996 1.19994 8.45996C1.16609 8.89626 1.26691 9.33244 1.48863 9.70972C1.71035 10.087 2.0423 10.3873 2.43993 10.5701L2.81004 10.6699L3.49999 12.6699C3.73427 12.9866 4.14925 13.4841 4.63715 13.9458V15.2661C3.59033 14.4768 2.78207 13.3786 2.65001 13.1899L2.57994 13.0601L2.03001 11.4299C1.45978 11.1705 0.980536 10.7458 0.654282 10.2109C0.328028 9.6761 0.169698 9.0557 0.199937 8.42993C0.187707 8.25561 0.211093 8.08057 0.26854 7.91553C0.325987 7.75049 0.416336 7.59902 0.534165 7.46997C0.651994 7.34092 0.794819 7.23698 0.953965 7.16479C1.11311 7.09261 1.28523 7.05368 1.45995 7.05005Z" fill="white"/>
<path opacity="0.5" fill-rule="evenodd" clip-rule="evenodd" d="M4.63715 12.1677V9.33747C4.60392 8.95264 4.58479 8.56653 4.57983 8.17993H4.63715V7.67993H4.57983C4.59219 6.71612 4.69266 5.75559 4.87988 4.81006C5.49186 4.57967 6.13661 4.44789 6.78992 4.41992V6.0524L7.28992 5.78974V4.41992C7.93122 4.4456 8.56383 4.57605 9.16293 4.80578L9.71245 4.5171C9.68503 4.50455 9.6575 4.49217 9.62988 4.47998C9.3503 3.08764 8.78876 1.76735 7.97986 0.600098L7.58984 0.919922C8.27703 1.9344 8.772 3.06663 9.04993 4.26001C8.47965 4.0789 7.88776 3.97459 7.28992 3.94995V0.76001H6.78992V3.94995C6.19208 3.97459 5.60018 4.0789 5.02991 4.26001C5.30784 3.06663 5.80268 1.9344 6.48987 0.919922L6.09985 0.600098C5.29096 1.76735 4.72942 3.08764 4.44983 4.47998C3.31091 4.97363 2.33378 5.77762 1.62988 6.80005L2.04993 7.07007C2.63693 6.22876 3.41922 5.54246 4.32983 5.07007C4.17255 5.93139 4.08892 6.80441 4.07983 7.67993H1.83984V8.17993H4.07983C4.08892 9.05545 4.17255 9.92871 4.32983 10.79C3.42233 10.3131 2.64102 9.62768 2.04993 8.79004L1.62988 9.05005C2.33378 10.0725 3.31091 10.8765 4.44983 11.3701C4.50144 11.6389 4.56396 11.905 4.63715 12.1677Z" fill="white"/>
</g>
<defs>
<clipPath id="clip0_210_637">
<rect width="20" height="20" fill="white"/>
</clipPath>
<clipPath id="clip1_210_637">
<rect width="16" height="16" fill="white" transform="translate(5 3.98999)"/>
</clipPath>
</defs>
</svg>
