<svg width="16" height="16" viewBox="0 0 16 16" fill="none" xmlns="http://www.w3.org/2000/svg">
<path fill-rule="evenodd" clip-rule="evenodd" d="M8 0.835999C4.56666 0.835999 2.53787 2.2688 2.53787 6.20902C2.53787 6.74632 2.38181 11.0447 2.53787 11.582H4.4106C5.03484 11.582 5.65909 12.2984 5.65909 13.0148V14.6268C6.43939 14.985 7.2197 15.1641 8 15.1641C8.7803 15.1641 9.56061 14.985 10.3409 14.6268V13.0148C10.3409 12.2984 10.9652 11.582 11.5894 11.582H13.4621C13.6182 11.0447 13.4621 6.74632 13.4621 6.20902C13.4621 2.2688 11.4333 0.835999 8 0.835999ZM5.50302 9.79104H4.09848V6.20902H7.2197V7.82092C7.2197 8.89552 6.43939 9.79104 5.50302 9.79104ZM11.9015 9.79104H10.497C9.56061 9.79104 8.7803 8.89552 8.7803 7.82092V6.20902H11.9015V9.79104ZM8.7803 11.582H7.2197L8 9.79104L8.7803 11.582Z" fill="white"/>
</svg>
