<svg width="16" height="16" viewBox="0 0 16 16" fill="none" xmlns="http://www.w3.org/2000/svg">
<g clip-path="url(#clip0_248_1008)">
<g clip-path="url(#clip1_248_1008)">
<path d="M11.7574 7.07967L15.0244 8.91672V9.40623H10.9819V10.5062H15.0574V12.5852H11.0094V13.6852H13.0939L11.7849 14.4222L8.51788 12.5852V12.0957H12.5659V10.9957H8.51788V8.91672H12.5659V7.81672H10.4759L11.7574 7.07967ZM11.7574 5.8092L7.35739 8.2842V13.2342L11.7574 15.7092L16.1574 13.2342V8.2842L11.7574 5.8092Z" fill="white"/>
</g>
<path opacity="0.5" fill-rule="evenodd" clip-rule="evenodd" d="M6.58335 1.91223C6.58335 2.96833 5.72722 3.82446 4.67112 3.82446C3.61503 3.82446 2.75889 2.96833 2.75889 1.91223C2.75889 0.856135 3.61503 0 4.67112 0C5.72722 0 6.58335 0.856135 6.58335 1.91223ZM6.79582 7.38598L6.00751 7.84952L6.12586 13.4513C6.06719 13.464 6.0069 13.4706 5.94594 13.4706C5.72054 13.4706 5.50438 13.3811 5.345 13.2217C5.18562 13.0623 5.09606 12.8461 5.09606 12.6207V9.34868H4.24618V12.6207C4.24618 12.8461 4.15663 13.0623 3.99725 13.2217C3.83786 13.3811 3.62171 13.4706 3.3963 13.4706C3.1709 13.4706 2.95474 13.3811 2.79536 13.2217C2.63598 13.0623 2.54642 12.8461 2.54642 12.6207V6.4336L1.09311 7.88691C0.971097 8.00479 0.808099 8.07064 0.638447 8.07064C0.468796 8.07064 0.305746 8.00479 0.183733 7.88691C0.0658579 7.7649 0 7.60185 0 7.4322C0 7.26255 0.0658579 7.09955 0.183733 6.97753L2.73337 4.42789C2.80558 4.35573 2.89495 4.30306 2.99305 4.27482C3.09115 4.24658 3.1948 4.24368 3.29432 4.26641H6.06494C6.16446 4.24368 6.26812 4.24658 6.36622 4.27482C6.46432 4.30306 6.55363 4.35573 6.62584 4.42789L8.55154 6.35359L7.39555 7.03333L6.79582 6.4336V7.38598Z" fill="white"/>
</g>
<defs>
<clipPath id="clip0_248_1008">
<rect width="16" height="16" fill="white"/>
</clipPath>
<clipPath id="clip1_248_1008">
<rect width="11" height="11" fill="white" transform="translate(6.25739 5.25372)"/>
</clipPath>
</defs>
</svg>
