<svg width="20" height="20" viewBox="0 0 20 20" fill="none" xmlns="http://www.w3.org/2000/svg">
<path d="M9.35999 10.3601C9.35734 10.9843 9.10752 11.5818 8.66522 12.0222C8.22292 12.4626 7.62418 12.71 7 12.71C6.37582 12.71 5.77708 12.4626 5.33478 12.0222C4.89248 11.5818 4.64266 10.9843 4.64001 10.3601C4.64001 9.7342 4.88865 9.13375 5.33124 8.69116C5.77382 8.24858 6.37409 8 7 8C7.30992 8 7.61681 8.06109 7.90314 8.17969C8.18947 8.29829 8.44962 8.47202 8.66876 8.69116C8.88791 8.91031 9.06176 9.17046 9.18036 9.45679C9.29896 9.74312 9.35999 10.0502 9.35999 10.3601V10.3601ZM10.88 18.8501C10.5964 18.946 10.2994 18.9965 10 19H4C3.20435 19 2.44127 18.6839 1.87866 18.1213C1.31605 17.5587 1 16.7956 1 16V10C1 9.20435 1.31605 8.44127 1.87866 7.87866C2.44127 7.31605 3.20435 7 4 7H10C10.6189 7.00174 11.2222 7.19492 11.7271 7.55298C12.2319 7.91104 12.6137 8.41645 12.82 9H13V8H13.6C13.2989 7.40081 12.8377 6.89673 12.2675 6.5437C11.6974 6.19067 11.0406 6.00249 10.37 6H3.63C2.66808 6.00264 1.74629 6.38598 1.0661 7.06616C0.385915 7.74635 0.00263904 8.66796 0 9.62988V16.3701C0.00263904 17.332 0.385915 18.2537 1.0661 18.9338C1.74629 19.614 2.66808 19.9974 3.63 20H10.37C10.9145 19.996 11.451 19.8694 11.94 19.6299C11.5596 19.4089 11.2042 19.1476 10.88 18.8501V18.8501ZM13.37 3H5.27002C5.09777 3.00088 4.93266 3.06901 4.81 3.18994L4 4H13C13.7956 4 14.5587 4.31605 15.1213 4.87866C15.6839 5.44127 16 6.20435 16 7V9C16.3547 9.03667 16.6965 9.15297 17 9.34009V6.62988C16.9974 5.66796 16.6141 4.74635 15.9339 4.06616C15.2537 3.38598 14.3319 3.00264 13.37 3V3ZM16.37 0H8.26001C8.09546 0.000237369 7.93754 0.0647736 7.82001 0.179932L7 1H16C16.7956 1 17.5587 1.31605 18.1213 1.87866C18.6839 2.44127 19 3.20435 19 4V11C19.3104 11.3592 19.5695 11.7596 19.77 12.1899L19.82 12.1399C19.9352 12.0224 19.9998 11.8645 20 11.7V3.59009C19.9869 2.63512 19.599 1.72358 18.9199 1.052C18.2409 0.380426 17.325 0.00253372 16.37 0V0ZM3.12 17.3501V18H10C9.45993 17.4585 9.10919 16.757 9 16H8V13.6001C7.67201 13.5239 7.3367 13.4836 7 13.48C6.48454 13.4543 5.96938 13.5367 5.48767 13.7219C5.00597 13.9072 4.56835 14.1912 4.20294 14.5557C3.83753 14.9201 3.55241 15.3572 3.36591 15.8384C3.1794 16.3196 3.09564 16.8346 3.12 17.3501V17.3501Z" fill="white"/>
<path d="M20 14.8701V14.1299H14.87V11.3701C15.574 11.4512 16.2299 11.768 16.731 12.269C17.232 12.7701 17.5489 13.4259 17.63 14.1299H18.63C18.5445 13.1614 18.1209 12.2541 17.4335 11.5667C16.746 10.8792 15.8385 10.4556 14.87 10.3701V9H14.13V10.3701C13.1615 10.4556 12.254 10.8792 11.5665 11.5667C10.8791 12.2541 10.4555 13.1614 10.37 14.1299H11.37C11.4511 13.4259 11.768 12.7701 12.269 12.269C12.7701 11.768 13.426 11.4512 14.13 11.3701V14.1299H9V14.8701H14.13V17.6299C13.426 17.5488 12.7701 17.232 12.269 16.731C11.768 16.2299 11.4511 15.5741 11.37 14.8701H10.37C10.4555 15.8386 10.8791 16.7459 11.5665 17.4333C12.254 18.1208 13.1615 18.5444 14.13 18.6299V20H14.87V18.6299C15.8385 18.5444 16.746 18.1208 17.4335 17.4333C18.1209 16.7459 18.5445 15.8386 18.63 14.8701H17.63C17.5489 15.5741 17.232 16.2299 16.731 16.731C16.2299 17.232 15.574 17.5488 14.87 17.6299V14.8701H20Z" fill="white"/>
</svg>
