<svg width="16" height="16" viewBox="0 0 16 16" fill="none" xmlns="http://www.w3.org/2000/svg">
<g clip-path="url(#clip0_264_713)">
<path fill-rule="evenodd" clip-rule="evenodd" d="M15.3981 4.3463L11.8736 0.0251612L8.28938 4.3135L10.6724 4.32449C10.6592 7.19435 10.716 10.0645 6.36629 11.0011C12.0532 11.0273 13.0319 7.2053 13.0451 4.33544L15.3981 4.3463Z" fill="white"/>
<path opacity="0.6" fill-rule="evenodd" clip-rule="evenodd" d="M10.2019 1.23856L9.00688 2.61945L8 2.05327L5.92888 3.24446H8.466L7.26541 4.63181H9.30664V5.02224H2.76444V8.38215H9.30664V8.94963C8.96971 9.4102 8.51758 9.81553 7.91231 10.1599H2.76444V10.9511L8.04444 13.92L10.16 12.7288H6.79113V11.0615C7.12462 11.0328 7.44571 10.996 7.75457 10.9511H13.3333V7.7462C13.8107 6.86205 14.039 5.81851 14.039 4.63181H15.1111V12L8 16L0.888901 12V4L8 0L10.2019 1.23856ZM9.95975 7.59114C10.119 7.04538 10.1995 6.45098 10.2374 5.81336H6.7467V7.59114H9.95975Z" fill="white"/>
</g>
<defs>
<clipPath id="clip0_264_713">
<rect width="16" height="16" fill="white"/>
</clipPath>
</defs>
</svg>
