<svg width="16" height="16" viewBox="0 0 16 16" fill="none" xmlns="http://www.w3.org/2000/svg">
<path d="M9.33841 2.92307V2.99699C9.33841 3.17238 9.33841 3.33857 9.33841 3.49549V6.75374L9.46765 6.96603L13.0215 13.0122C13.0008 13.0328 12.9764 13.0491 12.9495 13.0602C12.9225 13.0713 12.8936 13.077 12.8645 13.0769H3.15388C3.12476 13.077 3.09584 13.0713 3.06892 13.0602C3.04199 13.0491 3.01754 13.0328 2.99691 13.0122L6.55072 6.96603L6.67996 6.75374V3.49549C6.67996 3.33857 6.67996 3.17238 6.67996 2.99699V2.92307H9.33841ZM9.8369 2H6.14462C5.5077 2 5.74765 2.8678 5.74765 3.49549V6.50449L2.00004 12.8554C1.99881 13.006 2.02757 13.1554 2.08466 13.2948C2.14175 13.4342 2.22602 13.561 2.33256 13.6676C2.43909 13.7741 2.56565 13.8581 2.70507 13.9152C2.8445 13.9723 2.99398 14.0012 3.14464 14H12.8554C13.006 14.0012 13.1554 13.9723 13.2948 13.9152C13.4342 13.8581 13.5609 13.7741 13.6674 13.6676C13.774 13.561 13.8583 13.4342 13.9153 13.2948C13.9724 13.1554 14.0012 13.006 14 12.8554L10.2522 6.50449V3.49549C10.2522 2.8678 10.4923 2 9.85538 2H9.8369Z" fill="white"/>
</svg>
