<svg width="16" height="16" viewBox="0 0 16 16" fill="none" xmlns="http://www.w3.org/2000/svg">
<g clip-path="url(#clip0_248_999)">
<path d="M10.8817 6.49086L14.1487 8.32791V8.81742H10.1062V9.91742H14.1817V11.9964H10.1337V13.0964H12.2182L10.9092 13.8334L7.64221 11.9964V11.5069H11.6902V10.4069H7.64221V8.32791H11.6902V7.22791H9.60021L10.8817 6.49086ZM10.8817 5.2204L6.48172 7.6954V12.6454L10.8817 15.1204L15.2817 12.6454V7.6954L10.8817 5.2204Z" fill="white"/>
<path opacity="0.5" fill-rule="evenodd" clip-rule="evenodd" d="M9.10109 5.05494L9.15142 3.52C9.16142 1.58 7.87142 0 5.37142 0C2.87142 0 1.58142 1.58 1.58142 3.51L1.65142 5.34C1.65142 5.34 1.54142 5.28 1.45142 5.28C1.02142 5.28 0.701416 5.42 0.701416 5.94C0.701416 7.11 1.36142 7.62 1.83142 7.84L1.97142 7.88L2.44142 9.26C2.44142 9.26 3.83457 11.1987 5.0727 11.249L4.99287 7.47063L9.10109 5.05494Z" fill="white"/>
<path opacity="0.5" fill-rule="evenodd" clip-rule="evenodd" d="M5.0918 12.1538H4.46885C4.09803 12.1538 3.41949 11.5857 2.93032 11.0098C2.82775 11.207 2.7094 11.3964 2.5516 11.5384C2.19978 11.8496 1.67826 12.0564 1.14252 12.2688C0.428729 12.5519 -0.310318 12.8449 -0.706939 13.4083C-1.40125 14.3945 -1.18033 15.1204 -1.18033 15.1204H4.38995H4.92647H5.46298H7.44902L5.12801 13.8678L5.0918 12.1538ZM10.8327 15.1204H11.0333C11.0333 15.1204 11.1821 14.6314 10.8515 13.915L10.8327 15.1204Z" fill="white"/>
</g>
<defs>
<clipPath id="clip0_248_999">
<rect width="16" height="16" fill="white"/>
</clipPath>
</defs>
</svg>
