<svg width="20" height="20" viewBox="0 0 20 20" fill="none" xmlns="http://www.w3.org/2000/svg">
<path fill-rule="evenodd" clip-rule="evenodd" d="M1.25 5.78735V14.2126C1.2533 15.4151 1.73239 16.5671 2.58263 17.4173C3.43286 18.2675 4.5851 18.7467 5.78751 18.75H14.2125C15.4149 18.7467 16.5671 18.2675 17.4174 17.4173C18.2676 16.5671 18.7467 15.4151 18.75 14.2126V5.78735C18.7467 4.58495 18.2676 3.43293 17.4174 2.5827C16.5671 1.73247 15.4149 1.2533 14.2125 1.25H5.78751C4.5851 1.2533 3.43286 1.73247 2.58263 2.5827C1.73239 3.43293 1.2533 4.58495 1.25 5.78735V5.78735ZM13.75 17.5H6.25C5.25544 17.5 4.30159 17.1049 3.59833 16.4017C2.89507 15.6984 2.5 14.7446 2.5 13.75V6.25C2.5 5.25544 2.89507 4.30159 3.59833 3.59833C4.30159 2.89507 5.25544 2.5 6.25 2.5H13.75C14.7446 2.5 15.6984 2.89507 16.4017 3.59833C17.1049 4.30159 17.5 5.25544 17.5 6.25V13.75C17.5 14.7446 17.1049 15.6984 16.4017 16.4017C15.6984 17.1049 14.7446 17.5 13.75 17.5V17.5Z" fill="white"/>
<path d="M15 11.25H11.25V15H8.75V11.25H5V8.75H8.75V5H11.25V8.75H15V11.25Z" fill="white"/>
</svg>
