<svg width="16" height="16" viewBox="0 0 16 16" fill="none" xmlns="http://www.w3.org/2000/svg">
<g clip-path="url(#clip0_520_650)">
<path d="M13.2287 5.7197V8.57632C13.2228 8.68254 13.1933 8.7861 13.1423 8.87945C13.0913 8.97279 13.02 9.05356 12.9338 9.11585C12.8475 9.17814 12.7485 9.22036 12.6438 9.23946C12.5392 9.25855 12.4316 9.25402 12.3289 9.2262C11.5148 9.02624 11.172 8.61916 10.015 8.61916H9.92933C9.48577 8.68047 9.07613 8.89044 8.76739 9.21475C8.45865 9.53906 8.26907 9.95852 8.22964 10.4046V11.0759C8.27031 11.5214 8.46031 11.9402 8.76883 12.2643C9.07734 12.5884 9.48628 12.7987 9.92933 12.8612H10.015C11.172 12.8612 11.5148 12.447 12.3289 12.2471C12.4288 12.2196 12.5336 12.2141 12.6358 12.2312C12.7381 12.2482 12.8354 12.2873 12.9211 12.3458C13.0067 12.4042 13.0786 12.4806 13.1317 12.5696C13.1848 12.6586 13.2179 12.7581 13.2287 12.8612V15.7179H15.3712V5.7197H13.2287Z" fill="white"/>
<path d="M11.8004 13.8825C11.148 14.2487 10.405 14.4221 9.65794 14.3824C8.94933 14.3309 8.27962 14.0386 7.76001 13.5541C7.24039 13.0696 6.90211 12.4219 6.80132 11.7186V9.71896C6.90211 9.01567 7.24039 8.368 7.76001 7.88345C8.27962 7.39891 8.94933 7.10665 9.65794 7.05517C10.405 7.01551 11.148 7.18887 11.8004 7.55507V5.7197H5.37301V15.7179H11.8004V13.8825Z" fill="white"/>
<path fill-rule="evenodd" clip-rule="evenodd" d="M1.07932 5.089L1.14256 6.79801C0.984593 6.80129 0.828965 6.83649 0.68507 6.90176C0.541174 6.96702 0.412036 7.061 0.305498 7.17769C0.19896 7.29437 0.11727 7.43132 0.0653274 7.58055C0.0133852 7.72977 -0.00775978 7.88804 0.00329803 8.04566C-0.0240433 8.61146 0.119115 9.1724 0.414105 9.65599C0.709095 10.1396 1.14241 10.5236 1.658 10.7582L2.15523 12.2321L2.21859 12.3495C2.35563 12.5453 3.29805 13.8244 4.44759 14.5211V13.4324C3.81527 12.9334 3.24239 12.2611 2.95996 11.8793L2.33613 10.071L2.00159 9.98071C1.64207 9.81549 1.34182 9.54393 1.14135 9.2028C0.940879 8.86168 0.84983 8.46729 0.880429 8.07281V8.07272C0.880429 7.84673 0.880429 7.71125 1.37766 7.72933L2.07389 8.11806L2.06121 7.79241H3.5476C3.55581 8.58403 3.63143 9.37361 3.77364 10.1524C2.9531 9.72118 2.24655 9.10143 1.7121 8.34406L1.33242 8.57915C1.96887 9.5036 2.85236 10.2305 3.88214 10.6769C4.00434 11.3134 4.19428 11.9331 4.44759 12.5257V11.0501C4.4333 10.9921 4.41961 10.934 4.40652 10.8758C4.42019 10.8803 4.43388 10.8847 4.44759 10.8891V10.4876C4.38839 10.4673 4.32951 10.446 4.27098 10.4237C4.1017 9.56877 4.01086 8.70006 3.99968 7.82862H4.44759V7.37653H3.99968C4.01086 6.50508 4.1017 5.63659 4.27098 4.78167C4.32953 4.75963 4.3884 4.73858 4.44759 4.71855V4.69565H4.51669C4.99573 4.54037 5.49394 4.45049 5.99787 4.42892V4.69565H6.44996V4.42892C6.94841 4.44887 7.44114 4.53884 7.91375 4.69565H9.08722C8.91764 4.60491 8.74366 4.52192 8.5658 4.44702C8.34724 3.35858 7.93811 2.31883 7.35864 1.37512C7.51347 1.41205 7.66644 1.45765 7.8168 1.51182C8.35569 1.70594 8.85016 2.00609 9.27107 2.39458C9.61732 2.75355 9.88726 3.1791 10.0644 3.64532C10.1927 3.98296 10.2704 4.33685 10.2958 4.69565H11.1995C11.1705 4.22299 11.0694 3.75671 10.8988 3.3131C10.6768 2.73552 10.3417 2.20804 9.9131 1.7617C9.18831 1.06077 8.26154 0.605368 7.26383 0.459747H5.03055C3.91383 0.601002 2.88996 1.15366 2.15921 2.00982C1.42846 2.86598 1.04341 3.96395 1.07932 5.089ZM3.5476 7.34033H2.04362L2.0071 6.40217C2.49437 5.81666 3.09458 5.33283 3.77364 4.98056C3.63143 5.75935 3.55581 6.54871 3.5476 7.34033ZM3.88214 4.44702C3.16691 4.75703 2.52226 5.20239 1.98192 5.75527L1.95634 5.09805C1.95634 3.10754 3.16382 1.71414 5.10141 1.35546C4.51552 2.30439 4.10222 3.35102 3.88214 4.44702ZM4.40652 4.24813C4.65307 3.1895 5.08851 2.18409 5.69165 1.28023C5.79214 1.27289 5.89423 1.26807 5.99787 1.26583V3.96778C5.45732 3.99006 4.92215 4.08437 4.40652 4.24813ZM6.44996 3.96778V1.25901C6.55134 1.26104 6.65255 1.26666 6.75337 1.27586C7.35802 2.18085 7.79437 3.18779 8.04131 4.24813C7.52568 4.08437 6.99051 3.99006 6.44996 3.96778Z" fill="white" fill-opacity="0.5"/>
</g>
<defs>
<clipPath id="clip0_520_650">
<rect width="16" height="16" fill="white"/>
</clipPath>
</defs>
</svg>
