<svg width="20" height="20" viewBox="0 0 20 20" fill="none" xmlns="http://www.w3.org/2000/svg">
<g clip-path="url(#clip0_267_708)">
<path fill-rule="evenodd" clip-rule="evenodd" d="M12.0749 8.277L7.852 13.4059L3.60521 8.277H6.44446C6.44446 4.8577 6.52794 1.43841 1.35076 0.298645C8.12642 0.298645 9.27148 4.8577 9.27148 8.277H12.0749Z" fill="white"/>
<path opacity="0.6" fill-rule="evenodd" clip-rule="evenodd" d="M12.9208 9.48898L14.2599 8.01771H10.5843C10.5843 7.76352 10.5818 7.51308 10.5755 7.26674H17.3242V6.27783L10.7241 2.56661L9.65929 3.17905C9.27933 2.54565 8.7477 1.99043 8.00636 1.52875L10.7241 0L19.6131 5.00002V15.0001L10.7241 20.0001L1.83522 15.0001V5.00002L5.12973 3.14686C5.56801 4.00224 5.77718 5.03205 5.86352 6.27783H4.17966V8.01771H2.56597L4.17966 9.89703V10.4778H4.6783L6.58643 12.7H4.17966V13.6889L10.7797 17.4001L13.4241 15.9111H9.21304V13.6889H17.3908V9.48898H12.9208ZM12.0208 10.4778L9.99822 12.7H12.3575V10.4778H12.0208ZM10.5244 6.27783H12.3575V4.0556H10.0764C10.3269 4.73377 10.4585 5.47919 10.5244 6.27783Z" fill="white"/>
</g>
<defs>
<clipPath id="clip0_267_708">
<rect width="20" height="20" fill="white"/>
</clipPath>
</defs>
</svg>
