<svg width="16" height="16" viewBox="0 0 16 16" fill="none" xmlns="http://www.w3.org/2000/svg">
<path fill-rule="evenodd" clip-rule="evenodd" d="M0.380371 3.50323C0.389302 2.82822 0.511335 2.0863 0.785988 1.31496C0.68839 1.91135 0.610945 2.5731 0.605954 3.31213C0.605355 3.40081 0.605777 3.49064 0.607297 3.58166C0.528342 3.55519 0.45263 3.52901 0.380371 3.50323ZM0.834125 5.71822C0.663006 5.37631 0.529597 4.96354 0.452823 4.49789C0.521919 4.52031 0.592745 4.54275 0.66519 4.56516C0.701853 4.93062 0.75688 5.31421 0.834125 5.71822ZM3.0942 7.42048C2.72519 7.27878 2.38045 7.11832 2.07862 6.94685C1.8494 6.16867 1.70474 5.4686 1.62089 4.83282C1.79435 4.87671 1.97282 4.91948 2.15532 4.96062C2.37286 5.00966 2.59734 5.05665 2.82717 5.10068C2.87147 5.90883 2.95582 6.71253 3.0942 7.42048ZM5.35735 7.97449C4.94639 7.93164 4.52287 7.85208 4.10801 7.74466C3.93243 7.06911 3.81694 6.19788 3.75665 5.25663C4.2801 5.33177 4.81905 5.38716 5.35736 5.41328L5.35735 7.97449ZM7.41389 7.86182C7.00148 7.93364 6.60944 7.9809 6.27589 8L6.2759 5.42763C6.34854 5.42621 6.421 5.42415 6.49323 5.42141C6.8963 5.40615 7.28341 5.37669 7.65369 5.3361V6.67599C7.59015 7.11564 7.51046 7.51711 7.41389 7.86182ZM11.4065 4.81992C11.4321 4.69029 11.454 4.55673 11.4715 4.41986C11.3644 4.4612 11.2518 4.50314 11.1338 4.54524C11.132 4.63821 11.1296 4.72975 11.1265 4.81992H11.4065ZM10.9076 1.10349C11.3085 1.86459 11.4851 2.66086 11.5157 3.41104C11.3966 3.46161 11.2668 3.51444 11.1265 3.56842C11.1019 2.83426 11.0316 2.01894 10.8917 1.10351L10.9076 1.10349ZM8.78221 1.41392C9.18742 1.32253 9.57613 1.23486 9.97351 1.17614C10.133 2.19972 10.2019 3.09039 10.2159 3.88113C9.78556 4.01197 9.29844 4.13719 8.75902 4.24124C8.78061 3.25521 8.74923 2.27205 8.67823 1.43736L8.78221 1.41392ZM6.27591 1.79695C6.82942 1.77419 7.31947 1.70856 7.77215 1.62622C7.83696 2.44321 7.86408 3.41396 7.8365 4.38932C7.40305 4.44511 6.94313 4.48518 6.45848 4.50354C6.39784 4.50583 6.33697 4.50762 6.2759 4.50891L6.27591 1.79695ZM3.78678 1.55943C4.27614 1.66439 4.78519 1.75558 5.35738 1.79045L5.35737 4.4936C4.80752 4.46518 4.25349 4.40432 3.7152 4.3219C3.69002 3.34259 3.71962 2.37139 3.78678 1.55943ZM2.79279 4.15773C2.77411 3.16798 2.80845 2.18528 2.88228 1.35698C2.51423 1.27631 2.14185 1.2031 1.74575 1.15633C1.6284 1.8009 1.53002 2.4966 1.52447 3.31833C1.52328 3.49338 1.52642 3.67403 1.5347 3.86077C1.79294 3.93073 2.06838 3.99945 2.3573 4.06457C2.49988 4.09671 2.64521 4.12785 2.79279 4.15773Z" fill="white"/>
<path d="M11.4127 6.02455V6.08861C11.4127 6.24061 11.4127 6.38464 11.4127 6.52064V9.34447L11.5247 9.52845L14.6047 14.7685C14.5868 14.7863 14.5657 14.8005 14.5423 14.8101C14.519 14.8197 14.4939 14.8246 14.4687 14.8245H6.05277C6.02753 14.8246 6.00247 14.8197 5.97913 14.8101C5.9558 14.8005 5.93461 14.7863 5.91673 14.7685L8.99671 9.52845L9.10872 9.34447V6.52064C9.10872 6.38464 9.10872 6.24061 9.10872 6.08861V6.02455H11.4127ZM11.8448 5.22455H8.64476C8.09276 5.22455 8.30072 5.97664 8.30072 6.52064V9.12845L5.05277 14.6326C5.0517 14.7631 5.07663 14.8926 5.12611 15.0134C5.17558 15.1343 5.24862 15.2441 5.34095 15.3365C5.43328 15.4288 5.54297 15.5016 5.6638 15.5511C5.78464 15.6006 5.91419 15.6256 6.04476 15.6245H14.4608C14.5913 15.6256 14.7208 15.6006 14.8416 15.5511C14.9625 15.5016 15.0723 15.4288 15.1646 15.3365C15.2569 15.2441 15.33 15.1343 15.3794 15.0134C15.4289 14.8926 15.4538 14.7631 15.4528 14.6326L12.2047 9.12845V6.52064C12.2047 5.97664 12.4128 5.22455 11.8608 5.22455H11.8448Z" fill="white"/>
<path opacity="0.5" d="M8.6605 11.6245L7.24451 14.0245H13.1805L11.7645 11.6245H8.6605Z" fill="white"/>
</svg>
