<svg width="16" height="16" viewBox="0 0 16 16" fill="none" xmlns="http://www.w3.org/2000/svg">
<path fill-rule="evenodd" clip-rule="evenodd" d="M14.507 2.24156e-05C12.5671 3.43486 3.48832 3.20205 1.493 0C1.493 10.364 2.78452 15.872 8.29238 15.872C13.8002 15.872 14.507 9.92007 14.507 2.24156e-05ZM10.9573 6.87976C9.85356 7.07018 8.87461 6.73651 8.77074 6.13448C8.66687 5.53244 9.47743 4.89003 10.5812 4.69961C11.6849 4.50918 12.6639 4.84286 12.7677 5.44489C12.8716 6.04692 12.061 6.68933 10.9573 6.87976ZM7.21666 6.20612C7.1128 6.80815 6.13384 7.14183 5.0301 6.9514C3.92637 6.76098 3.11581 6.11856 3.21968 5.51653C3.32354 4.9145 4.3025 4.58083 5.40624 4.77125C6.50998 4.96168 7.32053 5.60409 7.21666 6.20612ZM7.98465 11.5919C6.02664 11.5919 5.13541 12.0204 4.70569 12.2617C5.31957 12.9053 6.18774 13.2363 8.10854 13.2363C9.80978 13.2363 10.3949 12.9155 11.2944 12.2435C11.2268 12.2179 11.1607 12.1925 11.0956 12.1676C10.2662 11.8493 9.59547 11.5919 7.98465 11.5919ZM9.75092 9.09743C8.41818 9.57026 7.5157 9.62296 6.24911 9.09743C7.69029 10.6899 8.32066 10.5779 9.75092 9.09743Z" fill="white"/>
</svg>
