<svg width="16" height="16" viewBox="0 0 16 16" fill="none" xmlns="http://www.w3.org/2000/svg">
<g clip-path="url(#clip0_248_951)">
<path d="M16.8508 10.6106V9.75969H10.9541V6.58747C11.7633 6.68069 12.5172 7.04476 13.0932 7.62074C13.6691 8.19672 14.0333 8.95048 14.1266 9.75969H15.276C15.1778 8.64647 14.6909 7.6036 13.9007 6.81337C13.1104 6.02315 12.0673 5.53626 10.9541 5.43801V3.86313H10.1035V5.43801C8.99027 5.53626 7.94711 6.02315 7.15689 6.81337C6.36667 7.6036 5.87978 8.64647 5.78153 9.75969H6.93098C7.02421 8.95048 7.38842 8.19672 7.9644 7.62074C8.54038 7.04476 9.29428 6.68069 10.1035 6.58747V9.75969H4.20679V10.6106H10.1035V13.7828C9.29428 13.6895 8.54038 13.3255 7.9644 12.7495C7.38842 12.1735 7.02421 11.4198 6.93098 10.6106H5.78153C5.87978 11.7238 6.36667 12.7666 7.15689 13.5569C7.94711 14.3471 8.99027 14.834 10.1035 14.9322V16.5071H10.9541V14.9322C12.0673 14.834 13.1104 14.3471 13.9007 13.5569C14.6909 12.7666 15.1778 11.7238 15.276 10.6106H14.1266C14.0333 11.4198 13.6691 12.1735 13.0932 12.7495C12.5172 13.3255 11.7633 13.6895 10.9541 13.7828V10.6106H16.8508Z" fill="white"/>
<path fill-rule="evenodd" clip-rule="evenodd" d="M6.65393 5.6H3.2C2.56348 5.6 1.95302 5.85284 1.50293 6.30293C1.05284 6.75302 0.8 7.36348 0.8 8V12.8C0.8 13.4365 1.05284 14.047 1.50293 14.4971C1.54906 14.5432 1.59688 14.5873 1.64624 14.6292V14.6386H1.65736C2.08785 14.9998 2.63361 15.2 3.2 15.2H6.62858C7.05181 15.5204 7.51853 15.7902 8.01884 16H2.904C2.13446 15.9979 1.39703 15.6912 0.852881 15.1471C0.308732 14.6029 0.00211123 13.8656 0 13.0961V7.70391C0.00211123 6.93437 0.308732 6.19708 0.852881 5.65293C1.39703 5.10878 2.13446 4.80211 2.904 4.8H8.06487C7.55715 5.00828 7.08343 5.27821 6.65393 5.6ZM16 7.26058V2.87207C15.9895 2.1081 15.6792 1.37886 15.1359 0.841602C14.5927 0.304341 13.86 0.00202698 13.096 0H6.60801C6.47637 0.000189895 6.35003 0.0518189 6.25601 0.143945L5.6 0.8H12.8C13.4365 0.8 14.047 1.05284 14.4971 1.50293C14.9472 1.95302 15.2 2.56348 15.2 3.2V6.24584C15.5018 6.5556 15.7702 6.8956 16 7.26058ZM13.5881 5.04844C13.5267 4.37268 13.2307 3.73653 12.7471 3.25293C12.203 2.70878 11.4655 2.40211 10.696 2.4H4.21602C4.07821 2.4007 3.94613 2.45521 3.848 2.55195L3.2 3.2H10.4C11.0365 3.2 11.647 3.45284 12.0971 3.90293C12.3092 4.11509 12.4776 4.36289 12.5963 4.63226C12.9411 4.74425 13.2727 4.8839 13.5881 5.04844Z" fill="white"/>
</g>
<defs>
<clipPath id="clip0_248_951">
<rect width="16" height="16" fill="white"/>
</clipPath>
</defs>
</svg>
