<svg width="16" height="16" viewBox="0 0 16 16" fill="none" xmlns="http://www.w3.org/2000/svg">
<g clip-path="url(#clip0_316_701)">
<path fill-rule="evenodd" clip-rule="evenodd" d="M15.8801 11.2026C15.8801 10.9501 16 10.6976 16 10.5713C16 10.3189 16 10.0664 15.8801 9.94011L14.322 9.68762C14.2022 9.30888 14.0823 8.93014 13.9625 8.67764L14.9213 7.28893C14.6816 6.91019 14.322 6.65769 13.9625 6.27895L12.6441 7.28893C12.2845 7.03643 11.9249 6.91018 11.5654 6.78394L11.3257 5.14273C11.2058 5.14273 10.9661 5.01648 10.7264 5.01648C10.4867 5.01648 10.247 5.01648 10.1271 5.14273L9.88742 6.78394C9.52785 6.91018 9.16829 7.03643 8.80873 7.28893L7.61018 6.27895C7.25062 6.53144 6.89105 6.91019 6.65134 7.16268L7.61018 8.5514C7.49033 8.93014 7.25062 9.18263 7.25062 9.56137L5.57265 9.81387C5.57265 10.0664 5.4528 10.3189 5.4528 10.4451C5.4528 10.6976 5.4528 10.9501 5.57265 11.0763L7.13076 11.3288C7.25062 11.7076 7.37047 12.0863 7.49033 12.3388L6.65134 13.8538C6.89105 14.2325 7.25062 14.485 7.61018 14.8637L8.92858 13.8538C9.16829 13.98 9.52785 14.1063 9.88742 14.2325L10.1271 15.8737C10.3668 15.8737 10.6065 16 10.7264 16C10.9661 16 11.2058 16 11.3257 15.8737L11.5654 14.2325C11.9249 14.1063 12.2845 13.98 12.5242 13.8538L13.8426 14.8637C14.2022 14.6113 14.4419 14.2325 14.8015 13.8538L13.8426 12.4651C14.0823 12.0863 14.2022 11.8338 14.2022 11.4551L15.8801 11.2026ZM10.7264 12.97C9.52785 12.97 8.44916 11.9601 8.44916 10.5713C8.44916 9.18263 9.52785 8.17266 10.7264 8.17266C11.9249 8.17266 13.0036 9.18263 13.0036 10.5713C13.0036 11.8338 11.9249 12.97 10.7264 12.97Z" fill="white"/>
<path opacity="0.5" fill-rule="evenodd" clip-rule="evenodd" d="M5.01451 12.8608C5.50131 14.1721 6.40728 15.2747 7.5665 16H5.85138H5.28366H4.71593H-1.17839C-1.17839 16 -1.41216 15.2319 -0.677457 14.1883C-0.257764 13.5921 0.524274 13.2821 1.27958 12.9826C1.8465 12.7578 2.39835 12.5389 2.77064 12.2096C2.93762 12.0593 3.06285 11.859 3.17138 11.6502C3.68902 12.2597 4.40702 12.8608 4.79942 12.8608H5.01451ZM4.70452 11.6942C4.64789 11.3524 4.6184 11.0013 4.6184 10.6432C4.6184 7.54454 6.82565 4.96944 9.73057 4.45085L9.75438 3.72477C9.76496 1.67191 8.39992 0 5.75449 0C3.10906 0 1.74402 1.67191 1.74402 3.71418L1.81809 5.65064C1.81809 5.65064 1.70169 5.58715 1.60645 5.58715C1.15144 5.58715 0.812825 5.73529 0.812825 6.28554C0.812825 7.5236 1.51122 8.06327 2.00856 8.29607L2.1567 8.3384L2.65404 9.79867C2.65404 9.79867 3.63308 11.1611 4.70452 11.6942Z" fill="white"/>
</g>
<defs>
<clipPath id="clip0_316_701">
<rect width="16" height="16" fill="white"/>
</clipPath>
</defs>
</svg>
