<svg width="20" height="20" viewBox="0 0 20 20" fill="none" xmlns="http://www.w3.org/2000/svg">
<g clip-path="url(#clip0_457_687)">
<path fill-rule="evenodd" clip-rule="evenodd" d="M18.4463 11.7812C18.4722 13.1671 17.9451 14.5091 16.975 15.5267C16.0168 16.5541 14.6861 17.1822 13.2614 17.2796C16.0451 16.5145 16.822 14.3562 16.822 11.7812H15.2212L17.6106 9.02911L20 11.7812H18.4463Z" fill="white"/>
<path opacity="0.5" fill-rule="evenodd" clip-rule="evenodd" d="M18.8798 12.9828C18.8894 12.8108 18.8917 12.6362 18.8879 12.4591H19.1974L19.3277 12.8378L18.8798 12.9828ZM15.003 15.5738C14.3526 16.673 13.2552 17.3289 11.7065 17.5368C15.3843 17.5368 16.2652 17.0553 17.5532 15.89C17.667 15.7871 17.772 15.6816 17.8689 15.5738H19.5414V20H11.3292V15.5738H15.003ZM15.5663 14.0559L11.3292 15.428L10.8676 14.0862L15.7142 12.5168C15.711 13.0755 15.6618 13.5886 15.5663 14.0559ZM18.8198 11.5111L18.896 11.5832L18.866 11.4961L18.8198 11.5111Z" fill="white"/>
<path opacity="0.5" d="M13.886 6.94315C13.886 7.35973 13.6083 7.63745 13.1917 7.63745H10.4145C10.1368 7.63745 9.85908 7.49859 9.72021 7.35973L9.16477 6.24885L9.58135 5.55455C9.85908 4.99911 9.58135 4.30481 9.58135 4.30481L10.6922 6.24885H13.1917C13.6083 6.24885 13.886 6.66543 13.886 6.94315ZM4.86011 9.02606C4.44353 8.8872 4.30467 8.47062 4.16581 8.1929L3.05492 9.85922H0.694301C0.27772 9.85922 0 10.1369 0 10.5535C0 10.9701 0.27772 11.2478 0.694301 11.2478H3.47151C3.74923 11.2478 4.02695 11.109 4.16581 10.8312L5.13783 9.16492L4.86011 9.02606Z" fill="white"/>
<path fill-rule="evenodd" clip-rule="evenodd" d="M2.49934 4.99897C2.22162 4.72125 2.22162 4.30467 2.49934 4.02695L4.30453 1.94404C4.58225 1.66632 4.85997 1.52746 5.27655 1.66632L7.77603 2.91606H7.91489L8.19261 3.05492L9.3035 3.61037C9.44236 4.02695 9.58122 4.58239 9.3035 5.13783L8.88691 5.83213L7.35945 8.33161L9.16463 9.30363C9.44236 9.58136 9.58122 9.72022 9.58122 9.99794V12.7751C9.58122 13.1917 9.3035 13.4694 8.88691 13.4694C8.47033 13.3306 8.19261 13.0529 8.19261 12.6363V10.2757L5.41541 8.74819H5.27655C4.72111 8.47047 4.58225 7.91503 4.58225 7.35959L6.52629 4.02695L4.99883 3.19379L3.47137 4.99897C3.19365 5.27669 2.77706 5.27669 2.49934 4.99897ZM10.4144 0C9.44236 0 8.60919 0.833161 8.60919 1.80518C8.60919 2.7772 9.44236 3.61037 10.4144 3.61037C11.3864 3.61037 12.2196 2.7772 12.2196 1.80518C12.2196 0.833161 11.3864 0 10.4144 0Z" fill="white"/>
</g>
<defs>
<clipPath id="clip0_457_687">
<rect width="20" height="20" fill="white"/>
</clipPath>
</defs>
</svg>
