<svg width="20" height="20" viewBox="0 0 20 20" fill="none" xmlns="http://www.w3.org/2000/svg">
<g clip-path="url(#clip0_164_6910)">
<path d="M13.0355 6.63257L7.09802 12.5701" stroke="white" stroke-width="2" stroke-miterlimit="10" stroke-linecap="round"/>
<path d="M7.09802 6.63257L13.0355 12.5701" stroke="white" stroke-width="2" stroke-miterlimit="10" stroke-linecap="round"/>
<path d="M10.0668 2.47632C11.476 2.47632 12.8535 2.89418 14.0252 3.67708C15.1969 4.45999 16.1101 5.5728 16.6494 6.87472C17.1887 8.17665 17.3298 9.60921 17.0549 10.9913C16.78 12.3734 16.1014 13.643 15.1049 14.6394C14.1085 15.6359 12.8389 16.3145 11.4568 16.5894C10.0747 16.8643 8.64208 16.7232 7.34015 16.184C6.03823 15.6447 4.92545 14.7315 4.14255 13.5598C3.35964 12.3881 2.94179 11.0105 2.94179 9.60132C2.94179 7.71165 3.69245 5.89941 5.02864 4.56321C6.36484 3.22702 8.17712 2.47632 10.0668 2.47632ZM10.0668 0.695068C8.3053 0.695068 6.58336 1.21741 5.11874 2.19604C3.65411 3.17467 2.51256 4.56565 1.83847 6.19305C1.16438 7.82046 0.988009 9.61122 1.33166 11.3389C1.67531 13.0665 2.52354 14.6534 3.7691 15.899C5.01466 17.1445 6.60163 17.9928 8.32928 18.3364C10.0569 18.6801 11.8476 18.5037 13.4751 17.8296C15.1025 17.1555 16.4934 16.014 17.4721 14.5493C18.4507 13.0847 18.973 11.3628 18.973 9.60132C18.973 7.23923 18.0347 4.97391 16.3645 3.30367C14.6942 1.63342 12.4289 0.695068 10.0668 0.695068Z" fill="white"/>
</g>
<defs>
<clipPath id="clip0_164_6910">
<rect width="19" height="19" fill="white" transform="translate(0.566772 0.101318)"/>
</clipPath>
</defs>
</svg>
