<svg width="16" height="16" viewBox="0 0 16 16" fill="none" xmlns="http://www.w3.org/2000/svg">
<g clip-path="url(#clip0_267_743)">
<path fill-rule="evenodd" clip-rule="evenodd" d="M10.0804 4.83331C7.27075 4.83331 5.03741 7.06665 5.03741 9.87633C5.03741 12.686 7.27075 14.9194 10.0804 14.9194C12.8901 14.9194 15.1235 12.686 15.1235 9.87633C15.1235 7.06665 12.8901 4.83331 10.0804 4.83331ZM11.4493 9.80429C11.4493 8.93977 12.1697 8.29138 12.9622 8.29138C13.8267 8.29138 14.4751 9.01182 14.4751 9.80429C14.4751 10.6688 13.7546 11.3172 12.9622 11.3172C12.1697 11.3892 11.4493 10.6688 11.4493 9.80429ZM10.0804 8.50751C9.21592 8.50751 8.56753 7.78708 8.56753 6.99461C8.56753 6.13009 9.28796 5.4817 10.0804 5.4817C10.945 5.4817 11.5933 6.20213 11.5933 6.99461C11.5933 7.78708 10.8729 8.50751 10.0804 8.50751ZM7.12667 11.4613C6.26215 11.4613 5.61376 10.7409 5.61376 9.94838C5.61376 9.08386 6.33419 8.43547 7.12667 8.43547C7.99118 8.43547 8.63957 9.1559 8.63957 9.94838C8.71161 10.7409 7.99118 11.4613 7.12667 11.4613ZM10.0804 9.29999C9.79226 9.29999 9.50409 9.51612 9.50409 9.87633C9.50409 10.1645 9.72022 10.4527 10.0804 10.4527C10.3686 10.4527 10.6568 10.2365 10.6568 9.87633C10.6568 9.58816 10.3686 9.29999 10.0804 9.29999ZM10.1525 11.2452C11.017 11.2452 11.6654 11.9656 11.6654 12.7581C11.6654 13.6226 10.945 14.271 10.1525 14.271C9.28796 14.271 8.63957 13.5505 8.63957 12.7581C8.56753 11.9656 9.28796 11.2452 10.1525 11.2452Z" fill="white"/>
<path d="M10.4407 16H16.2041L15.6278 15.5677L12.6019 15.2796L10.4407 16Z" fill="white"/>
<path opacity="0.5" fill-rule="evenodd" clip-rule="evenodd" d="M4.39219 12.1467C4.87934 13.3911 5.75764 14.4346 6.87297 15.1204H5.46298H4.92647H4.38995H-1.18033C-1.18033 15.1204 -1.40125 14.3945 -0.706939 13.4083C-0.310318 12.8449 0.428729 12.5519 1.14252 12.2688C1.67826 12.0564 2.19978 11.8496 2.5516 11.5384C2.7094 11.3964 2.82775 11.207 2.93032 11.0098C3.38746 11.548 4.00998 12.0794 4.39219 12.1467ZM4.04339 10.8554C3.99434 10.5413 3.96886 10.2192 3.96886 9.89111C3.96886 6.80801 6.21794 4.25836 9.14086 3.84182L9.15142 3.52C9.16142 1.58 7.87142 0 5.37142 0C2.87142 0 1.58142 1.58 1.58142 3.51L1.65142 5.34C1.65142 5.34 1.54142 5.28 1.45142 5.28C1.02142 5.28 0.701416 5.42 0.701416 5.94C0.701416 7.11 1.36142 7.62 1.83142 7.84L1.97142 7.88L2.44142 9.26C2.44142 9.26 3.17097 10.2753 4.04339 10.8554Z" fill="white"/>
</g>
<defs>
<clipPath id="clip0_267_743">
<rect width="16" height="16" fill="white"/>
</clipPath>
</defs>
</svg>
