<svg width="20" height="20" viewBox="0 0 20 20" fill="none" xmlns="http://www.w3.org/2000/svg">
<g clip-path="url(#clip0_248_1079)">
<path fill-rule="evenodd" clip-rule="evenodd" d="M20.2197 14.4539C20.2197 14.1383 20.3695 13.8226 20.3695 13.6648C20.3695 13.3492 20.3695 13.0336 20.2197 12.8758L18.272 12.5602C18.1222 12.0868 17.9724 11.6133 17.8226 11.2977L19.0211 9.56181C18.7215 9.08838 18.272 8.77277 17.8226 8.29934L16.1746 9.56181C15.7251 9.24619 15.2757 9.08838 14.8262 8.93058L14.5266 6.87906C14.3768 6.87906 14.0771 6.72125 13.7775 6.72125C13.4779 6.72125 13.1782 6.72125 13.0284 6.87906L12.7288 8.93058C12.2793 9.08838 11.8299 9.24619 11.3804 9.56181L9.88221 8.29934C9.43276 8.61496 8.9833 9.08838 8.68367 9.404L9.88221 11.1399C9.7324 11.6133 9.43276 11.9289 9.43276 12.4024L7.3353 12.718C7.3353 13.0336 7.18549 13.3492 7.18549 13.507C7.18549 13.8226 7.18549 14.1383 7.3353 14.2961L9.28294 14.6117C9.43276 15.0851 9.58258 15.5585 9.7324 15.8742L8.68367 17.7679C8.9833 18.2413 9.43276 18.5569 9.88221 19.0303L11.5302 17.7679C11.8299 17.9257 12.2793 18.0835 12.7288 18.2413L13.0284 20.2928C13.328 20.2928 13.6277 20.4506 13.7775 20.4506C14.0771 20.4506 14.3768 20.4506 14.5266 20.2928L14.8262 18.2413C15.2757 18.0835 15.7251 17.9257 16.0248 17.7679L17.6728 19.0303C18.1222 18.7147 18.4219 18.2413 18.8713 17.7679L17.6728 16.032C17.9724 15.5585 18.1222 15.2429 18.1222 14.7695L20.2197 14.4539ZM13.7775 16.6632C12.2793 16.6632 10.9309 15.4007 10.9309 13.6648C10.9309 11.9289 12.2793 10.6665 13.7775 10.6665C15.2757 10.6665 16.624 11.9289 16.624 13.6648C16.624 15.2429 15.2757 16.6632 13.7775 16.6632Z" fill="white"/>
<path fill-rule="evenodd" clip-rule="evenodd" d="M9.35029 7H4C3.20435 7 2.44127 7.31605 1.87866 7.87866C1.31605 8.44127 1 9.20435 1 10V16C1 16.7957 1.31605 17.5587 1.87866 18.1213C2.44127 18.6839 3.20435 19 4 19H7.9069C8.26715 19.3691 8.66384 19.7042 9.09136 20H3.63C2.66808 19.9974 1.74629 19.614 1.0661 18.9338C0.385915 18.2537 0.00263904 17.332 0 16.3701V9.62988C0.00263904 8.66796 0.385915 7.74635 1.0661 7.06616C1.74629 6.38598 2.66808 6.00264 3.63 6H10.37C10.6675 6.0011 10.9623 6.03876 11.2481 6.11116C10.5717 6.32736 9.93474 6.6279 9.35029 7ZM15.8182 5.97152C15.6697 5.56464 15.4335 5.1908 15.1213 4.87866C14.5587 4.31605 13.7957 4 13 4H4L4.81 3.18994C4.93266 3.06901 5.09777 3.00088 5.27002 3H13.37C14.3319 3.00264 15.2537 3.38598 15.9339 4.06616C16.551 4.68325 16.9237 5.49905 16.9895 6.36338C16.613 6.20492 16.2217 6.07346 15.8182 5.97152ZM19 7.57694V4C19 3.20435 18.6839 2.44127 18.1213 1.87866C17.5587 1.31605 16.7957 1 16 1H7L7.82001 0.179932C7.93754 0.0647736 8.09546 0.000237369 8.26001 0H16.37C17.3251 0.00253372 18.2409 0.380426 18.9199 1.052C19.599 1.72358 19.9869 2.63512 20 3.59009V8.55695C19.6967 8.20262 19.362 7.8746 19 7.57694Z" fill="white"/>
</g>
<defs>
<clipPath id="clip0_248_1079">
<rect width="20" height="20" fill="white"/>
</clipPath>
</defs>
</svg>
