<svg width="20" height="20" viewBox="0 0 20 20" fill="none" xmlns="http://www.w3.org/2000/svg">
<g clip-path="url(#clip0_504_8546)">
<path fill-rule="evenodd" clip-rule="evenodd" d="M18.3166 4.1551C18.3429 5.6062 17.8074 7.01134 16.822 8.07686C15.8486 9.15264 14.4969 9.81029 13.0497 9.91219C15.8774 9.1111 16.6665 6.85131 16.6665 4.1551H15.0405L17.4677 1.27356L19.8948 4.1551H18.3166Z" fill="white"/>
<path opacity="0.5" d="M15.8121 10.6573H13.0051L11.6841 8.42811C11.6841 8.34555 11.9318 9.25372 11.6841 9.83165L11.1887 10.6573L11.8492 11.8131C12.0143 12.0608 12.262 12.2259 12.6748 12.2259H15.8121C16.225 12.2259 16.5552 11.8957 16.5552 11.4829C16.6378 10.9875 16.3075 10.6573 15.8121 10.6573Z" fill="white"/>
<path opacity="0.5" d="M6.23497 13.7946C5.82216 13.5469 5.57448 13.2166 5.40936 12.8038L4.17094 14.7027H1.44642C1.03361 14.7027 0.703369 15.033 0.703369 15.4458C0.703369 15.8586 1.03361 16.1888 1.44642 16.1888H4.58374C4.91399 16.1888 5.16167 16.1063 5.32679 15.776L6.48265 13.7946H6.23497Z" fill="white"/>
<path fill-rule="evenodd" clip-rule="evenodd" d="M10.6933 4.63041C10.1154 5.62114 10.4456 6.85956 11.4364 7.43748C12.4271 8.01541 13.6655 7.68517 14.2434 6.69443C14.8214 5.7037 14.4911 4.46528 13.5004 3.88736C12.5922 3.22687 11.2712 3.63967 10.6933 4.63041Z" fill="white"/>
<path fill-rule="evenodd" clip-rule="evenodd" d="M4.66639 9.08856L6.48274 7.10709L8.21652 8.01527L5.98737 11.8131C5.90481 12.391 6.15249 13.0515 6.73042 13.3817L6.89554 13.4643L10.1154 15.2806V18.0052C10.1154 18.418 10.4457 18.7482 10.8585 18.7482C11.2713 18.7482 11.6015 18.418 11.6015 18.0052V14.8678C11.6015 14.6202 11.519 14.455 11.3538 14.2899C11.3538 14.2899 11.2713 14.2899 11.2713 14.2074C11.2713 14.2074 11.1887 14.2074 11.1887 14.1248L9.20726 12.9689L10.8585 10.0793L11.2713 9.25368C11.519 8.75832 11.4364 8.09783 11.1062 7.85014L9.86775 7.10709L9.62006 6.94197C9.5375 6.94197 9.45494 6.85941 9.45494 6.85941L6.64786 5.45587C6.23505 5.29075 5.82225 5.45587 5.57457 5.70355L3.51054 8.01527C3.26285 8.34551 3.26285 8.84088 3.5931 9.08856C3.92334 9.41881 4.41871 9.41881 4.66639 9.08856Z" fill="white"/>
</g>
<defs>
<clipPath id="clip0_504_8546">
<rect width="19" height="20" fill="white" transform="translate(0.703369)"/>
</clipPath>
</defs>
</svg>
