<svg width="16" height="16" viewBox="0 0 16 16" fill="none" xmlns="http://www.w3.org/2000/svg">
<path d="M3.34572 3.15332H2.95155V7.88331H3.34572V3.15332Z" fill="white"/>
<path d="M13.9173 2.68033L8.83252 1.53725L13.7911 0L7.87864 1.1825L1.96616 0L6.92476 1.53725L1.84003 2.68033L2.09229 3.62632L7.87864 1.97083L13.665 3.62632L13.9173 2.68033Z" fill="white"/>
<path d="M12.8057 3.15332H12.4115V7.88331H12.8057V3.15332Z" fill="white"/>
<path fill-rule="evenodd" clip-rule="evenodd" d="M13.4285 7.88331C13.4285 8.09239 13.3454 8.2929 13.1976 8.44074C13.0498 8.58858 12.8492 8.67164 12.6402 8.67164H9.84948V14.9783C9.84948 15.1874 9.76642 15.3879 9.61858 15.5357C9.47074 15.6836 9.27022 15.7666 9.06115 15.7666C8.85207 15.7666 8.65155 15.6836 8.50371 15.5357C8.35587 15.3879 8.27281 15.1874 8.27281 14.9783V11.825H7.48448V14.9783C7.48448 15.1874 7.40143 15.3879 7.25359 15.5357C7.10575 15.6836 6.90523 15.7666 6.69615 15.7666C6.48707 15.7666 6.28656 15.6836 6.13872 15.5357C5.99088 15.3879 5.90782 15.1874 5.90782 14.9783V8.67164H2.97523C2.76615 8.67164 2.56563 8.58858 2.41779 8.44074C2.26995 8.2929 2.1869 8.09239 2.1869 7.88331C2.1869 7.67423 2.26995 7.47371 2.41779 7.32587C2.56563 7.17803 2.76615 7.09498 2.97523 7.09498H12.6402C12.8492 7.09498 13.0498 7.17803 13.1976 7.32587C13.3454 7.47371 13.4285 7.67423 13.4285 7.88331ZM7.91018 6.70081C8.22202 6.70081 8.52685 6.60834 8.78613 6.4351C9.04541 6.26185 9.24749 6.01561 9.36683 5.72751C9.48616 5.43941 9.51739 5.1224 9.45655 4.81656C9.39571 4.51071 9.24555 4.22978 9.02505 4.00928C8.80455 3.78878 8.52362 3.63862 8.21777 3.57778C7.91193 3.51695 7.59492 3.54817 7.30682 3.6675C7.01872 3.78684 6.77248 3.98892 6.59924 4.2482C6.42599 4.50748 6.33352 4.81231 6.33352 5.12415C6.33344 5.5369 6.49521 5.93322 6.78411 6.22802C7.07301 6.52281 7.46598 6.69256 7.87865 6.70081H7.91018Z" fill="white"/>
</svg>
