<svg width="16" height="16" viewBox="0 0 16 16" fill="none" xmlns="http://www.w3.org/2000/svg">
<g clip-path="url(#clip0_248_929)">
<path fill-rule="evenodd" clip-rule="evenodd" d="M16.1757 11.5631C16.1757 11.3106 16.2956 11.0581 16.2956 10.9319C16.2956 10.6794 16.2956 10.4269 16.1757 10.3006L14.6176 10.0482C14.4977 9.66941 14.3779 9.29067 14.258 9.03818L15.2169 7.64946C14.9772 7.27072 14.6176 7.01823 14.258 6.63948L12.9396 7.64946C12.5801 7.39697 12.2205 7.27072 11.8609 7.14447L11.6212 5.50326C11.5014 5.50326 11.2617 5.37701 11.022 5.37701C10.7822 5.37701 10.5425 5.37701 10.4227 5.50326L10.183 7.14447C9.82341 7.27072 9.46384 7.39697 9.10428 7.64946L7.90573 6.63948C7.54617 6.89198 7.18661 7.27072 6.9469 7.52321L7.90573 8.91193C7.78588 9.29067 7.54617 9.54317 7.54617 9.92191L5.86821 10.1744C5.86821 10.4269 5.74835 10.6794 5.74835 10.8056C5.74835 11.0581 5.74835 11.3106 5.86821 11.4369L7.42632 11.6894C7.54617 12.0681 7.66603 12.4468 7.78588 12.6993L6.9469 14.2143C7.18661 14.593 7.54617 14.8455 7.90573 15.2243L9.22414 14.2143C9.46384 14.3406 9.82341 14.4668 10.183 14.593L10.4227 16.2343C10.6624 16.2343 10.9021 16.3605 11.022 16.3605C11.2617 16.3605 11.5014 16.3605 11.6212 16.2343L11.8609 14.593C12.2205 14.4668 12.5801 14.3406 12.8198 14.2143L14.1382 15.2243C14.4977 14.9718 14.7374 14.593 15.097 14.2143L14.1382 12.8256C14.3779 12.4468 14.4977 12.1944 14.4977 11.8156L16.1757 11.5631ZM11.022 13.3306C9.82341 13.3306 8.74472 12.3206 8.74472 10.9319C8.74472 9.54317 9.82341 8.53319 11.022 8.53319C12.2205 8.53319 13.2992 9.54317 13.2992 10.9319C13.2992 12.1944 12.2205 13.3306 11.022 13.3306Z" fill="white"/>
<path fill-rule="evenodd" clip-rule="evenodd" d="M7.48023 5.6H3.2C2.56348 5.6 1.95302 5.85284 1.50293 6.30293C1.05284 6.75302 0.8 7.36348 0.8 8V12.8C0.8 13.4365 1.05284 14.047 1.50293 14.4971C1.54906 14.5432 1.59688 14.5873 1.64624 14.6292V14.6386H1.65736C2.08785 14.9998 2.63361 15.2 3.2 15.2H6.32552C6.61372 15.4953 6.93107 15.7634 7.27309 16H2.904C2.13446 15.9979 1.39703 15.6912 0.852881 15.1471C0.308732 14.6029 0.00211123 13.8656 0 13.0961V7.70391C0.00211123 6.93437 0.308732 6.19708 0.852881 5.65293C1.39703 5.10878 2.13446 4.80211 2.904 4.8H8.296C8.53402 4.80088 8.76987 4.83101 8.99846 4.88893C8.45738 5.06189 7.94779 5.30232 7.48023 5.6ZM12.6546 4.77722C12.5358 4.45171 12.3468 4.15264 12.0971 3.90293C11.647 3.45284 11.0365 3.2 10.4 3.2H3.2L3.848 2.55195C3.94613 2.45521 4.07821 2.4007 4.21602 2.4H10.696C11.4655 2.40211 12.203 2.70878 12.7471 3.25293C13.2408 3.7466 13.539 4.39924 13.5916 5.09071C13.2904 4.96393 12.9774 4.85877 12.6546 4.77722ZM15.2 6.06155V3.2C15.2 2.56348 14.9472 1.95302 14.4971 1.50293C14.047 1.05284 13.4365 0.8 12.8 0.8H5.6L6.25601 0.143945C6.35003 0.0518189 6.47637 0.000189895 6.60801 0H13.096C13.86 0.00202698 14.5927 0.304341 15.1359 0.841602C15.6792 1.37886 15.9895 2.1081 16 2.87207V6.84556C15.7574 6.56209 15.4896 6.29968 15.2 6.06155Z" fill="white"/>
</g>
<defs>
<clipPath id="clip0_248_929">
<rect width="16" height="16" fill="white"/>
</clipPath>
</defs>
</svg>
