<svg width="16" height="16" viewBox="0 0 16 16" fill="none" xmlns="http://www.w3.org/2000/svg">
<path fill-rule="evenodd" clip-rule="evenodd" d="M14.5474 7.2457C14.5699 8.45215 14.111 9.62039 13.2666 10.5063C12.4324 11.4007 11.274 11.9474 10.0338 12.0322C12.4571 11.3661 13.1334 9.48734 13.1334 7.2457H11.7399L13.8199 4.84998L15.8999 7.2457H14.5474Z" fill="white"/>
<path opacity="0.5" fill-rule="evenodd" clip-rule="evenodd" d="M14.9247 8.29175C14.9331 8.14198 14.9351 7.98994 14.9318 7.83584H15.2012L15.3146 8.16549L14.9247 8.29175ZM11.5499 10.5472C10.9837 11.5041 10.0285 12.0751 8.68021 12.256C11.8818 12.256 12.6487 11.8369 13.7699 10.8225C13.869 10.7329 13.9604 10.6411 14.0448 10.5472H15.5007V14.4003H8.35181V10.5472H11.5499ZM12.0403 9.22582L8.3518 10.4203L7.94995 9.25228L12.169 7.88602C12.1662 8.37242 12.1234 8.81906 12.0403 9.22582ZM14.8725 7.01054L14.9389 7.07334L14.9128 6.9975L14.8725 7.01054Z" fill="white"/>
<path opacity="0.5" d="M10 5.0001C10 5.3001 9.8 5.5001 9.5 5.5001H7.5C7.3 5.5001 7.1 5.4001 7 5.3001L6.6 4.5001L6.9 4.0001C7.1 3.6001 6.9 3.1001 6.9 3.1001L7.7 4.5001H9.5C9.8 4.5001 10 4.8001 10 5.0001ZM3.5 6.5001C3.2 6.4001 3.1 6.1001 3 5.9001L2.2 7.1001H0.5C0.2 7.1001 0 7.3001 0 7.6001C0 7.9001 0.2 8.1001 0.5 8.1001H2.5C2.7 8.1001 2.9 8.0001 3 7.8001L3.7 6.6001L3.5 6.5001Z" fill="white"/>
<path fill-rule="evenodd" clip-rule="evenodd" d="M1.7999 3.6C1.5999 3.4 1.5999 3.1 1.7999 2.9L3.0999 1.4C3.2999 1.2 3.4999 1.1 3.7999 1.2L5.5999 2.1H5.6999L5.8999 2.2L6.6999 2.6C6.7999 2.9 6.8999 3.3 6.6999 3.7L6.3999 4.2L5.2999 6L6.5999 6.7C6.7999 6.9 6.8999 7 6.8999 7.2V9.2C6.8999 9.5 6.6999 9.7 6.3999 9.7C6.0999 9.6 5.8999 9.4 5.8999 9.1V7.4L3.8999 6.3H3.7999C3.3999 6.1 3.2999 5.7 3.2999 5.3L4.6999 2.9L3.5999 2.3L2.4999 3.6C2.2999 3.8 1.9999 3.8 1.7999 3.6ZM7.4999 0C6.7999 0 6.1999 0.6 6.1999 1.3C6.1999 2 6.7999 2.6 7.4999 2.6C8.1999 2.6 8.7999 2 8.7999 1.3C8.7999 0.6 8.1999 0 7.4999 0Z" fill="white"/>
</svg>
