<svg width="16" height="16" viewBox="0 0 16 16" fill="none" xmlns="http://www.w3.org/2000/svg">
<path d="M8.76758 7.67725H6.42529L6.4126 6.69336H8.53906C8.8903 6.69336 9.1971 6.63411 9.45947 6.51562C9.72184 6.39714 9.92497 6.22786 10.0688 6.00781C10.217 5.78353 10.291 5.51693 10.291 5.20801C10.291 4.86947 10.2254 4.5944 10.0942 4.38281C9.96729 4.16699 9.77051 4.01042 9.50391 3.91309C9.24154 3.81152 8.90723 3.76074 8.50098 3.76074H6.69824V12H5.47314V2.75781H8.50098C8.97493 2.75781 9.39811 2.80648 9.77051 2.90381C10.1429 2.99691 10.4582 3.14502 10.7163 3.34814C10.9787 3.54704 11.1776 3.80094 11.313 4.10986C11.4484 4.41878 11.5161 4.78906 11.5161 5.2207C11.5161 5.60156 11.4188 5.94645 11.2241 6.25537C11.0295 6.56006 10.7586 6.80973 10.4116 7.00439C10.0688 7.19906 9.66683 7.32389 9.20557 7.37891L8.76758 7.67725ZM8.71045 12H5.94287L6.63477 11.0034H8.71045C9.09977 11.0034 9.42985 10.9357 9.70068 10.8003C9.97575 10.6649 10.1852 10.4744 10.3291 10.229C10.473 9.97933 10.5449 9.68522 10.5449 9.34668C10.5449 9.00391 10.4836 8.70768 10.3608 8.45801C10.2381 8.20833 10.0456 8.01579 9.7832 7.88037C9.52083 7.74495 9.18229 7.67725 8.76758 7.67725H7.02197L7.03467 6.69336H9.42139L9.68164 7.04883C10.126 7.08691 10.5026 7.21387 10.8115 7.42969C11.1204 7.64128 11.3553 7.91211 11.5161 8.24219C11.6812 8.57227 11.7637 8.9362 11.7637 9.33398C11.7637 9.90951 11.6367 10.3962 11.3828 10.7939C11.1331 11.1875 10.7798 11.488 10.3228 11.6953C9.86572 11.8984 9.32829 12 8.71045 12Z" fill="white"/>
</svg>
