<svg width="16" height="16" viewBox="0 0 16 16" fill="none" xmlns="http://www.w3.org/2000/svg">
<g clip-path="url(#clip0_267_786)">
<path d="M3.48508 3.09924C2.95932 3.1538 2.45194 3.32196 1.99864 3.59187C1.54535 3.86179 1.15713 4.22691 0.861206 4.66162C1.15713 5.09634 1.54535 5.46146 1.99864 5.73137C2.45194 6.00129 2.95932 6.16945 3.48508 6.224C4.01084 6.16945 4.51822 6.00129 4.97151 5.73137C5.42481 5.46146 5.81303 5.09634 6.10895 4.66162C5.81303 4.22691 5.42481 3.86179 4.97151 3.59187C4.51822 3.32196 4.01084 3.1538 3.48508 3.09924Z" stroke="white" stroke-miterlimit="10"/>
<path d="M12.2136 3.09924C11.6878 3.1538 11.1805 3.32196 10.7272 3.59187C10.2739 3.86179 9.88566 4.22691 9.58974 4.66162C9.88566 5.09634 10.2739 5.46146 10.7272 5.73137C11.1805 6.00129 11.6878 6.16945 12.2136 6.224C12.7394 6.16945 13.2467 6.00129 13.7 5.73137C14.1533 5.46146 14.5416 5.09634 14.8375 4.66162C14.5416 4.22691 14.1533 3.86179 13.7 3.59187C13.2467 3.32196 12.7394 3.1538 12.2136 3.09924V3.09924Z" stroke="white" stroke-miterlimit="10"/>
<path d="M15.3621 1.70546C14.5959 1.07694 13.5708 0.557782 12.2975 0.557739C10.6977 0.557739 9.76588 0.94031 8.99973 1.48684" stroke="white" stroke-miterlimit="10"/>
<path d="M0.299922 1.70546C1.06607 1.07694 2.09118 0.557782 3.3645 0.557739C4.96432 0.557739 5.89611 0.94031 6.66226 1.48684" stroke="white" stroke-miterlimit="10"/>
<path d="M7.64903 12.3872C6.09008 12.3802 4.56092 12.6887 3.24255 13.2762C3.75294 13.7787 4.41074 14.1977 5.17115 14.5045C5.93157 14.8113 6.77673 14.9988 7.64903 15.0541C8.52132 14.9988 9.36648 14.8113 10.1269 14.5045C10.8873 14.1977 11.5451 13.7787 12.0555 13.2762C10.7371 12.6887 9.20797 12.3802 7.64903 12.3872Z" stroke="white" stroke-miterlimit="10"/>
<path d="M9.2653 9.25189C9.0944 9.51494 8.86153 9.73209 8.58724 9.88429C8.31294 10.0365 8.00557 10.1191 7.69193 10.1249C7.37665 10.1206 7.06721 10.0388 6.79112 9.88651C6.51502 9.73424 6.28076 9.51627 6.10895 9.25189" stroke="white" stroke-miterlimit="10"/>
</g>
<defs>
<clipPath id="clip0_267_786">
<rect width="16" height="16" fill="white"/>
</clipPath>
</defs>
</svg>
