<svg width="16" height="16" viewBox="0 0 16 16" fill="none" xmlns="http://www.w3.org/2000/svg">
<path d="M7.90625 7.67969H5.02344L5.00781 6.46875H7.625C8.05729 6.46875 8.4349 6.39583 8.75781 6.25C9.08073 6.10417 9.33073 5.89583 9.50781 5.625C9.6901 5.34896 9.78125 5.02083 9.78125 4.64062C9.78125 4.22396 9.70052 3.88542 9.53906 3.625C9.38281 3.35938 9.14062 3.16667 8.8125 3.04688C8.48958 2.92188 8.07812 2.85938 7.57812 2.85938H5.35938V13H3.85156V1.625H7.57812C8.16146 1.625 8.68229 1.6849 9.14062 1.80469C9.59896 1.91927 9.98698 2.10156 10.3047 2.35156C10.6276 2.59635 10.8724 2.90885 11.0391 3.28906C11.2057 3.66927 11.2891 4.125 11.2891 4.65625C11.2891 5.125 11.1693 5.54948 10.9297 5.92969C10.6901 6.30469 10.3568 6.61198 9.92969 6.85156C9.50781 7.09115 9.01302 7.24479 8.44531 7.3125L7.90625 7.67969ZM7.83594 13H4.42969L5.28125 11.7734H7.83594C8.3151 11.7734 8.72135 11.6901 9.05469 11.5234C9.39323 11.3568 9.65104 11.1224 9.82812 10.8203C10.0052 10.513 10.0938 10.151 10.0938 9.73438C10.0938 9.3125 10.0182 8.94792 9.86719 8.64062C9.71615 8.33333 9.47917 8.09635 9.15625 7.92969C8.83333 7.76302 8.41667 7.67969 7.90625 7.67969H5.75781L5.77344 6.46875H8.71094L9.03125 6.90625C9.57812 6.95312 10.0417 7.10938 10.4219 7.375C10.8021 7.63542 11.0911 7.96875 11.2891 8.375C11.4922 8.78125 11.5938 9.22917 11.5938 9.71875C11.5938 10.4271 11.4375 11.026 11.125 11.5156C10.8177 12 10.3828 12.3698 9.82031 12.625C9.25781 12.875 8.59635 13 7.83594 13Z" fill="white"/>
</svg>
